<svg width="48" height="48" viewBox="0 0 48 48" fill="none" xmlns="http://www.w3.org/2000/svg">

<symbol id="user-icon" viewBox="0 0 48 48">
<circle cx="24" cy="24" r="24" fill="#F6F1FC"/>
<path d="M37.5668 37H10.4334C10.194 37 10 36.8056 10 36.5657V31.372C10 29.3682 11.1996 27.5926 13.0562 26.8486L19.4762 24.2751C19.5856 24.2313 19.7076 24.2341 19.8146 24.2821C19.9217 24.3302 20.0047 24.42 20.0446 24.5306L21.9472 29.8013L22.5827 27.9701L22.0312 26.6191C21.9766 26.4852 21.9919 26.3328 22.0725 26.2126C22.1529 26.0926 22.2878 26.0205 22.4322 26.0205H25.5682C25.7126 26.0205 25.8474 26.0926 25.9279 26.2126C26.0085 26.3326 26.0239 26.4852 25.9691 26.6191L25.4177 27.9701L26.0532 29.8013L27.9557 24.5306C27.9956 24.42 28.0787 24.3304 28.1858 24.2821C28.2931 24.2341 28.4151 24.2317 28.5242 24.2751L34.944 26.8484C36.8004 27.5924 38 29.368 38 31.3719V36.5655C38.0002 36.8056 37.8062 37 37.5668 37ZM10.8668 36.1314H37.1334V31.372C37.1334 29.7254 36.1475 28.2665 34.6222 27.6552L28.6185 25.2485L26.4529 31.248C26.3911 31.42 26.2279 31.5345 26.0454 31.5345C26.0445 31.5345 26.0437 31.5345 26.0426 31.5345C25.859 31.5332 25.6963 31.4165 25.6359 31.2428L24.5452 28.1002C24.5105 28.0003 24.5133 27.8911 24.5535 27.7931L24.9226 26.8887H23.0778L23.4468 27.7931C23.4869 27.8909 23.4898 28.0002 23.4552 28.1002L22.3644 31.2428C22.3041 31.4165 22.1413 31.5332 21.9577 31.5345C21.77 31.5399 21.61 31.4209 21.5476 31.248L19.382 25.2485L13.3783 27.6552C11.8526 28.2666 10.8669 29.7255 10.8669 31.372V36.1314H10.8668ZM33.6922 35.3406H28.6937C28.4543 35.3406 28.2603 35.1463 28.2603 34.9063V31.8228C28.2603 31.5829 28.4543 31.3885 28.6937 31.3885H33.6922C33.9316 31.3885 34.1256 31.5829 34.1256 31.8228V34.9063C34.1256 35.1461 33.9316 35.3406 33.6922 35.3406ZM29.1271 34.472H33.2588V32.2571H29.1271V34.472ZM24.0002 23.8432C23.3182 23.8434 22.6366 23.7169 22.0016 23.4644C21.5103 23.2693 21.104 23.0235 20.7945 22.7339C19.933 21.9282 19.0367 20.1969 18.7138 19.539C18.1358 19.5065 17.0095 19.1933 16.5235 17.3311C16.2785 16.3924 16.334 15.6385 16.6883 15.0903C16.8837 14.7885 17.1297 14.612 17.3318 14.5104C17.3146 13.6196 17.4233 11.1554 18.9863 9.29917C20.9004 7.02606 23.8747 7 24.0002 7C24.1257 7 27.0999 7.02606 29.0141 9.29917C30.577 11.1555 30.6855 13.6196 30.6684 14.5104C30.8705 14.612 31.1165 14.7885 31.3119 15.0903C31.6662 15.6385 31.7217 16.3924 31.4767 17.3311C30.9908 19.1931 29.8645 19.5065 29.2866 19.539C28.9636 20.1969 28.0674 21.9282 27.2058 22.7339C26.8962 23.0235 26.49 23.2693 25.9988 23.4645C25.3638 23.7169 24.682 23.8432 24.0002 23.8432ZM18.9833 18.6642C19.1492 18.6642 19.304 18.7601 19.3762 18.9154C19.3871 18.9383 20.4565 21.2295 21.3862 22.0991C21.6162 22.3142 21.9309 22.502 22.3212 22.6571C23.3884 23.0815 24.6123 23.0815 25.6794 22.6571C26.0698 22.502 26.3845 22.3142 26.6147 22.0989C27.5442 21.2295 28.6138 18.9383 28.6247 18.9154C28.7093 18.733 28.9078 18.6327 29.1046 18.6729C29.2093 18.6902 30.1953 18.8099 30.6386 17.1113C30.8168 16.4282 30.7984 15.8927 30.5848 15.5626C30.4116 15.2949 30.153 15.2369 30.1504 15.2364C29.9275 15.1992 29.7706 14.9964 29.7898 14.7708C29.7914 14.7543 29.8638 13.8129 29.6231 12.6406C28.4855 12.7475 25.1811 12.9775 23.5235 12.2421C22.402 11.745 21.6301 11.155 21.1632 10.7259C20.9944 11.2082 20.7158 11.8238 20.2897 12.2849C19.5599 13.0748 18.677 13.492 18.231 13.6665C18.1762 14.3181 18.2102 14.7595 18.2112 14.7706C18.2301 14.9961 18.0732 15.199 17.8506 15.2362C17.847 15.2372 17.5819 15.2947 17.4076 15.5763C17.2023 15.9073 17.1869 16.4381 17.3625 17.1111C17.8217 18.8712 18.8861 18.6749 18.8967 18.6727C18.9254 18.6669 18.9546 18.6642 18.9833 18.6642ZM24.0002 7.86859C23.9742 7.86877 21.2979 7.9009 19.6488 9.85941C18.9263 10.7174 18.5597 11.7505 18.3763 12.6472C18.7573 12.4508 19.2394 12.1429 19.6533 11.6951C20.2809 11.0159 20.526 9.80469 20.5284 9.7927C20.5617 9.62419 20.6909 9.49113 20.8578 9.45326C21.0254 9.41504 21.1984 9.47914 21.3011 9.61672C21.308 9.62593 22.1065 10.6642 23.8738 11.4481C25.2696 12.0674 28.2095 11.8914 29.3968 11.7882C29.1805 11.1303 28.8511 10.4528 28.3513 9.85941C26.6944 7.89135 24.0269 7.86859 24.0002 7.86859Z" fill="#871DFB" stroke="#871DFB" stroke-width="0.5"/>
</symbol>


<symbol id="folder-icon" viewBox="0 0 48 48" >
<circle cx="24" cy="24" r="24" fill="#F6F1FC"/>
<path d="M38.414 21.1349C37.8458 20.3433 36.9694 19.8879 36.0109 19.8879H35.2852V17.8914C35.2852 16.2102 33.9501 14.8441 32.3001 14.8441H23.5913C23.0915 14.8441 22.6123 14.641 22.2563 14.2837L20.887 12.8897C20.3256 12.3152 19.5793 12 18.7851 12H11.9797C10.3365 12 9.00145 13.366 9.00145 15.0543V32.8266C8.98091 33.5061 9.17945 34.1786 9.5834 34.7391C10.1585 35.5377 11.0417 36 12.0139 36H32.9574C34.265 36 35.4084 35.1384 35.8055 33.8564L38.8659 23.8459C39.1466 22.9142 38.9823 21.9264 38.414 21.1349ZM10.09 15.0543C10.09 13.9895 10.939 13.1208 11.9728 13.1208H18.7851C19.2849 13.1208 19.7573 13.324 20.1202 13.6813L21.4895 15.0753C22.0509 15.6497 22.7971 15.965 23.5913 15.965H32.3069C33.3476 15.965 34.1966 16.8336 34.1966 17.8914V19.8879H15.0264C13.7187 19.8879 12.5753 20.7496 12.1782 22.0245L10.0832 28.8616V15.0543H10.09ZM37.8115 23.5166L34.7511 33.5271C34.5047 34.3398 33.7789 34.8792 32.9505 34.8792H12.0071C11.3909 34.8792 10.8295 34.5849 10.4598 34.0806C10.0969 33.5692 9.98734 32.9317 10.1722 32.3292L13.2189 22.3608C13.4654 21.5482 14.1911 21.0088 15.0195 21.0088H36.004C36.6134 21.0088 37.168 21.296 37.524 21.7933C37.8937 22.2977 37.9964 22.9212 37.8115 23.5166Z" fill="#871DFB" stroke="#871DFB" stroke-width="0.35"/>
</symbol>



<symbol id="gavel-icon" viewBox="0 0 48 48" >
<circle cx="24" cy="24" r="24" fill="#F6F1FC"/>
<g clip-path="url(#clip0_16442_152462)">
<path d="M18.6086 11.7773H13.5605C13.3178 11.7773 13.1211 11.9741 13.1211 12.2168C13.1211 12.4595 13.3178 12.6562 13.5605 12.6562H18.6086C18.8513 12.6562 19.048 12.4595 19.048 12.2168C19.048 11.9741 18.8513 11.7773 18.6086 11.7773Z" fill="#871DFB" stroke="#871DFB" stroke-width="0.6"/>
<path d="M18.6086 13.8047H13.5605C13.3178 13.8047 13.1211 14.0014 13.1211 14.2441C13.1211 14.4868 13.3178 14.6836 13.5605 14.6836H18.6086C18.8513 14.6836 19.048 14.4868 19.048 14.2441C19.048 14.0014 18.8513 13.8047 18.6086 13.8047Z" fill="#871DFB" stroke="#871DFB" stroke-width="0.6"/>
<path d="M36.3183 35.5135L27.0051 26.8837C27.4299 26.413 27.8308 25.9376 28.2039 25.46C28.9238 25.9644 29.9243 25.898 30.5693 25.2573C31.2951 24.5366 31.2991 23.3658 30.5782 22.64L26.7 18.7351C25.9809 18.0111 24.8067 18.0071 24.0826 18.7262C23.5148 19.2902 23.39 20.134 23.7094 20.8211C21.9331 22.1801 20.1218 23.9629 18.6962 25.7998C18.0246 25.4806 17.1767 25.585 16.5982 26.1596C15.8726 26.8803 15.8683 28.0511 16.5893 28.777L20.4675 32.6818C21.1876 33.4068 22.3591 33.4116 23.0849 32.6907C23.7296 32.0503 23.803 31.0495 23.3038 30.3266C23.7849 29.9559 24.2643 29.5573 24.739 29.1347L33.3048 38.5064C33.8869 39.1431 34.8815 39.1677 35.4941 38.5592L36.3561 37.7031C36.9678 37.0957 36.9529 36.1016 36.3183 35.5135ZM24.702 19.3498C25.0831 18.9713 25.6997 18.9752 26.0765 19.3545L29.9547 23.2594C30.3331 23.6405 30.3312 24.2552 29.95 24.6337C29.5697 25.0114 28.9531 25.0093 28.5755 24.629L24.6973 20.7242C24.3197 20.344 24.3218 19.7274 24.702 19.3498ZM24.2461 21.5171L27.5607 24.8545C26.208 26.5983 24.4591 28.3361 22.7027 29.6794L19.3881 26.3421C20.7061 24.6429 22.4478 22.8926 24.2461 21.5171ZM22.4656 32.0672C22.0848 32.4453 21.4697 32.4436 21.0911 32.0625L17.2129 28.1577C16.8344 27.7766 16.8365 27.1618 17.2176 26.7832C17.5984 26.4051 18.2135 26.4068 18.5921 26.7879L22.4703 30.6927C22.848 31.0729 22.8459 31.6895 22.4656 32.0672ZM35.7368 37.0796L34.8748 37.9357C34.6098 38.1989 34.1921 38.1745 33.9535 37.9134L25.386 28.5398C25.5585 28.3765 25.7304 28.2112 25.9011 28.0417C26.0728 27.8711 26.2404 27.6992 26.4059 27.5267L35.7208 36.1582C35.9863 36.4042 35.9956 36.8225 35.7368 37.0796Z" fill="#871DFB" stroke="#871DFB" stroke-width="0.6"/>
<path d="M31.0821 38.1006C31.0003 38.1141 30.9163 38.121 30.8323 38.121H12.4339C11.5972 38.121 10.9165 37.4402 10.9165 36.6035V11.3963C10.9165 10.5596 11.5972 9.87891 12.4339 9.87891H26.7549C26.8141 9.87891 26.8723 9.88482 26.9295 9.89443V12.9028C26.9295 14.2242 28.0046 15.2991 29.3258 15.2991H32.3342C32.3438 15.3564 32.3497 15.4145 32.3497 15.4737V30.8089C32.3497 31.0516 32.5464 31.2483 32.7892 31.2483C33.032 31.2483 33.2287 31.0516 33.2287 30.8089V15.4737C33.2287 14.9603 33.0287 14.4777 32.6658 14.1147L28.1139 9.56297C27.751 9.19992 27.2684 9 26.7549 9H12.4339C11.1126 9 10.0376 10.075 10.0376 11.3963V36.6035C10.0376 37.9248 11.1126 38.9998 12.4339 38.9998H30.8323C30.9641 38.9998 31.0963 38.989 31.2254 38.9677C31.4648 38.9281 31.6269 38.7019 31.5873 38.4624C31.5477 38.223 31.3214 38.0606 31.0821 38.1006ZM31.7283 14.4202H29.3258C28.4891 14.4202 27.8084 13.7395 27.8084 12.9028V10.5004L31.7283 14.4202Z" fill="#871DFB" stroke="#871DFB" stroke-width="0.6"/>
</g>
<defs>
<clipPath id="clip0_16442_152462">
<rect width="27.6316" height="30" fill="white" transform="translate(10 9)"/>
</clipPath>
</defs>
</symbol>




<symbol id="document-icon" viewBox="0 0 48 48">
<circle cx="24" cy="24" r="24" fill="#F6F1FC"/>
<path d="M35.2806 12.1792H32.4536V9.56641C32.4536 9.25358 32.2 9 31.8872 9H13.5664C13.2536 9 13 9.25358 13 9.56641V34.2546C13 34.5674 13.2536 34.821 13.5664 34.821H16.9716V37.4336C16.9716 37.7464 17.2253 38 17.538 38H35.2806C35.5933 38 35.847 37.7464 35.847 37.4336V12.7456C35.847 12.4328 35.5934 12.1792 35.2806 12.1792ZM14.1328 10.1328H31.3208V33.6879L14.1328 33.6881V10.1328ZM34.7142 36.8672H18.1045V34.821H31.8872C32.1959 34.821 32.4538 34.563 32.4538 34.2544V13.3121H34.7142V36.8672Z" fill="#871DFB"/>
<path d="M24.1824 14.5146H28.2582C28.571 14.5146 28.8246 14.2611 28.8246 13.9482C28.8246 13.6354 28.571 13.3818 28.2582 13.3818H24.1824C23.8696 13.3818 23.616 13.6354 23.616 13.9482C23.616 14.2611 23.8696 14.5146 24.1824 14.5146Z" fill="#871DFB"/>
<path d="M24.1824 18.3154H28.2582C28.571 18.3154 28.8246 18.0618 28.8246 17.749C28.8246 17.4362 28.571 17.1826 28.2582 17.1826H24.1824C23.8696 17.1826 23.616 17.4362 23.616 17.749C23.616 18.0618 23.8696 18.3154 24.1824 18.3154Z" fill="#871DFB"/>
<path d="M24.1824 22.1729H28.2582C28.571 22.1729 28.8246 21.9193 28.8246 21.6064C28.8246 21.2936 28.571 21.04 28.2582 21.04H24.1824C23.8696 21.04 23.616 21.2936 23.616 21.6064C23.616 21.9193 23.8696 22.1729 24.1824 22.1729Z" fill="#871DFB"/>
<path d="M17.3413 25.9746H28.2581C28.5708 25.9746 28.8245 25.721 28.8245 25.4082C28.8245 25.0954 28.5708 24.8418 28.2581 24.8418H17.3413C17.0285 24.8418 16.7749 25.0954 16.7749 25.4082C16.7749 25.721 17.0285 25.9746 17.3413 25.9746Z" fill="#871DFB"/>
<path d="M25.6778 29.7734C25.9906 29.7734 26.2443 29.5199 26.2443 29.207C26.2443 28.8942 25.9906 28.6406 25.6778 28.6406H17.3413C17.0285 28.6406 16.7749 28.8942 16.7749 29.207C16.7749 29.5199 17.0285 29.7734 17.3413 29.7734H25.6778Z" fill="#871DFB"/>
<path d="M28.7801 29.0028C28.6614 28.718 28.3259 28.5782 28.0404 28.6964C27.7556 28.8143 27.6158 29.1514 27.734 29.4361C27.8522 29.721 28.1886 29.8608 28.4737 29.7425C28.7595 29.6239 28.8972 29.2886 28.7801 29.0028Z" fill="#871DFB"/>
<path d="M17.4021 21.8377C17.4021 22.2975 17.9486 22.5685 18.3146 22.2861L19.6423 21.2611L20.9705 22.2861C21.3359 22.5683 21.8829 22.2983 21.8829 21.8377V17.7325C22.2747 17.2421 22.5096 16.6214 22.5096 15.9464C22.5096 14.3654 21.2233 13.0791 19.6422 13.0791C18.0612 13.0791 16.7749 14.3654 16.7749 15.9464C16.7749 16.6216 17.01 17.2426 17.402 17.733V21.8377H17.4021ZM19.9883 20.0971C19.7868 19.9415 19.4977 19.9416 19.2961 20.0972L18.5349 20.6849V18.5911C18.8758 18.7344 19.2499 18.8137 19.6423 18.8137C20.0349 18.8137 20.4092 18.7343 20.7502 18.5909V20.6851L19.9883 20.0971ZM19.6423 14.2119C20.5988 14.2119 21.3769 14.99 21.3769 15.9464C21.3769 16.8729 20.6466 17.6322 19.7315 17.6787C18.7576 17.7273 17.9078 16.9222 17.9078 15.9464C17.9078 14.99 18.6859 14.2119 19.6423 14.2119Z" fill="#871DFB"/>
</symbol>

<symbol id="hierarchy-icon" viewBox="0 0 48 48">
<path d="M26.5844 22.398V22.5039L26.6842 22.5393C27.9449 22.9865 28.85 24.1905 28.85 25.6016C28.85 27.3926 27.3926 28.85 25.6016 28.85C23.8105 28.85 22.3531 27.3926 22.3531 25.6016C22.3531 24.1905 23.2582 22.9865 24.5189 22.5393L24.6187 22.5039V22.398V18.8047C24.6187 18.0972 24.0434 17.5219 23.3359 17.5219H15.6328H15.4828V17.6719V22.398V22.5039L15.5827 22.5393C16.8434 22.9865 17.7484 24.1905 17.7484 25.6016C17.7484 27.3926 16.291 28.85 14.5 28.85C12.7089 28.85 11.2516 27.3926 11.2516 25.6016C11.2516 24.1905 12.1566 22.9865 13.4173 22.5393L13.5172 22.5039V22.398V17.6719V17.5219H13.3672H5.66406C4.95659 17.5219 4.38125 18.0972 4.38125 18.8047V22.398V22.5039L4.4811 22.5393C5.74182 22.9865 6.64687 24.1905 6.64687 25.6016C6.64687 27.3926 5.18949 28.85 3.39844 28.85C1.60738 28.85 0.15 27.3926 0.15 25.6016C0.15 24.1905 1.05506 22.9865 2.31577 22.5393L2.41563 22.5039V22.398V18.8047C2.41563 17.0136 3.87301 15.5562 5.66406 15.5562H13.3672H13.5172V15.4062V11.2142V11.0917L13.3971 11.0672C10.8833 10.5549 8.98594 8.32653 8.98594 5.66406C8.98594 2.62374 11.4597 0.15 14.5 0.15C17.5403 0.15 20.0141 2.62374 20.0141 5.66406C20.0141 8.32653 18.1167 10.5549 15.6029 11.0672L15.4828 11.0917V11.2142V15.4062V15.5562H15.6328H23.3359C25.127 15.5562 26.5844 17.0136 26.5844 18.8047V22.398ZM2.11562 25.6016C2.11562 26.309 2.69096 26.8844 3.39844 26.8844C4.10591 26.8844 4.68125 26.309 4.68125 25.6016C4.68125 24.8941 4.10591 24.3188 3.39844 24.3188C2.69096 24.3188 2.11562 24.8941 2.11562 25.6016ZM13.2172 25.6016C13.2172 26.309 13.7925 26.8844 14.5 26.8844C15.2075 26.8844 15.7828 26.309 15.7828 25.6016C15.7828 24.8941 15.2075 24.3188 14.5 24.3188C13.7925 24.3188 13.2172 24.8941 13.2172 25.6016ZM10.9516 5.66406C10.9516 7.6208 12.5433 9.2125 14.5 9.2125C16.4567 9.2125 18.0484 7.6208 18.0484 5.66406C18.0484 3.70732 16.4567 2.11562 14.5 2.11562C12.5433 2.11562 10.9516 3.70732 10.9516 5.66406ZM24.3188 25.6016C24.3188 26.309 24.8941 26.8844 25.6016 26.8844C26.309 26.8844 26.8844 26.309 26.8844 25.6016C26.8844 24.8941 26.309 24.3188 25.6016 24.3188C24.8941 24.3188 24.3188 24.8941 24.3188 25.6016Z" fill="#871DFB" stroke="white" stroke-width="0.3"/>
</symbol>

<symbol id="log-icon" viewBox="0 0 48 48">
<circle cx="24" cy="24" r="24" fill="#F6F1FC"/>
<path d="M35.3952 14.3167C35.3965 14.1891 35.3422 14.0663 35.2442 13.9749L29.926 9.14162C29.8259 9.05196 29.6905 9.00254 29.55 9.00435V9H13.5955C12.7143 9 12 9.64918 12 10.45V36.55C12 37.3508 12.7143 38 13.5955 38H33.8045C34.6857 38 35.4 37.3508 35.4 36.55V14.3167H35.3952ZM30.0818 10.6501L33.5844 13.8333H30.6136C30.3199 13.8333 30.0818 13.6169 30.0818 13.35V10.6501ZM34.3364 36.55C34.3364 36.8169 34.0982 37.0333 33.8045 37.0333H13.5955C13.3018 37.0333 13.0636 36.8169 13.0636 36.55V10.45C13.0636 10.1831 13.3018 9.96667 13.5955 9.96667H29.0182V13.35C29.0182 14.1508 29.7325 14.8 30.6136 14.8H34.3364V36.55Z" fill="#871DFB" stroke="#871DFB" stroke-width="0.3"/>
<path d="M17.3188 22.0476C16.4376 22.0476 15.7233 22.6968 15.7233 23.4976C15.7233 24.2984 16.4376 24.9476 17.3188 24.9476C18.1999 24.9476 18.9142 24.2984 18.9142 23.4976C18.9142 22.6968 18.1999 22.0476 17.3188 22.0476ZM17.3188 23.9809C17.0251 23.9809 16.787 23.7645 16.787 23.4976C16.787 23.2307 17.0251 23.0143 17.3188 23.0143C17.6125 23.0143 17.8506 23.2307 17.8506 23.4976C17.8506 23.7645 17.6125 23.9809 17.3188 23.9809Z" fill="#871DFB" stroke="#871DFB" stroke-width="0.3"/>
<path d="M31.6766 23.0164H21.0402V23.9831H31.6766V23.0164Z" fill="#871DFB" stroke="#871DFB" stroke-width="0.3"/>
<path d="M17.3188 17.215C16.4376 17.215 15.7233 17.8642 15.7233 18.665C15.7233 19.4658 16.4376 20.115 17.3188 20.115C18.1999 20.115 18.9142 19.4658 18.9142 18.665C18.9142 17.8642 18.1999 17.215 17.3188 17.215ZM17.3188 19.1483C17.0251 19.1483 16.787 18.9319 16.787 18.665C16.787 18.3981 17.0251 18.1816 17.3188 18.1816C17.6125 18.1816 17.8506 18.3981 17.8506 18.665C17.8506 18.9319 17.6125 19.1483 17.3188 19.1483Z" fill="#871DFB" stroke="#871DFB" stroke-width="0.3"/>
<path d="M31.6766 18.1828H21.0402V19.1495H31.6766V18.1828Z" fill="#871DFB" stroke="#871DFB" stroke-width="0.3"/>
<path d="M17.3187 26.882C16.4375 26.882 15.7232 27.5312 15.7232 28.332C15.7232 29.1328 16.4375 29.782 17.3187 29.782C18.1998 29.782 18.9141 29.1328 18.9141 28.332C18.9141 27.5312 18.1998 26.882 17.3187 26.882ZM17.3187 28.8153C17.025 28.8153 16.7868 28.5989 16.7868 28.332C16.7868 28.0651 17.025 27.8487 17.3187 27.8487C17.6124 27.8487 17.8505 28.0651 17.8505 28.332C17.8505 28.5989 17.6124 28.8153 17.3187 28.8153Z" fill="#871DFB" stroke="#871DFB" stroke-width="0.3"/>
<path d="M31.6769 27.8487H21.0405V28.8153H31.6769V27.8487Z" fill="#871DFB" stroke="#871DFB" stroke-width="0.3"/>
<path d="M17.3188 31.7154C16.4376 31.7154 15.7233 32.3645 15.7233 33.1654C15.7233 33.9662 16.4376 34.6154 17.3188 34.6154C18.1999 34.6154 18.9142 33.9662 18.9142 33.1654C18.9142 32.3645 18.1999 31.7154 17.3188 31.7154ZM17.3188 33.6487C17.0251 33.6487 16.787 33.4323 16.787 33.1654C16.787 32.8984 17.0251 32.682 17.3188 32.682C17.6125 32.682 17.8506 32.8984 17.8506 33.1654C17.8506 33.4323 17.6125 33.6487 17.3188 33.6487Z" fill="#871DFB" stroke="#871DFB" stroke-width="0.3"/>
<path d="M31.6769 32.6813H21.0405V33.648H31.6769V32.6813Z" fill="#871DFB" stroke="#871DFB" stroke-width="0.3"/>
</symbol>



<symbol id="book-icon" viewBox="0 0 48 48">
<circle cx="24" cy="24" r="24" fill="#F6F1FC"/>
<path d="M24.8363 9H18.8406C18.5859 9 18.3794 9.20895 18.3794 9.46665V12.7332H11.4612C11.2065 12.7332 11 12.9422 11 13.1999V36.5326C11 36.7903 11.2065 36.9993 11.4612 36.9993H24.8363C25.091 36.9993 25.2975 36.7903 25.2975 36.5326V9.46665C25.2975 9.20895 25.091 9 24.8363 9ZM24.3751 33.266H19.3018V32.3327H24.3751V33.266ZM11.9224 15.9998H18.3794V29.9995H11.9224V15.9998ZM24.3751 14.1332H19.3018V12.7332H24.3751V14.1332ZM11.9224 30.9328H18.3794V32.3327H11.9224V30.9328ZM19.3018 31.3994V15.0665H24.3751V31.3994H19.3018ZM24.3751 9.93331V11.7999H19.3018V9.93331H24.3751ZM18.3794 13.6665V15.0665H11.9224V13.6665H18.3794ZM11.9224 33.266H18.3794V36.066H11.9224V33.266ZM19.3018 36.066V34.1993H24.3751V36.066H19.3018Z" fill="#871DFB"/>
<path d="M38.9835 34.5339L33.3139 12.9265C33.2822 12.8054 33.2033 12.7019 33.0945 12.6389C32.9858 12.576 32.8564 12.5588 32.7348 12.5912L25.6477 14.4701C25.3967 14.5366 25.2467 14.7921 25.3122 15.0421L30.9819 36.6495C31.0135 36.7706 31.0927 36.874 31.2016 36.9369C31.3102 36.9995 31.4396 37.0165 31.561 36.9839L38.6481 35.105C38.8986 35.0385 39.0484 34.7834 38.9835 34.5339ZM27.0981 18.1263L33.2723 16.4898L33.4945 17.3352L27.3207 18.9742L27.0981 18.1263ZM33.733 18.2467L36.4733 28.6969L30.3014 30.3341L27.5611 19.8832L33.733 18.2467ZM36.7139 29.6063L37.1977 31.4497L31.0235 33.0862L30.5415 31.2435L36.7139 29.6063ZM32.5193 13.6203L33.0338 15.5813L26.8596 17.2173L26.3456 15.2572L32.5193 13.6203ZM31.7765 35.9557L31.262 33.9947L37.4362 32.3577L37.9502 34.3178L31.7765 35.9557Z" fill="#871DFB"/>
<path d="M17.0768 17.3398H13.2642C13.001 17.3398 12.7876 17.5532 12.7876 17.8164V21.6291C12.7876 21.8923 13.001 22.1057 13.2642 22.1057H17.0768C17.34 22.1057 17.5534 21.8923 17.5534 21.6291V17.8164C17.5534 17.5532 17.34 17.3398 17.0768 17.3398ZM16.6003 21.1525H13.7408V18.293H16.6003V21.1525Z" fill="#871DFB"/>
</symbol>
</svg>
