<svg width="48" height="48" viewBox="0 0 48 48" fill="none" xmlns="http://www.w3.org/2000/svg">


<symbol id="user-circle" viewBox="0 0 48 48">
<svg width="48" height="48" viewBox="0 0 48 48" fill="none" xmlns="http://www.w3.org/2000/svg">
<path d="M42.1796 13.5604C41.3841 12.472 40.1572 11.8459 38.8153 11.8459H37.7992V9.1007C37.7992 6.78897 35.9301 4.91068 33.6201 4.91068H21.4279C20.7282 4.91068 20.0572 4.63135 19.5588 4.14011L17.6418 2.22329C16.8558 1.43345 15.811 1 14.6991 1H5.17154C2.87112 1 1.00202 2.87828 1.00202 5.19965V29.6366C0.973269 30.5709 1.25124 31.4956 1.81676 32.2662C2.62191 33.3643 3.85838 34 5.21947 34H34.5403C36.371 34 37.9718 32.8152 38.5277 31.0525L42.8122 17.2881C43.2052 16.007 42.9752 14.6489 42.1796 13.5604ZM2.52606 5.19965C2.52606 3.73555 3.71461 2.54116 5.16196 2.54116H14.6991C15.3988 2.54116 16.0602 2.82049 16.5682 3.31173L18.4852 5.22855C19.2712 6.01839 20.316 6.45184 21.4279 6.45184H33.6297C35.0866 6.45184 36.2752 7.64624 36.2752 9.1007V11.8459H9.43691C7.60616 11.8459 6.00545 13.0306 5.44951 14.7837L2.51647 24.1848V5.19965H2.52606ZM41.3361 16.8354L37.0516 30.5998C36.7065 31.7172 35.6905 32.4588 34.5307 32.4588H5.20988C4.34722 32.4588 3.56125 32.0543 3.04365 31.3608C2.53564 30.6576 2.38228 29.7811 2.64108 28.9527L6.90645 15.2461C7.25151 14.1287 8.26753 13.387 9.42733 13.387H38.8057C39.6587 13.387 40.4351 13.782 40.9336 14.4658C41.4512 15.1594 41.5949 16.0166 41.3361 16.8354Z" fill="#871DFB" stroke="#871DFB" stroke-width="0.35"/>
</svg>


</symbol>

<symbol id="file-text" viewBox="0 0 48 48">
<path d="M12 20.25H3.875C3.70924 20.25 3.55027 20.3158 3.43306 20.4331C3.31585 20.5503 3.25 20.7092 3.25 20.875V24C3.25 24.1658 3.31585 24.3247 3.43306 24.4419C3.55027 24.5592 3.70924 24.625 3.875 24.625H12C12.1658 24.625 12.3247 24.5592 12.4419 24.4419C12.5592 24.3247 12.625 24.1658 12.625 24V20.875C12.625 20.7092 12.5592 20.5503 12.4419 20.4331C12.3247 20.3158 12.1658 20.25 12 20.25ZM11.375 23.375H4.5V21.5H11.375V23.375Z" fill="#871DFB" stroke="#871DFB" stroke-width="0.1"/>
<path d="M10.125 25.875H12V27.125H10.125V25.875Z" fill="#871DFB" stroke="#871DFB" stroke-width="0.1"/>
<path d="M3.875 25.875H5.75V27.125H3.875V25.875Z" fill="#871DFB" stroke="#871DFB" stroke-width="0.1"/>
<path d="M7 25.875H8.875V27.125H7V25.875Z" fill="#871DFB" stroke="#871DFB" stroke-width="0.1"/>
<path d="M10.125 28.375H12V29.625H10.125V28.375Z" fill="#871DFB" stroke="#871DFB" stroke-width="0.1"/>
<path d="M3.875 28.375H5.75V29.625H3.875V28.375Z" fill="#871DFB" stroke="#871DFB" stroke-width="0.1"/>
<path d="M7 28.375H8.875V29.625H7V28.375Z" fill="#871DFB" stroke="#871DFB" stroke-width="0.1"/>
<path d="M10.125 30.875H12V32.125H10.125V30.875Z" fill="#871DFB" stroke="#871DFB" stroke-width="0.1"/>
<path d="M3.875 30.875H5.75V32.125H3.875V30.875Z" fill="#871DFB" stroke="#871DFB" stroke-width="0.1"/>
<path d="M7 30.875H8.875V32.125H7V30.875Z" fill="#871DFB" stroke="#871DFB" stroke-width="0.1"/>
<path d="M15.3061 10.2492H15.1249V7.74922H15.3061C15.6376 7.74922 15.9556 7.88091 16.19 8.11533C16.4244 8.34975 16.5561 8.6677 16.5561 8.99922H17.8061C17.8061 8.33618 17.5427 7.70029 17.0739 7.23145C16.605 6.76261 15.9691 6.49922 15.3061 6.49922H15.1249V4.98047H13.8749V6.49922H13.6936C13.0306 6.49922 12.3947 6.76261 11.9258 7.23145C11.457 7.70029 11.1936 8.33618 11.1936 8.99922C11.1936 9.66226 11.457 10.2981 11.9258 10.767C12.3947 11.2358 13.0306 11.4992 13.6936 11.4992H13.8749V13.9992H13.6936C13.3621 13.9992 13.0441 13.8675 12.8097 13.6331C12.5753 13.3987 12.4436 13.0807 12.4436 12.7492H11.1936C11.1936 13.4123 11.457 14.0481 11.9258 14.517C12.3947 14.9858 13.0306 15.2492 13.6936 15.2492H13.8749V16.768H15.1249V15.2492H15.3061C15.9691 15.2492 16.605 14.9858 17.0739 14.517C17.5427 14.0481 17.8061 13.4123 17.8061 12.7492C17.8061 12.0862 17.5427 11.4503 17.0739 10.9814C16.605 10.5126 15.9691 10.2492 15.3061 10.2492ZM13.6936 10.2492C13.3621 10.2492 13.0441 10.1175 12.8097 9.8831C12.5753 9.64868 12.4436 9.33074 12.4436 8.99922C12.4436 8.6677 12.5753 8.34975 12.8097 8.11533C13.0441 7.88091 13.3621 7.74922 13.6936 7.74922H13.8749V10.2492H13.6936ZM15.3061 13.9992H15.1249V11.4992H15.3061C15.6376 11.4992 15.9556 11.6309 16.19 11.8653C16.4244 12.0998 16.5561 12.4177 16.5561 12.7492C16.5561 13.0807 16.4244 13.3987 16.19 13.6331C15.9556 13.8675 15.6376 13.9992 15.3061 13.9992Z" fill="#871DFB" stroke="#871DFB" stroke-width="0.1"/>
<path d="M29.5595 0.904297H9.55951C8.73071 0.904297 7.93585 1.23354 7.3498 1.81959C6.76375 2.40564 6.43451 3.2005 6.43451 4.0293V17.7793H2.68451C2.18723 17.7793 1.71031 17.9768 1.35868 18.3285C1.00705 18.6801 0.809509 19.157 0.809509 19.6543V32.7793C0.809509 33.2766 1.00705 33.7535 1.35868 34.1051C1.71031 34.4567 2.18723 34.6543 2.68451 34.6543H6.49701C6.64109 35.3601 7.02462 35.9945 7.58269 36.4501C8.14077 36.9057 8.8391 37.1544 9.55951 37.1543H24.5595C24.6418 37.1548 24.7233 37.139 24.7994 37.1079C24.8756 37.0768 24.9449 37.031 25.0033 36.973L32.5033 29.473C32.5612 29.4146 32.607 29.3454 32.6381 29.2692C32.6692 29.1931 32.685 29.1115 32.6845 29.0293V4.0293C32.6845 3.2005 32.3553 2.40564 31.7692 1.81959C31.1832 1.23354 30.3883 0.904297 29.5595 0.904297ZM2.05951 32.7793V19.6543C2.05951 19.4885 2.12536 19.3296 2.24257 19.2124C2.35978 19.0951 2.51875 19.0293 2.68451 19.0293H13.3095C13.4753 19.0293 13.6342 19.0951 13.7515 19.2124C13.8687 19.3296 13.9345 19.4885 13.9345 19.6543V32.7793C13.9345 32.9451 13.8687 33.104 13.7515 33.2212C13.6342 33.3384 13.4753 33.4043 13.3095 33.4043H2.68451C2.51875 33.4043 2.35978 33.3384 2.24257 33.2212C2.12536 33.104 2.05951 32.9451 2.05951 32.7793ZM24.7994 27.9648C24.6337 27.9648 23.7839 28.4061 23.6667 28.5233C23.6998 28.4955 23.6667 28.8635 23.6667 29.0293V32.3329V35.19H9.38094C8.9941 35.1889 8.42856 35.19 8.42856 35.19C8.42856 35.19 7.92595 35.019 7.79701 34.6543H13.3095C13.8068 34.6543 14.2837 34.4567 14.6353 34.1051C14.987 33.7535 15.1845 33.2766 15.1845 32.7793V19.6543C15.1845 19.157 14.987 18.6801 14.6353 18.3285C14.2837 17.9768 13.8068 17.7793 13.3095 17.7793H8.48808V4.74358C8.48808 4.2463 8.42856 3.76144 8.42856 3.76144C8.42856 3.76144 8.7066 3.22813 8.99999 2.99954C9.19499 2.84759 9.55951 2.70347 9.55951 2.70347L29.4405 2.83882C29.9377 2.83882 30.3333 2.80906 30.3333 2.80906C30.6849 3.16069 30.8853 3.53202 30.8853 4.0293V15.9272V27.9648H24.7994ZM25.1845 35.023V29.6543H30.3333L25.1845 35.023Z" fill="#871DFB" stroke="#871DFB" stroke-width="0.1"/>
<path d="M17.625 19H27.625V20.25H17.625V19Z" fill="#871DFB" stroke="#871DFB" stroke-width="0.1"/>
<path d="M17.625 22.125H26.025V23.375H17.625V22.125Z" fill="#871DFB" stroke="#871DFB" stroke-width="0.1"/>
<path d="M17.625 25.25H27.625V26.5H17.625V25.25Z" fill="#871DFB" stroke="#871DFB" stroke-width="0.1"/>
<path d="M17.625 28.375H22.425V29.625H17.625V28.375Z" fill="#871DFB" stroke="#871DFB" stroke-width="0.1"/>
<path d="M24.4999 6.5C23.6346 6.5 22.7888 6.75659 22.0693 7.23732C21.3499 7.71805 20.7891 8.40133 20.458 9.20076C20.1268 10.0002 20.0402 10.8799 20.209 11.7285C20.3778 12.5772 20.7945 13.3567 21.4063 13.9686C22.0182 14.5804 22.7978 14.9971 23.6464 15.1659C24.4951 15.3347 25.3748 15.2481 26.1742 14.917C26.9736 14.5858 27.6569 14.0251 28.1376 13.3056C28.6183 12.5862 28.8749 11.7403 28.8749 10.875C28.8749 9.71468 28.414 8.60188 27.5935 7.78141C26.7731 6.96094 25.6603 6.5 24.4999 6.5ZM23.2499 13.7312L24.6687 11.7312L26.7124 13.0875C26.2669 13.5304 25.6982 13.8288 25.0805 13.9436C24.4629 14.0584 23.8249 13.9844 23.2499 13.7312ZM27.3999 12.0437L24.8499 10.3562C24.7149 10.2659 24.55 10.2317 24.3901 10.2608C24.2303 10.29 24.0881 10.3803 23.9937 10.5125L22.2374 13.0125C21.8516 12.6044 21.5828 12.0998 21.4594 11.5519C21.3361 11.0039 21.3627 10.4328 21.5364 9.89871C21.7102 9.3646 22.0247 8.88719 22.4469 8.51671C22.869 8.14623 23.3832 7.89638 23.9354 7.79344C24.4875 7.69049 25.0572 7.73826 25.5845 7.93173C26.1118 8.12519 26.5772 8.45719 26.9318 8.8928C27.2863 9.32841 27.5169 9.85153 27.5993 10.4071C27.6817 10.9627 27.6128 11.5302 27.3999 12.05V12.0437Z" fill="#871DFB" stroke="#871DFB" stroke-width="0.1"/>
</symbol>


<symbol id="barcode" viewBox="0 0 48 48">
<path d="M14.9341 4.33594H4.33632V14.9338H14.9342V4.33594H14.9341ZM12.7661 12.7658H6.5043V6.50392H12.7662V12.7658H12.7661Z" fill="#871DFB"/>
<path d="M8.55148 8.55176H10.7195V10.7199H8.55148V8.55176Z" fill="#871DFB"/>
<path d="M4.33632 32.6643H14.9342V22.0664H4.33632V32.6643ZM6.5043 24.2344H12.7662V30.4963H6.5043V24.2344Z" fill="#871DFB"/>
<path d="M32.6679 23.1504H30.5V30.4963H28.3772V28.8835H26.2093V30.4963H23.5628V32.6643H32.6679V23.1504Z" fill="#871DFB"/>
<path d="M8.55148 26.2812H10.7195V28.4494H8.55148V26.2812Z" fill="#871DFB"/>
<path d="M32.6664 4.33594H22.0685V14.9338H32.6664V4.33594ZM30.4984 12.7658H24.2365V6.50392H30.4984V12.7658Z" fill="#871DFB"/>
<path d="M26.2836 8.55176H28.4516V10.7199H26.2836V8.55176Z" fill="#871DFB"/>
<path d="M8.67264 17.415H14.9344V19.583H8.67264V17.415Z" fill="#871DFB"/>
<path d="M4.33632 17.415H6.50444V19.583H4.33632V17.415Z" fill="#871DFB"/>
<path d="M17.103 17.415H25.1715V19.583H17.103V17.415Z" fill="#871DFB"/>
<path d="M32.6671 20.9809V17.415H27.3401V19.583H30.4991V20.9809H32.6671Z" fill="#871DFB"/>
<path d="M17.4197 8.67285H19.5877V14.9346H17.4197V8.67285Z" fill="#871DFB"/>
<path d="M17.4197 4.33594H19.5877V6.50406H17.4197V4.33594Z" fill="#871DFB"/>
<path d="M19.5877 28.3281H21.2004V26.1601H19.5877V22.0664H17.4197V32.6643H21.3945V30.4964H19.5877V28.3281Z" fill="#871DFB"/>
<path d="M24.0402 25.8471H26.2082V24.2344H27.9674V22.0664H22.281V24.2344H24.0402V25.8471Z" fill="#871DFB"/>
<path d="M29.4126 0V2.16798H34.8351V7.58836H37.0031V0H29.4126Z" fill="#871DFB"/>
<path d="M2.16798 2.16798H7.59053V0H0V7.58836H2.16798V2.16798Z" fill="#871DFB"/>
<path d="M34.8351 34.8325H29.4126V37.0005H37.0031V29.4121H34.8351V34.8325Z" fill="#871DFB"/>
<path d="M2.16798 29.4121H0V37.0005H7.59053V34.8325H2.16798V29.4121Z" fill="#871DFB"/>
</symbol>


<symbol id="briefcase" viewBox="0 0 48 48">
<path d="M41.3657 44H1.6346C1.28405 44 1 43.7214 1 43.3775V35.9333C1 33.0611 2.75656 30.5161 5.47517 29.4496L14.8758 25.761C15.036 25.6982 15.2147 25.7022 15.3713 25.7709C15.5282 25.8399 15.6498 25.9687 15.7082 26.1273L18.494 33.6818L19.4246 31.0571L18.6172 29.1207C18.5372 28.9287 18.5595 28.7104 18.6776 28.538C18.7954 28.366 18.9928 28.2627 19.2043 28.2627H23.7962C24.0077 28.2627 24.2052 28.366 24.3229 28.538C24.441 28.7101 24.4636 28.9287 24.3834 29.1207L23.5759 31.0571L24.5065 33.6818L27.2923 26.1273C27.3507 25.9687 27.4723 25.8402 27.6292 25.7709C27.7863 25.7022 27.965 25.6987 28.1247 25.761L37.5251 29.4494C40.2434 30.5158 42 33.0608 42 35.933V43.3773C42.0003 43.7214 41.7162 44 41.3657 44ZM2.26919 42.755H40.7311V35.9333C40.7311 33.573 39.2875 31.4819 37.054 30.6057L28.2628 27.1561L25.0918 35.7555C25.0012 36.002 24.7623 36.1661 24.495 36.1661C24.4938 36.1661 24.4925 36.1661 24.491 36.1661C24.2222 36.1643 23.9838 35.997 23.8955 35.748L22.2983 31.2436C22.2476 31.1005 22.2516 30.9439 22.3105 30.8034L22.8509 29.5071H20.1496L20.69 30.8034C20.7486 30.9436 20.753 31.1002 20.7022 31.2436L19.105 35.748C19.0167 35.997 18.7783 36.1643 18.5095 36.1661C18.2346 36.1738 18.0003 36.0032 17.9089 35.7555L14.738 27.1561L5.94681 30.6057C3.71277 31.4822 2.26945 33.5733 2.26945 35.9333V42.755H2.26919ZM35.6921 41.6216H28.3729C28.0224 41.6216 27.7383 41.343 27.7383 40.9991V36.5794C27.7383 36.2355 28.0224 35.9569 28.3729 35.9569H35.6921C36.0427 35.9569 36.3267 36.2355 36.3267 36.5794V40.9991C36.3267 41.3427 36.0427 41.6216 35.6921 41.6216ZM29.0075 40.3766H35.0575V37.2019H29.0075V40.3766ZM21.5003 25.142C20.5017 25.1422 19.5036 24.961 18.5737 24.5989C17.8544 24.3193 17.2594 23.967 16.8063 23.5519C15.5447 22.397 14.2324 19.9155 13.7594 18.9726C12.9132 18.926 11.264 18.4771 10.5522 15.8078C10.1935 14.4625 10.2748 13.3819 10.7936 12.596C11.0797 12.1635 11.4399 11.9105 11.7358 11.7649C11.7107 10.488 11.8699 6.956 14.1585 4.29547C16.9614 1.03735 21.3165 1 21.5003 1C21.684 1 26.0391 1.03735 28.842 4.29547C31.1306 6.95625 31.2895 10.488 31.2644 11.7649C31.5604 11.9105 31.9206 12.1635 32.2067 12.596C32.7255 13.3819 32.8067 14.4625 32.4481 15.8078C31.7365 18.4768 30.0874 18.926 29.2411 18.9726C28.7682 19.9155 27.4558 22.397 26.1942 23.5519C25.7409 23.967 25.1461 24.3193 24.4268 24.5992C23.4969 24.961 22.4986 25.142 21.5003 25.142ZM14.1542 17.7186C14.3971 17.7186 14.6238 17.8561 14.7294 18.0787C14.7454 18.1116 16.3113 21.3956 17.6726 22.6421C18.0095 22.9503 18.4702 23.2195 19.0418 23.4418C20.6045 24.0501 22.3966 24.0501 23.9592 23.4418C24.5308 23.2195 24.9916 22.9503 25.3286 22.6418C26.6897 21.3956 28.2559 18.1116 28.2719 18.0787C28.3958 17.8172 28.6864 17.6736 28.9745 17.7311C29.1278 17.756 30.5717 17.9275 31.2207 15.4929C31.4817 14.5138 31.4548 13.7461 31.1421 13.2731C30.8885 12.8893 30.5097 12.8062 30.5059 12.8054C30.1795 12.7521 29.9498 12.4616 29.978 12.1381C29.9802 12.1145 30.0863 10.7652 29.7338 9.08493C28.0681 9.23806 23.2294 9.56773 20.8022 8.51373C19.1601 7.8011 18.0298 6.9555 17.3462 6.34048C17.0989 7.0317 16.691 7.91414 16.0671 8.57498C14.9984 9.70717 13.7056 10.3053 13.0525 10.5553C12.9723 11.4892 13.022 12.1219 13.0236 12.1379C13.0512 12.4611 12.8215 12.7519 12.4956 12.8052C12.4903 12.8067 12.1021 12.8891 11.8468 13.2927C11.5462 13.7671 11.5236 14.528 11.7808 15.4926C12.4532 18.0154 14.0118 17.7341 14.0272 17.7308C14.0694 17.7226 14.112 17.7186 14.1542 17.7186ZM21.5003 2.24498C21.4622 2.24523 17.5434 2.2913 15.1287 5.09849C14.0707 6.32828 13.5338 7.80907 13.2652 9.09439C13.8232 8.81277 14.5291 8.37155 15.1353 7.72964C16.0541 6.75606 16.4131 5.02005 16.4166 5.00287C16.4654 4.76135 16.6545 4.57061 16.8989 4.51633C17.1444 4.46155 17.3977 4.55343 17.548 4.75064C17.5581 4.76384 18.7273 6.25209 21.3152 7.37556C23.3591 8.26324 27.664 8.011 29.4025 7.8631C29.0857 6.92015 28.6034 5.94906 27.8716 5.09849C25.4454 2.2776 21.5393 2.24498 21.5003 2.24498Z" fill="#871DFB" stroke="#871DFB" stroke-width="0.8"/>
</symbol>


<symbol id="layers" viewBox="0 0 48 48">
<path d="M34.1094 28.5767V23.9922C34.1094 21.6014 32.1643 19.6562 29.7734 19.6562H19.9453V14.3078C23.2398 13.6364 25.7266 10.7164 25.7266 7.22656C25.7266 3.24184 22.4847 0 18.5 0C14.5153 0 11.2734 3.24184 11.2734 7.22656C11.2734 10.7164 13.7602 13.6364 17.0547 14.3078V19.6562H7.22656C4.83573 19.6562 2.89062 21.6014 2.89062 23.9922V28.5767C1.20843 29.1734 0 30.7799 0 32.6641C0 35.0549 1.9451 37 4.33594 37C6.72677 37 8.67188 35.0549 8.67188 32.6641C8.67188 30.7799 7.46345 29.1734 5.78125 28.5767V23.9922C5.78125 23.1952 6.42962 22.5469 7.22656 22.5469H17.0547V28.5767C15.3725 29.1733 14.1641 30.7799 14.1641 32.6641C14.1641 35.0549 16.1092 37 18.5 37C20.8908 37 22.8359 35.0549 22.8359 32.6641C22.8359 30.7799 21.6275 29.1734 19.9453 28.5767V22.5469H29.7734C30.5704 22.5469 31.2188 23.1952 31.2188 23.9922V28.5767C29.5366 29.1733 28.3281 30.7799 28.3281 32.6641C28.3281 35.0549 30.2732 37 32.6641 37C35.0549 37 37 35.0549 37 32.6641C37 30.7799 35.7916 29.1734 34.1094 28.5767ZM4.33594 34.1094C3.53899 34.1094 2.89062 33.461 2.89062 32.6641C2.89062 31.8671 3.53899 31.2188 4.33594 31.2188C5.13288 31.2188 5.78125 31.8671 5.78125 32.6641C5.78125 33.461 5.13288 34.1094 4.33594 34.1094ZM18.5 34.1094C17.7031 34.1094 17.0547 33.461 17.0547 32.6641C17.0547 31.8671 17.7031 31.2188 18.5 31.2188C19.2969 31.2188 19.9453 31.8671 19.9453 32.6641C19.9453 33.461 19.2969 34.1094 18.5 34.1094ZM18.5 11.5625C16.1092 11.5625 14.1641 9.6174 14.1641 7.22656C14.1641 4.83573 16.1092 2.89062 18.5 2.89062C20.8908 2.89062 22.8359 4.83573 22.8359 7.22656C22.8359 9.6174 20.8908 11.5625 18.5 11.5625ZM32.6641 34.1094C31.8671 34.1094 31.2188 33.461 31.2188 32.6641C31.2188 31.8671 31.8671 31.2188 32.6641 31.2188C33.461 31.2188 34.1094 31.8671 34.1094 32.6641C34.1094 33.461 33.461 34.1094 32.6641 34.1094Z" fill="#871DFB"/>
</symbol>


<symbol id="calendar" viewBox="0 0 48 48">
<path d="M15.4551 21.2998H11.6914C10.0261 21.2998 8.68848 22.5862 8.68848 24.1465V27.7266C8.68848 29.2868 10.0261 30.5732 11.6914 30.5732H15.4551C17.1204 30.5732 18.458 29.2868 18.458 27.7266V24.1465C18.458 22.5862 17.1204 21.2998 15.4551 21.2998ZM15.6553 27.9268H11.6914C11.6872 27.9268 11.6825 27.9261 11.6777 27.9258C11.6756 27.9256 11.6732 27.926 11.6709 27.9258C11.6696 27.9257 11.6674 27.925 11.666 27.9248H11.6621L11.4893 27.9014V27.7266L11.4912 24.1465V23.9463H15.6553V27.9268Z" fill="#871DFB" stroke="white" stroke-width="0.4"/>
<path d="M10.0898 14.6729C9.30624 14.6729 8.68848 15.2745 8.68848 15.9961C8.68848 16.7177 9.30624 17.3193 10.0898 17.3193C10.8734 17.3193 11.4912 16.7177 11.4912 15.9961C11.4912 15.2745 10.8734 14.6729 10.0898 14.6729Z" fill="#871DFB" stroke="white" stroke-width="0.4"/>
<path d="M17.0566 14.6729C16.273 14.6729 15.6553 15.2745 15.6553 15.9961C15.6553 16.7177 16.273 17.3193 17.0566 17.3193C17.8402 17.3193 18.458 16.7177 18.458 15.9961C18.458 15.2745 17.8402 14.6729 17.0566 14.6729Z" fill="#871DFB" stroke="white" stroke-width="0.4"/>
<path d="M10.0898 0.200195C9.30622 0.200195 8.68848 0.801807 8.68848 1.52344V3.24707H6.40625C2.97476 3.24707 0.200195 5.9003 0.200195 9.14062V25.2891C0.200195 26.0107 0.817932 26.6123 1.60156 26.6123C2.38519 26.6123 3.00293 26.0107 3.00293 25.2891V9.14062C3.00293 7.34081 4.53913 5.89355 6.40625 5.89355H8.68848V7.61719C8.68848 8.33882 9.30622 8.94043 10.0898 8.94043C10.8735 8.94043 11.4912 8.33882 11.4912 7.61719V5.89355H19.1787V7.61719C19.1787 8.33882 19.7964 8.94043 20.5801 8.94043C21.3637 8.94043 21.9814 8.33882 21.9814 7.61719V5.89355H29.5889V7.61719C29.5889 8.33882 30.2066 8.94043 30.9902 8.94043C31.7739 8.94043 32.3916 8.33882 32.3916 7.61719V5.89355H34.5938C36.4609 5.89355 37.9971 7.34081 37.9971 9.14062V32.9062C37.9971 34.7061 36.4609 36.1533 34.5938 36.1533H6.40625C4.53913 36.1533 3.00293 34.7061 3.00293 32.9062C3.00293 32.1846 2.38519 31.583 1.60156 31.583C0.817932 31.583 0.200195 32.1846 0.200195 32.9062C0.200195 36.1466 2.97476 38.7998 6.40625 38.7998H34.5938C38.0252 38.7998 40.7998 36.1466 40.7998 32.9062V9.14062C40.7998 5.9003 38.0252 3.24707 34.5938 3.24707H32.3916V1.52344C32.3916 0.801807 31.7739 0.200195 30.9902 0.200195C30.2066 0.200195 29.5889 0.801807 29.5889 1.52344V3.24707H21.9814V1.52344C21.9814 0.801807 21.3637 0.200195 20.5801 0.200195C19.7964 0.200195 19.1787 0.801807 19.1787 1.52344V3.24707H11.4912V1.52344C11.4912 0.801807 10.8735 0.200195 10.0898 0.200195Z" fill="#871DFB" stroke="white" stroke-width="0.4"/>
<path d="M30.9902 27.9268C30.2066 27.9268 29.5889 28.5284 29.5889 29.25C29.5889 29.9716 30.2066 30.5732 30.9902 30.5732C31.7738 30.5732 32.3916 29.9716 32.3916 29.25C32.3916 28.5284 31.7738 27.9268 30.9902 27.9268Z" fill="#871DFB" stroke="white" stroke-width="0.4"/>
<path d="M30.9902 14.6729C30.2066 14.6729 29.5889 15.2745 29.5889 15.9961C29.5889 16.7177 30.2066 17.3193 30.9902 17.3193C31.7738 17.3193 32.3916 16.7177 32.3916 15.9961C32.3916 15.2745 31.7738 14.6729 30.9902 14.6729Z" fill="#871DFB" stroke="white" stroke-width="0.4"/>
<path d="M30.9902 21.2998C30.2066 21.2998 29.5889 21.9014 29.5889 22.623C29.5889 23.3447 30.2066 23.9463 30.9902 23.9463C31.7738 23.9463 32.3916 23.3447 32.3916 22.623C32.3916 21.9014 31.7738 21.2998 30.9902 21.2998Z" fill="#871DFB" stroke="white" stroke-width="0.4"/>
<path d="M24.0234 21.2998C23.2398 21.2998 22.6221 21.9014 22.6221 22.623C22.6221 23.3447 23.2398 23.9463 24.0234 23.9463C24.807 23.9463 25.4248 23.3447 25.4248 22.623C25.4248 21.9014 24.807 21.2998 24.0234 21.2998Z" fill="#871DFB" stroke="white" stroke-width="0.4"/>
<path d="M24.0234 14.6729C23.2398 14.6729 22.6221 15.2745 22.6221 15.9961C22.6221 16.7177 23.2398 17.3193 24.0234 17.3193C24.807 17.3193 25.4248 16.7177 25.4248 15.9961C25.4248 15.2745 24.807 14.6729 24.0234 14.6729Z" fill="#871DFB" stroke="white" stroke-width="0.4"/>
<path d="M24.0234 27.9268C23.2398 27.9268 22.6221 28.5284 22.6221 29.25C22.6221 29.9716 23.2398 30.5732 24.0234 30.5732C24.807 30.5732 25.4248 29.9716 25.4248 29.25C25.4248 28.5284 24.807 27.9268 24.0234 27.9268Z" fill="#871DFB" stroke="white" stroke-width="0.4"/>
</symbol>

<symbol id="calendar-x" viewBox="0 0 48 48">
<svg width="39" height="38" viewBox="0 0 39 38" fill="none" xmlns="http://www.w3.org/2000/svg">
<g clip-path="url(#clip0_16428_150959)">
<path d="M3.89062 24.3438V9.4375C3.89062 7.88669 5.18736 6.625 6.78125 6.625H8.66016V8.03125C8.66016 8.80792 9.30722 9.4375 10.1055 9.4375C10.9037 9.4375 11.5508 8.80792 11.5508 8.03125V6.625H18.127V8.03125C18.127 8.80792 18.774 9.4375 19.5723 9.4375C20.3705 9.4375 21.0176 8.80792 21.0176 8.03125V6.625H27.5215V8.03125C27.5215 8.80792 28.1686 9.4375 28.9668 9.4375C29.765 9.4375 30.4121 8.80792 30.4121 8.03125V6.625H32.2188C33.8126 6.625 35.1094 7.88669 35.1094 9.4375V31.375C35.1094 32.9258 33.8126 34.1875 32.2188 34.1875H6.78125C5.18736 34.1875 3.89062 32.9258 3.89062 31.375C3.89062 30.5983 3.24356 29.9688 2.44531 29.9688C1.64707 29.9688 1 30.5983 1 31.375C1 34.4766 3.59347 37 6.78125 37H32.2188C35.4065 37 38 34.4766 38 31.375V9.4375C38 6.33588 35.4065 3.8125 32.2188 3.8125H30.4121V2.40625C30.4121 1.62958 29.765 1 28.9668 1C28.1686 1 27.5215 1.62958 27.5215 2.40625V3.8125H21.0176V2.40625C21.0176 1.62958 20.3705 1 19.5723 1C18.774 1 18.127 1.62958 18.127 2.40625V3.8125H11.5508V2.40625C11.5508 1.62958 10.9037 1 10.1055 1C9.30722 1 8.66016 1.62958 8.66016 2.40625V3.8125H6.78125C3.59347 3.8125 1 6.33588 1 9.4375V24.3438C1 25.1204 1.64707 25.75 2.44531 25.75C3.24356 25.75 3.89062 25.1204 3.89062 24.3438ZM21.5033 28.7734H21.5031C21.2112 28.7734 20.9352 28.644 20.7534 28.4219L16.4945 23.2188H14.2969C13.4812 23.2188 12.6348 22.6053 12.6348 21.8117C12.6348 21.0181 13.4812 20.4062 14.2969 20.4062H16.4713L20.7536 15.2021C20.9353 14.9812 21.2104 14.8526 21.5012 14.8525C22.2076 14.8521 22.6717 15.5702 22.3652 16.1895L20.2781 20.4062H23.7922L25.0673 19.0458C25.1767 18.9291 25.3313 18.8623 25.4936 18.8617C25.815 18.8604 26.0762 19.1136 26.0762 19.4262V24.1308C26.0762 24.4425 25.8164 24.6953 25.496 24.6953H25.4275C25.2675 24.6953 25.1146 24.631 25.005 24.5177L23.7486 23.2188H20.283L22.3671 27.4369C22.673 28.056 22.2092 28.7734 21.5033 28.7734Z" fill="#871DFB" stroke="white" stroke-width="0.6"/>
</g>
<rect width="37" height="36" transform="matrix(-1 0 0 1 38 1)" stroke="white" stroke-width="0.3"/>
<defs>
<clipPath id="clip0_16428_150959">
<rect width="37" height="36" transform="matrix(-1 0 0 1 38 1)" fill="white"/>
</clipPath>
</defs>
</svg>
</symbol>

<symbol id="book" viewBox="0 0 48 48">
<svg width="44" height="35" viewBox="0 0 44 35" fill="none" xmlns="http://www.w3.org/2000/svg">
<path d="M42.1796 13.5604C41.3841 12.472 40.1572 11.8459 38.8153 11.8459H37.7992V9.1007C37.7992 6.78897 35.9301 4.91068 33.6201 4.91068H21.4279C20.7282 4.91068 20.0572 4.63135 19.5588 4.14011L17.6418 2.22329C16.8558 1.43345 15.811 1 14.6991 1H5.17154C2.87112 1 1.00202 2.87828 1.00202 5.19965V29.6366C0.973269 30.5709 1.25124 31.4956 1.81676 32.2662C2.62191 33.3643 3.85838 34 5.21947 34H34.5403C36.371 34 37.9718 32.8152 38.5277 31.0525L42.8122 17.2881C43.2052 16.007 42.9752 14.6489 42.1796 13.5604ZM2.52606 5.19965C2.52606 3.73555 3.71461 2.54116 5.16196 2.54116H14.6991C15.3988 2.54116 16.0602 2.82049 16.5682 3.31173L18.4852 5.22855C19.2712 6.01839 20.316 6.45184 21.4279 6.45184H33.6297C35.0866 6.45184 36.2752 7.64624 36.2752 9.1007V11.8459H9.43691C7.60616 11.8459 6.00545 13.0306 5.44951 14.7837L2.51647 24.1848V5.19965H2.52606ZM41.3361 16.8354L37.0516 30.5998C36.7065 31.7172 35.6905 32.4588 34.5307 32.4588H5.20988C4.34722 32.4588 3.56125 32.0543 3.04365 31.3608C2.53564 30.6576 2.38228 29.7811 2.64108 28.9527L6.90645 15.2461C7.25151 14.1287 8.26753 13.387 9.42733 13.387H38.8057C39.6587 13.387 40.4351 13.782 40.9336 14.4658C41.4512 15.1594 41.5949 16.0166 41.3361 16.8354Z" fill="#871DFB" stroke="#871DFB" stroke-width="0.35"/>
</svg>

</symbol>

<symbol id="globe" viewBox="0 0 48 48">
<path d="M19.5 0C8.72229 0 0 8.72145 0 19.5C0 30.2777 8.72145 39 19.5 39C30.2777 39 39 30.2785 39 19.5C39 8.72229 30.2785 0 19.5 0ZM11.9549 4.01829C11.3648 5.62545 10.8694 7.25918 10.4696 8.91577C9.30104 8.56073 8.15153 8.135 7.02335 7.63897C8.45188 6.13816 10.1165 4.91613 11.9549 4.01829ZM5.51012 9.46359C6.97041 10.1398 8.4649 10.7052 9.98918 11.1586C9.54693 13.5194 9.29403 15.9223 9.23401 18.3574H2.32339C2.53386 15.1246 3.63553 12.0649 5.51012 9.46359ZM5.51012 29.5364C3.63553 26.9351 2.53386 23.8754 2.32339 20.6426H9.23401C9.29403 23.0777 9.54693 25.4806 9.98918 27.8414C8.4649 28.2948 6.97049 28.8602 5.51012 29.5364ZM7.02335 31.3611C8.15153 30.865 9.30097 30.4393 10.4696 30.0843C10.8695 31.7409 11.3648 33.3746 11.9549 34.9818C10.1175 34.0844 8.45264 32.8626 7.02335 31.3611ZM18.3574 36.6766C17.1574 36.5985 15.9811 36.3982 14.8432 36.0806C13.9395 33.9386 13.2181 31.7424 12.6801 29.5021C14.5325 29.088 16.4277 28.8458 18.3574 28.7774V36.6766ZM18.3574 26.4908C16.2667 26.5599 14.2133 26.8189 12.2065 27.2659C11.8078 25.0928 11.578 22.8822 11.5199 20.6426H18.3574V26.4908ZM18.3574 18.3574H11.5199C11.578 16.1178 11.8078 13.9072 12.2065 11.7341C14.2133 12.1811 16.2667 12.4401 18.3574 12.5092V18.3574ZM18.3574 10.2226C16.4277 10.1542 14.5325 9.91202 12.6801 9.49787C13.2181 7.25758 13.9395 5.06139 14.8432 2.91944C15.9811 2.6018 17.1574 2.40147 18.3574 2.32339V10.2226ZM33.4899 9.46359C35.3645 12.0649 36.4661 15.1246 36.6766 18.3574H29.766C29.706 15.9223 29.4531 13.5194 29.0108 11.1586C30.5351 10.7052 32.0295 10.1398 33.4899 9.46359ZM31.9766 7.6389C30.8485 8.135 29.699 8.56073 28.5304 8.91569C28.1305 7.2591 27.6352 5.62537 27.0451 4.01822C28.8825 4.9156 30.5474 6.1374 31.9766 7.6389ZM20.6426 2.32339C21.8426 2.40147 23.0189 2.6018 24.1568 2.91944C25.0605 5.06139 25.7819 7.25758 26.3199 9.49787C24.4675 9.91202 22.5723 10.1542 20.6426 10.2226V2.32339ZM20.6426 12.5092C22.7333 12.4401 24.7867 12.1811 26.7935 11.7341C27.1922 13.9072 27.422 16.1178 27.4801 18.3574H20.6426V12.5092ZM24.1567 36.0805C23.0189 36.3982 21.8426 36.5985 20.6426 36.6766V28.7774C22.5723 28.8458 24.4675 29.088 26.3199 29.5021C25.7818 31.7424 25.0605 33.9386 24.1567 36.0805ZM20.6426 26.4908V20.6426H27.4801C27.422 22.8822 27.1922 25.0928 26.7935 27.2659C24.7867 26.8189 22.7333 26.5599 20.6426 26.4908ZM27.0451 34.9817C27.6352 33.3746 28.1306 31.7408 28.5304 30.0842C29.699 30.4393 30.8485 30.865 31.9766 31.361C30.5481 32.8618 28.8835 34.0839 27.0451 34.9817ZM33.4899 29.5364C32.0296 28.8602 30.5351 28.2948 29.0108 27.8414C29.4531 25.4806 29.706 23.0777 29.766 20.6426H36.6766C36.4661 23.8754 35.3645 26.9351 33.4899 29.5364Z" fill="#871DFB"/>
</symbol>

<symbol id="sliders" viewBox="0 0 48 48">
<svg width="44" height="44" viewBox="0 0 44 44" fill="none" xmlns="http://www.w3.org/2000/svg">
<path d="M26.9 25.5024H26.13C25.8404 25.503 25.5813 25.3223 25.4818 25.0502C25.3964 24.8262 25.3047 24.6071 25.206 24.3901C25.0833 24.1262 25.1393 23.8138 25.346 23.6089L25.8948 23.0594C26.7095 22.2376 26.708 20.9121 25.8913 20.0921L23.9131 18.1139C23.0921 17.2977 21.7661 17.2977 20.9451 18.1139L20.3963 18.662C20.191 18.8679 19.8791 18.9238 19.6151 18.802C19.3981 18.7033 19.179 18.6116 18.9543 18.522C18.6809 18.4233 18.499 18.1632 18.5 17.8724V17.1024C18.5 15.9426 17.5598 15.0024 16.4 15.0024H13.6C12.4402 15.0024 11.5 15.9426 11.5 17.1024V17.8724C11.5005 18.1621 11.3198 18.4212 11.0478 18.5206C10.8238 18.606 10.6047 18.6977 10.3877 18.7964C10.1237 18.9185 9.81169 18.8626 9.6065 18.6564L9.057 18.1076C8.23608 17.292 6.91063 17.292 6.0897 18.1076L4.1115 20.0921C3.2953 20.9132 3.2953 22.2391 4.1115 23.0601L4.6596 23.6089C4.86628 23.8138 4.92228 24.1262 4.7996 24.3901C4.7009 24.6071 4.6092 24.8262 4.5231 25.0509C4.42291 25.3246 4.16138 25.5054 3.87 25.5024H3.1C1.94019 25.5024 1 26.4426 1 27.6024V30.4024C1 31.5623 1.94019 32.5024 3.1 32.5024H3.87C4.15963 32.5019 4.41871 32.6826 4.5182 32.9546C4.6036 33.1786 4.6953 33.3977 4.794 33.6147C4.91668 33.8786 4.86068 34.1911 4.654 34.3959L4.1052 34.9454C3.28953 35.7664 3.28953 37.0918 4.1052 37.9127L6.0834 39.8909C6.90441 40.7071 8.23039 40.7071 9.0514 39.8909L9.6002 39.3428C9.80548 39.137 10.1174 39.081 10.3814 39.2028C10.5984 39.3015 10.8175 39.3932 11.0422 39.4828C11.317 39.5805 11.5005 39.8408 11.5 40.1324V40.9024C11.5 42.0623 12.4402 43.0024 13.6 43.0024H16.4C17.5598 43.0024 18.5 42.0623 18.5 40.9024V40.1324C18.4995 39.8428 18.6802 39.5837 18.9522 39.4842C19.1762 39.3988 19.3953 39.3071 19.6123 39.2084C19.8763 39.0864 20.1883 39.1423 20.3935 39.3484L20.943 39.8972C21.7651 40.7116 23.0902 40.71 23.9103 39.8937L25.8885 37.9155C26.7047 37.0945 26.7047 35.7686 25.8885 34.9475L25.3404 34.3987C25.1337 34.1939 25.0777 33.8814 25.2004 33.6175C25.2991 33.4005 25.3908 33.1814 25.4804 32.9567C25.5792 32.6833 25.8392 32.5014 26.13 32.5024H26.9C28.0598 32.5024 29 31.5623 29 30.4024V27.6024C29 26.4426 28.0598 25.5024 26.9 25.5024ZM27.6 30.4024C27.6 30.789 27.2866 31.1024 26.9 31.1024H26.13C25.2598 31.1057 24.4811 31.6435 24.17 32.4562C24.0958 32.6522 24.0156 32.8452 23.9292 33.0351C23.5693 33.8296 23.7363 34.7638 24.3492 35.3843L24.8966 35.9324C25.1701 36.2056 25.1704 36.6489 24.8971 36.9224C24.897 36.9226 24.8968 36.9228 24.8966 36.9229L22.9184 38.9011C22.6451 39.1744 22.202 39.1744 21.9286 38.9011L21.3798 38.353C20.7595 37.7396 19.825 37.5725 19.0306 37.933C18.8409 38.0191 18.6477 38.0996 18.4531 38.1738C17.641 38.4848 17.1035 39.2629 17.1 40.1324V40.9024C17.1 41.289 16.7866 41.6024 16.4 41.6024H13.6C13.2134 41.6024 12.9 41.289 12.9 40.9024V40.1324C12.8968 39.2623 12.3589 38.4835 11.5462 38.1724C11.3502 38.0982 11.1573 38.018 10.9673 37.9316C10.1728 37.5719 9.23874 37.739 8.6181 38.3516L8.07 38.899C7.79683 39.1726 7.35355 39.1728 7.08003 38.8996C7.07985 38.8994 7.07968 38.8992 7.0795 38.899L5.1013 36.9229C4.82804 36.6496 4.82804 36.2065 5.1013 35.9331L5.6494 35.3843C6.26234 34.7638 6.42929 33.8296 6.0694 33.0351C5.9833 32.8454 5.9028 32.6522 5.8286 32.4576C5.51833 31.6447 4.7401 31.1063 3.87 31.1024H3.1C2.71343 31.1024 2.4 30.789 2.4 30.4024V27.6024C2.4 27.2159 2.71343 26.9024 3.1 26.9024H3.87C4.74019 26.8992 5.51894 26.3613 5.83 25.5486C5.9042 25.3526 5.98444 25.1597 6.0708 24.9697C6.43069 24.1752 6.26365 23.2411 5.6508 22.6205L5.1006 22.0724C4.82708 21.7993 4.82681 21.356 5.10008 21.0825C5.10025 21.0823 5.10043 21.0821 5.1006 21.0819L7.0788 19.1037C7.35215 18.8305 7.79525 18.8305 8.0686 19.1037L8.6174 19.6518C9.23769 20.2653 10.1722 20.4323 10.9666 20.0718C11.1563 19.9857 11.3495 19.9052 11.5441 19.831C12.3573 19.521 12.8961 18.7427 12.9 17.8724V17.1024C12.9 16.7159 13.2134 16.4024 13.6 16.4024H16.4C16.7866 16.4024 17.1 16.7159 17.1 17.1024V17.8724C17.1032 18.7426 17.6411 19.5214 18.4538 19.8324C18.6498 19.9066 18.8427 19.9869 19.0327 20.0732C19.8271 20.4337 20.7616 20.2667 21.3819 19.6532L21.93 19.1058C22.2044 18.8344 22.6461 18.8344 22.9205 19.1058L24.8987 21.084C25.172 21.3574 25.172 21.8005 24.8987 22.0738L24.3506 22.6226C23.7378 23.2432 23.5707 24.1773 23.9306 24.9718C24.0167 25.1615 24.0972 25.3547 24.1714 25.5493C24.4824 26.3614 25.2604 26.8989 26.13 26.9024H26.9C27.2866 26.9024 27.6 27.2159 27.6 27.6024V30.4024V30.4024Z" fill="#871DFB" stroke="#871DFB" stroke-width="0.6"/>
<path d="M21.2845 28.7206C21.2775 28.5526 21.2656 28.3853 21.2453 28.2187C21.2229 28.0395 21.1963 27.8617 21.1592 27.6874C21.1347 27.5733 21.1025 27.4606 21.0717 27.3472C21.0325 27.203 20.9884 27.0609 20.9394 26.9209C20.9051 26.8236 20.8694 26.727 20.833 26.6311C20.7428 26.407 20.6398 26.1881 20.5243 25.9759C20.5152 25.9598 20.5096 25.9423 20.5005 25.9262C20.3184 25.6021 20.1075 25.2949 19.8705 25.0085C19.8502 24.9833 19.8271 24.9595 19.8061 24.935C19.7095 24.8209 19.6101 24.7103 19.5058 24.6046C19.4512 24.5479 19.3938 24.4947 19.3364 24.4401C19.2664 24.375 19.1964 24.3106 19.1264 24.249C19.0414 24.1753 18.9549 24.1039 18.8667 24.0348L18.7519 23.9494C17.6687 23.1381 16.3517 22.6999 14.9985 22.7006C14.9285 22.7006 14.8585 22.7111 14.7885 22.7139C14.6394 22.7181 14.4896 22.7265 14.3391 22.7419C14.26 22.7503 14.1802 22.7594 14.1011 22.7706C13.8729 22.8006 13.6464 22.843 13.4228 22.8973C10.0522 23.7683 8.02584 27.2069 8.89682 30.5775C9.47082 32.7986 11.2061 34.5325 13.4277 35.1046C13.4389 35.1046 13.4508 35.1081 13.4627 35.1109C13.7044 35.1712 13.9493 35.218 14.1963 35.2509C14.3594 35.2712 14.5225 35.2754 14.6863 35.2831C14.7955 35.2887 14.8963 35.3048 15.0104 35.3048C15.2099 35.3048 15.4171 35.2915 15.6285 35.2705C15.6509 35.2705 15.6733 35.2642 15.6985 35.2614C15.8686 35.2425 16.0408 35.2173 16.2165 35.1823C16.2865 35.169 16.3516 35.1515 16.4188 35.1361C16.542 35.1074 16.6645 35.0773 16.7905 35.0402C16.8885 35.0108 16.9837 34.9765 17.0796 34.9429C17.1755 34.9093 17.2749 34.8729 17.3743 34.8351C17.4737 34.7973 17.557 34.7539 17.6473 34.7119C17.7649 34.658 17.8818 34.6048 17.9973 34.5418H18.0015C18.6547 34.1921 19.2581 33.7563 19.7956 33.2461C19.9407 33.1107 20.067 32.9562 20.1708 32.7869C20.7171 31.9111 21.076 30.9315 21.225 29.9099C21.2446 29.7748 21.2621 29.6397 21.2726 29.5018C21.2824 29.3751 21.2894 29.2491 21.2922 29.1231C21.2922 29.0832 21.2978 29.0454 21.2978 29.0055C21.2985 28.9068 21.2887 28.8158 21.2845 28.7206ZM19.8894 29.1791C19.8894 29.2372 19.8845 29.2953 19.881 29.3527C19.8684 29.5221 19.8467 29.6915 19.818 29.8616C19.5563 31.317 18.6527 32.577 17.3582 33.2916C17.2714 33.3371 17.186 33.3798 17.1006 33.419L17.0425 33.447C16.6358 33.6317 16.2065 33.7616 15.7657 33.8334C15.7349 33.8383 15.7034 33.8439 15.6719 33.8481C15.5844 33.8607 15.4983 33.8712 15.4129 33.8789C15.3002 33.8887 15.1868 33.8943 15.0713 33.8964C15.0223 33.8964 14.974 33.8964 14.925 33.8964C14.7593 33.8945 14.5939 33.8843 14.4294 33.8656L14.3454 33.8558C14.1529 33.8306 13.9619 33.7947 13.7735 33.748C11.1518 33.077 9.57048 30.4077 10.2414 27.786C10.6848 26.0537 12.0367 24.7004 13.7686 24.2553V24.2546C14.1707 24.1532 14.5837 24.1014 14.9985 24.1006C15.1986 24.1018 15.3985 24.1153 15.597 24.1412C15.6502 24.1475 15.7027 24.1573 15.7552 24.165C15.9064 24.1888 16.0562 24.2189 16.2039 24.2567C16.2522 24.2693 16.3005 24.2805 16.3481 24.2938C16.7203 24.4013 17.0786 24.5521 17.4156 24.7432C17.4695 24.7747 17.522 24.8076 17.5752 24.8405C17.6858 24.9105 17.7929 24.9805 17.8986 25.0603C17.9553 25.1016 18.0127 25.1422 18.0673 25.1863C18.2046 25.296 18.3361 25.4129 18.4614 25.5363C18.5111 25.5867 18.5566 25.642 18.6049 25.6945C18.6854 25.782 18.7638 25.8716 18.8387 25.9661C18.8905 26.0312 18.9402 26.0984 18.9892 26.1663C19.0592 26.2671 19.1292 26.3721 19.1922 26.4785C19.2272 26.5366 19.2622 26.5933 19.2979 26.6528C19.3882 26.819 19.4686 26.9903 19.5387 27.1659C19.5667 27.2359 19.5905 27.3059 19.6157 27.3759C19.6612 27.5047 19.7004 27.6349 19.7347 27.7665C19.7522 27.8365 19.7718 27.8988 19.7865 27.9667C19.8273 28.1559 19.857 28.3473 19.8754 28.54C19.8796 28.5911 19.8796 28.6429 19.8831 28.694C19.8929 28.855 19.8957 29.0167 19.8894 29.1791Z" fill="#871DFB" stroke="#871DFB" stroke-width="0.6"/>
<path d="M40.8996 15.7H38.6981C38.4046 15.703 38.142 15.5181 38.0457 15.2408C37.8287 14.5906 37.566 13.9564 37.2596 13.3431C37.1296 13.0782 37.1838 12.7598 37.394 12.5528L38.955 10.9897C39.7744 10.1697 39.7744 8.84096 38.955 8.021L35.9786 5.0495C35.1587 4.23015 33.8299 4.23015 33.0099 5.0495L31.4496 6.6091C31.2429 6.81927 30.9249 6.8737 30.6601 6.7442C30.0467 6.43629 29.4123 6.17221 28.7617 5.9539C28.4832 5.85861 28.297 5.59576 28.2997 5.3015V3.1C28.2997 1.94019 27.3595 1 26.1997 1H21.9997C20.8398 1 19.8997 1.94019 19.8997 3.1V5.3015C19.9026 5.59506 19.7178 5.85765 19.4404 5.9539C18.7901 6.17213 18.1559 6.43602 17.5427 6.7435C17.2779 6.87396 16.9593 6.8198 16.7524 6.6091L15.1893 5.0481C14.3684 4.23111 13.0416 4.23111 12.2207 5.0481L9.24985 8.0189C8.43006 8.83895 8.43006 10.1682 9.24985 10.9883L11.5451 13.2878C11.8228 13.5568 12.266 13.5498 12.535 13.272C12.7974 13.0011 12.798 12.571 12.5364 12.2994L10.2397 10.0006C9.96639 9.72725 9.96639 9.28415 10.2397 9.0108L13.2105 6.04C13.4838 5.76674 13.9269 5.76674 14.2002 6.04L15.764 7.601C16.3968 8.23748 17.3663 8.39655 18.1692 7.9958C18.7237 7.71816 19.297 7.47981 19.885 7.2825C20.7335 6.99524 21.3033 6.19741 21.2997 5.3015V3.1C21.2997 2.71342 21.6131 2.4 21.9997 2.4H26.1997C26.5862 2.4 26.8997 2.71342 26.8997 3.1V5.3015C26.8961 6.19724 27.4659 6.9948 28.3144 7.2818C28.9025 7.4792 29.4761 7.71773 30.0308 7.9958C30.8339 8.39445 31.8021 8.2352 32.4352 7.6003L33.999 6.04C34.2724 5.76674 34.7155 5.76674 34.9888 6.04L37.9596 9.0115C38.2325 9.28476 38.2325 9.72734 37.9596 10.0006L36.3986 11.5644C35.7628 12.1975 35.6038 13.1665 36.0038 13.9696C36.2815 14.5241 36.5198 15.0974 36.7172 15.6853C37.0042 16.534 37.8021 17.1038 38.6981 17.1H40.8996C41.2862 17.1 41.5996 17.4134 41.5996 17.8V22C41.5996 22.3866 41.2862 22.7 40.8996 22.7H38.6981C37.8024 22.6964 37.0048 23.2662 36.7178 24.1147C36.5205 24.7029 36.2819 25.2764 36.0038 25.8311C35.6045 26.6342 35.7638 27.6027 36.3993 28.2356L37.9603 29.7994C38.2336 30.0727 38.2336 30.5158 37.9603 30.7892L34.9881 33.76C34.7149 34.0328 34.2723 34.0328 33.999 33.76L31.6988 31.4647C31.4299 31.187 30.9867 31.18 30.7091 31.449C30.4313 31.7179 30.4243 32.1611 30.6933 32.4387C30.6989 32.4445 30.7047 32.4503 30.7105 32.4559L33.0099 34.7512C33.8299 35.5705 35.1587 35.5705 35.9786 34.7512L38.9494 31.7811C39.7692 30.961 39.7692 29.6317 38.9494 28.8117L37.3905 27.25C37.1805 27.0431 37.1262 26.7253 37.2554 26.4604C37.5634 25.847 37.8274 25.2126 38.0457 24.562C38.141 24.2836 38.4039 24.0974 38.6981 24.1H40.8996C42.0595 24.1 42.9996 23.1598 42.9996 22V17.8C42.9996 16.6402 42.0595 15.7 40.8996 15.7Z" fill="#871DFB" stroke="#871DFB" stroke-width="0.6"/>
<path d="M30.5348 13.4674C26.9789 9.91899 21.2218 9.91899 17.666 13.4674C17.3974 13.7455 17.4051 14.1886 17.6832 14.4572C17.9544 14.7192 18.3845 14.7192 18.6558 14.4572C21.6426 11.43 26.5178 11.3974 29.545 14.3842C32.5721 17.371 32.6047 22.2463 29.6179 25.2734C29.5938 25.2979 29.5695 25.3222 29.545 25.3464C29.2669 25.615 29.2592 26.0581 29.5278 26.3362C29.7964 26.6143 30.2395 26.622 30.5176 26.3533C30.5234 26.3477 30.5292 26.342 30.5348 26.3362C34.0831 22.7804 34.0831 17.0232 30.5348 13.4674Z" fill="#871DFB" stroke="#871DFB" stroke-width="0.6"/>
</svg>
</symbol>


<symbol id="currency-dollar" viewBox="0 0 48 48"> 
<svg width="45" height="39" viewBox="0 0 45 39" fill="none" xmlns="http://www.w3.org/2000/svg">
<path d="M44.937 21.8908C44.9369 21.8906 44.9369 21.8905 44.9367 21.8903L36.4405 0.557034C36.2602 0.103757 35.7464 -0.117526 35.2932 0.0627912C35.2928 0.0629016 35.2925 0.063012 35.2922 0.0632329L0.824179 13.7881C0.683614 13.8488 0.561709 13.9457 0.470833 14.069C0.184181 14.2179 0.00309178 14.5128 0 14.8357V37.8032C0 38.291 0.395526 38.6866 0.883364 38.6866H37.9847C38.4725 38.6866 38.868 38.291 38.868 37.8032V25.2594L44.4438 23.0387C44.897 22.8579 45.1177 22.344 44.937 21.8908ZM37.1013 36.9198H1.76673V15.7191H37.1013V36.9198ZM14.7389 13.9568L29.53 8.06298C30.8501 9.45052 32.6792 10.2391 34.5943 10.2467L36.0695 13.9568H14.7389ZM38.868 23.362V14.8357C38.868 14.3479 38.4725 13.9524 37.9847 13.9524H37.9705L36.0987 9.25111C36.0779 9.21191 36.0537 9.17458 36.0262 9.1398C35.9315 8.71435 35.5375 8.42406 35.1031 8.45961C33.3212 8.62204 31.578 7.8714 30.4717 6.46497C30.1964 6.12521 29.7125 6.04074 29.3383 6.2671C29.2963 6.27207 29.2547 6.2798 29.2137 6.29007L11.156 13.4807C10.9375 13.5663 10.7627 13.7363 10.671 13.9524H5.18712L35.1261 2.03137L42.9695 21.726L38.868 23.362Z" fill="#871DFB"/>
<path d="M4.16484 30.9557C5.87989 31.4627 7.22194 32.8031 7.73098 34.5175C7.84262 34.8917 8.1868 35.1481 8.57725 35.1482C8.62307 35.1453 8.66856 35.1385 8.71328 35.1279C8.75292 35.1391 8.79345 35.1474 8.8343 35.1526H30.035C30.0715 35.1479 30.1075 35.1405 30.1428 35.1305C30.5842 35.2378 31.0289 34.9672 31.1364 34.5259C31.1367 34.5242 31.1372 34.5227 31.1375 34.521C31.6452 32.8048 32.9875 31.4626 34.7036 30.9549C35.1198 30.8277 35.3784 30.4129 35.3096 29.9832C35.3214 29.9403 35.3299 29.8966 35.3352 29.8524V22.7855C35.33 22.7412 35.3212 22.6975 35.3087 22.6548C35.378 22.2249 35.1193 21.81 34.7027 21.6831C32.9866 21.1755 31.6446 19.8327 31.1384 18.1161C31.0105 17.697 30.5917 17.4378 30.1596 17.5101C30.1187 17.4987 30.0771 17.4904 30.035 17.4854H8.8343C8.7898 17.4907 8.74575 17.4995 8.70268 17.5119C8.27304 17.4434 7.85852 17.7019 7.73098 18.1178C7.22294 19.8337 5.88078 21.1755 4.16484 21.6831C3.74867 21.8103 3.49006 22.225 3.55885 22.6548C3.54737 22.6977 3.53909 22.7414 3.53412 22.7855V29.8524C3.5392 29.8939 3.54748 29.935 3.55885 29.9752C3.48642 30.4077 3.74557 30.8271 4.16484 30.9557ZM5.30085 23.1442C7.07464 22.4317 8.48052 21.0259 9.19295 19.2521H29.6755C30.3883 21.0259 31.7945 22.4317 33.5685 23.1442V29.4938C31.7953 30.207 30.3896 31.6126 29.6764 33.3859H9.19295C8.47974 31.6126 7.07409 30.207 5.30085 29.4938V23.1442Z" fill="#871DFB"/>
<path d="M19.4344 31.6199C22.3617 31.6199 24.7346 29.2469 24.7346 26.3197C24.7346 23.3925 22.3617 21.0195 19.4344 21.0195C16.5072 21.0195 14.1342 23.3925 14.1342 26.3197C14.1371 29.2457 16.5084 31.617 19.4344 31.6199ZM19.4344 22.7863C21.3859 22.7863 22.9679 24.3682 22.9679 26.3197C22.9679 28.2712 21.3859 29.8532 19.4344 29.8532C17.4829 29.8532 15.9009 28.2712 15.9009 26.3197C15.9009 24.3682 17.4829 22.7863 19.4344 22.7863Z" fill="#871DFB"/>
<path d="M9.71628 27.6433C10.448 27.6433 11.0413 27.05 11.0413 26.3182C11.0413 25.5865 10.448 24.9932 9.71628 24.9932C8.98452 24.9932 8.39124 25.5865 8.39124 26.3182C8.39124 27.0501 8.98452 27.6433 9.71628 27.6433ZM9.71628 25.8765C9.9602 25.8765 10.158 26.0743 10.158 26.3182C10.158 26.5621 9.9602 26.7599 9.71628 26.7599C9.47236 26.7599 9.2746 26.5621 9.2746 26.3182C9.2746 26.0743 9.47236 25.8765 9.71628 25.8765Z" fill="#871DFB"/>
<path d="M29.1516 27.6433C29.8834 27.6433 30.4767 27.05 30.4767 26.3182C30.4767 25.5865 29.8834 24.9932 29.1516 24.9932C28.4199 24.9932 27.8266 25.5865 27.8266 26.3182C27.8266 27.0501 28.4199 27.6433 29.1516 27.6433ZM29.1516 25.8765C29.3956 25.8765 29.5933 26.0743 29.5933 26.3182C29.5933 26.5621 29.3956 26.7599 29.1516 26.7599C28.9077 26.7599 28.71 26.5621 28.71 26.3182C28.71 26.0743 28.9077 25.8765 29.1516 25.8765Z" fill="#871DFB"/>
</svg>

</symbol>


<symbol id="hash" viewBox="0 0 48 48"> 
<svg width="48" height="48" viewBox="0 0 48 48" fill="none" xmlns="http://www.w3.org/2000/svg">
<path d="M44.937 21.8908C44.9369 21.8906 44.9369 21.8905 44.9367 21.8903L36.4405 0.557034C36.2602 0.103757 35.7464 -0.117526 35.2932 0.0627912C35.2928 0.0629016 35.2925 0.063012 35.2922 0.0632329L0.824179 13.7881C0.683614 13.8488 0.561709 13.9457 0.470833 14.069C0.184181 14.2179 0.00309178 14.5128 0 14.8357V37.8032C0 38.291 0.395526 38.6866 0.883364 38.6866H37.9847C38.4725 38.6866 38.868 38.291 38.868 37.8032V25.2594L44.4438 23.0387C44.897 22.8579 45.1177 22.344 44.937 21.8908ZM37.1013 36.9198H1.76673V15.7191H37.1013V36.9198ZM14.7389 13.9568L29.53 8.06298C30.8501 9.45052 32.6792 10.2391 34.5943 10.2467L36.0695 13.9568H14.7389ZM38.868 23.362V14.8357C38.868 14.3479 38.4725 13.9524 37.9847 13.9524H37.9705L36.0987 9.25111C36.0779 9.21191 36.0537 9.17458 36.0262 9.1398C35.9315 8.71435 35.5375 8.42406 35.1031 8.45961C33.3212 8.62204 31.578 7.8714 30.4717 6.46497C30.1964 6.12521 29.7125 6.04074 29.3383 6.2671C29.2963 6.27207 29.2547 6.2798 29.2137 6.29007L11.156 13.4807C10.9375 13.5663 10.7627 13.7363 10.671 13.9524H5.18712L35.1261 2.03137L42.9695 21.726L38.868 23.362Z" fill="#871DFB"/>
<path d="M4.16484 30.9557C5.87989 31.4627 7.22194 32.8031 7.73098 34.5175C7.84262 34.8917 8.1868 35.1481 8.57725 35.1482C8.62307 35.1453 8.66856 35.1385 8.71328 35.1279C8.75292 35.1391 8.79345 35.1474 8.8343 35.1526H30.035C30.0715 35.1479 30.1075 35.1405 30.1428 35.1305C30.5842 35.2378 31.0289 34.9672 31.1364 34.5259C31.1367 34.5242 31.1372 34.5227 31.1375 34.521C31.6452 32.8048 32.9875 31.4626 34.7036 30.9549C35.1198 30.8277 35.3784 30.4129 35.3096 29.9832C35.3214 29.9403 35.3299 29.8966 35.3352 29.8524V22.7855C35.33 22.7412 35.3212 22.6975 35.3087 22.6548C35.378 22.2249 35.1193 21.81 34.7027 21.6831C32.9866 21.1755 31.6446 19.8327 31.1384 18.1161C31.0105 17.697 30.5917 17.4378 30.1596 17.5101C30.1187 17.4987 30.0771 17.4904 30.035 17.4854H8.8343C8.7898 17.4907 8.74575 17.4995 8.70268 17.5119C8.27304 17.4434 7.85852 17.7019 7.73098 18.1178C7.22294 19.8337 5.88078 21.1755 4.16484 21.6831C3.74867 21.8103 3.49006 22.225 3.55885 22.6548C3.54737 22.6977 3.53909 22.7414 3.53412 22.7855V29.8524C3.5392 29.8939 3.54748 29.935 3.55885 29.9752C3.48642 30.4077 3.74557 30.8271 4.16484 30.9557ZM5.30085 23.1442C7.07464 22.4317 8.48052 21.0259 9.19295 19.2521H29.6755C30.3883 21.0259 31.7945 22.4317 33.5685 23.1442V29.4938C31.7953 30.207 30.3896 31.6126 29.6764 33.3859H9.19295C8.47974 31.6126 7.07409 30.207 5.30085 29.4938V23.1442Z" fill="#871DFB"/>
<path d="M19.4344 31.6199C22.3617 31.6199 24.7346 29.2469 24.7346 26.3197C24.7346 23.3925 22.3617 21.0195 19.4344 21.0195C16.5072 21.0195 14.1342 23.3925 14.1342 26.3197C14.1371 29.2457 16.5084 31.617 19.4344 31.6199ZM19.4344 22.7863C21.3859 22.7863 22.9679 24.3682 22.9679 26.3197C22.9679 28.2712 21.3859 29.8532 19.4344 29.8532C17.4829 29.8532 15.9009 28.2712 15.9009 26.3197C15.9009 24.3682 17.4829 22.7863 19.4344 22.7863Z" fill="#871DFB"/>
<path d="M9.71628 27.6433C10.448 27.6433 11.0413 27.05 11.0413 26.3182C11.0413 25.5865 10.448 24.9932 9.71628 24.9932C8.98452 24.9932 8.39124 25.5865 8.39124 26.3182C8.39124 27.0501 8.98452 27.6433 9.71628 27.6433ZM9.71628 25.8765C9.9602 25.8765 10.158 26.0743 10.158 26.3182C10.158 26.5621 9.9602 26.7599 9.71628 26.7599C9.47236 26.7599 9.2746 26.5621 9.2746 26.3182C9.2746 26.0743 9.47236 25.8765 9.71628 25.8765Z" fill="#871DFB"/>
<path d="M29.1516 27.6433C29.8834 27.6433 30.4767 27.05 30.4767 26.3182C30.4767 25.5865 29.8834 24.9932 29.1516 24.9932C28.4199 24.9932 27.8266 25.5865 27.8266 26.3182C27.8266 27.0501 28.4199 27.6433 29.1516 27.6433ZM29.1516 25.8765C29.3956 25.8765 29.5933 26.0743 29.5933 26.3182C29.5933 26.5621 29.3956 26.7599 29.1516 26.7599C28.9077 26.7599 28.71 26.5621 28.71 26.3182C28.71 26.0743 28.9077 25.8765 29.1516 25.8765Z" fill="#871DFB"/>
</svg>

</symbol>


<symbol id="shuffle" viewBox="0 0 48 48"> 
<svg width="48" height="48" viewBox="0 0 48 48" fill="none" xmlns="http://www.w3.org/2000/svg">
<path d="M32.3936 8.3C32.3953 8.12488 32.3224 7.95624 32.1909 7.83081L25.0545 1.19445C24.9203 1.07134 24.7385 1.00348 24.55 1.00597V1H3.14091C1.9585 1 1 1.89135 1 2.99091V38.8273C1 39.9268 1.9585 40.8182 3.14091 40.8182H30.2591C31.4415 40.8182 32.4 39.9268 32.4 38.8273V8.3H32.3936ZM25.2636 3.26565L29.9636 7.63636H25.9773C25.5832 7.63636 25.2636 7.33922 25.2636 6.97273V3.26565ZM30.9727 38.8273C30.9727 39.1938 30.6532 39.4909 30.2591 39.4909H3.14091C2.7468 39.4909 2.42727 39.1938 2.42727 38.8273V2.99091C2.42727 2.62442 2.7468 2.32727 3.14091 2.32727H23.8364V6.97273C23.8364 8.07229 24.7949 8.96364 25.9773 8.96364H30.9727V38.8273Z" fill="#871DFB" stroke="#871DFB" stroke-width="0.3"/>
<path d="M8.137 18.916C6.9546 18.916 5.99609 19.8074 5.99609 20.9069C5.99609 22.0065 6.9546 22.8978 8.137 22.8978C9.31941 22.8978 10.2779 22.0065 10.2779 20.9069C10.2779 19.8074 9.31941 18.916 8.137 18.916ZM8.137 21.5706C7.7429 21.5706 7.42337 21.2734 7.42337 20.9069C7.42337 20.5404 7.7429 20.2433 8.137 20.2433C8.53111 20.2433 8.85064 20.5404 8.85064 20.9069C8.85064 21.2734 8.53111 21.5706 8.137 21.5706Z" fill="#871DFB" stroke="#871DFB" stroke-width="0.3"/>
<path d="M27.4036 20.2451H13.1309V21.5724H27.4036V20.2451Z" fill="#871DFB" stroke="#871DFB" stroke-width="0.3"/>
<path d="M8.137 12.2803C6.9546 12.2803 5.99609 13.1716 5.99609 14.2712C5.99609 15.3707 6.9546 16.2621 8.137 16.2621C9.31941 16.2621 10.2779 15.3707 10.2779 14.2712C10.2779 13.1716 9.31941 12.2803 8.137 12.2803ZM8.137 14.9348C7.7429 14.9348 7.42337 14.6377 7.42337 14.2712C7.42337 13.9047 7.7429 13.6075 8.137 13.6075C8.53111 13.6075 8.85064 13.9047 8.85064 14.2712C8.85064 14.6377 8.53111 14.9348 8.137 14.9348Z" fill="#871DFB" stroke="#871DFB" stroke-width="0.3"/>
<path d="M27.4036 13.6084H13.1309V14.9357H27.4036V13.6084Z" fill="#871DFB" stroke="#871DFB" stroke-width="0.3"/>
<path d="M8.137 25.5527C6.9546 25.5527 5.99609 26.4441 5.99609 27.5436C5.99609 28.6432 6.9546 29.5346 8.137 29.5346C9.31941 29.5346 10.2779 28.6432 10.2779 27.5436C10.2779 26.4441 9.31941 25.5527 8.137 25.5527ZM8.137 28.2073C7.7429 28.2073 7.42337 27.9101 7.42337 27.5436C7.42337 27.1772 7.7429 26.88 8.137 26.88C8.53111 26.88 8.85064 27.1772 8.85064 27.5436C8.85064 27.9101 8.53111 28.2073 8.137 28.2073Z" fill="#871DFB" stroke="#871DFB" stroke-width="0.3"/>
<path d="M27.4036 26.8809H13.1309V28.2081H27.4036V26.8809Z" fill="#871DFB" stroke="#871DFB" stroke-width="0.3"/>
<path d="M8.137 32.1904C6.9546 32.1904 5.99609 33.0818 5.99609 34.1813C5.99609 35.2809 6.9546 36.1722 8.137 36.1722C9.31941 36.1722 10.2779 35.2809 10.2779 34.1813C10.2779 33.0818 9.31941 32.1904 8.137 32.1904ZM8.137 34.845C7.7429 34.845 7.42337 34.5478 7.42337 34.1813C7.42337 33.8148 7.7429 33.5177 8.137 33.5177C8.53111 33.5177 8.85064 33.8148 8.85064 34.1813C8.85064 34.5478 8.53111 34.845 8.137 34.845Z" fill="#871DFB" stroke="#871DFB" stroke-width="0.3"/>
<path d="M27.4036 33.5166H13.1309V34.8439H27.4036V33.5166Z" fill="#871DFB" stroke="#871DFB" stroke-width="0.3"/>
</svg>


</symbol>


<symbol id="repeat" viewBox="0 0 48 48"> 
<svg width="48" height="48" viewBox="0 0 40 40" fill="none" xmlns="http://www.w3.org/2000/svg">
<path d="M39.0087 8.74305C38.5494 8.2837 37.8045 8.2837 37.345 8.74305L36.2916 9.79651V8.69804C36.2916 4.42078 33.0397 1.39453 29.1957 1.39453C28.546 1.39453 28.0193 1.92126 28.0193 2.57096C28.0193 3.22066 28.546 3.74739 29.1957 3.74739C31.4949 3.74739 33.9387 5.48246 33.9387 8.69804V9.79643L32.8853 8.74305C32.426 8.28362 31.6811 8.28362 31.2216 8.74305C30.7622 9.20241 30.7622 9.94725 31.2216 10.4068L34.2831 13.4683C34.7443 13.9294 35.4909 13.9244 35.9472 13.4683L39.0087 10.4068C39.4682 9.94733 39.4682 9.20241 39.0087 8.74305Z" fill="#871DFB"/>
<path d="M10.8032 36.2555C8.50403 36.2555 6.06027 34.5205 6.06027 31.3049V30.2064L7.11364 31.2599C7.34336 31.4897 7.64437 31.6045 7.94546 31.6045C8.24647 31.6045 8.54763 31.4896 8.77727 31.2599C9.23671 30.8005 9.23671 30.0556 8.77727 29.5962L5.71581 26.5346C5.25434 26.073 4.50777 26.0784 4.05171 26.5346L0.990252 29.5962C0.530817 30.0555 0.530817 30.8004 0.990252 31.2599C1.44961 31.7192 2.19452 31.7192 2.65396 31.2599L3.70733 30.2064V31.3049C3.70733 35.5822 6.95922 38.6084 10.8032 38.6084C11.4529 38.6084 11.9796 38.0817 11.9796 37.432C11.9796 36.7823 11.453 36.2555 10.8032 36.2555Z" fill="#871DFB"/>
<path d="M12.4482 0.501953C19.0343 0.501983 24.3936 5.86139 24.3936 12.4482C24.3935 19.035 19.0343 24.3935 12.4482 24.3936C5.86136 24.3936 0.501983 19.035 0.501953 12.4482C0.501953 5.86139 5.86139 0.501953 12.4482 0.501953Z" fill="#871DFB" stroke="#871DFB" stroke-width="1.00389"/>
<path d="M12.9491 0.512695C19.3033 0.776739 24.3925 6.02953 24.3925 12.4482C24.3924 18.8669 19.3033 24.1178 12.9491 24.3818V0.512695Z" fill="#871DFB" stroke="#871DFB" stroke-width="1.00389"/>
<path d="M22.5428 12.4479C22.5428 18.0139 18.0151 22.5416 12.4483 22.5424H12.4475C6.8814 22.5424 2.35294 18.0139 2.35294 12.4479C2.35294 6.88101 6.8814 2.35254 12.4475 2.35254H12.4483C18.0151 2.35332 22.5428 6.88101 22.5428 12.4479Z" fill="#F7F7F7"/>
<path d="M17.1559 14.716C17.1559 16.5214 15.7465 18.1614 13.6243 18.1614V19.1864C13.6243 19.8358 13.0972 20.3628 12.4478 20.3628C11.7976 20.3628 11.2714 19.8358 11.2714 19.1864V18.1614C10.3875 18.1614 9.6291 18.0069 8.80089 17.432C8.26679 17.061 8.13425 16.3285 8.50443 15.7944C8.87461 15.2611 9.60792 15.1277 10.142 15.4987C10.4251 15.6956 10.7491 15.8054 11.0541 15.8085H13.7113C14.3168 15.8085 14.803 15.3191 14.803 14.716C14.803 14.1137 14.3129 13.6235 13.7105 13.6235H11.1843C9.2848 13.6235 7.73897 12.0776 7.73897 10.1781C7.73897 8.37111 9.1499 6.73274 11.2714 6.73274V5.70768C11.2714 5.05829 11.7976 4.53125 12.4478 4.53125C13.0972 4.53125 13.6243 5.05829 13.6243 5.70768V6.73274C14.6438 6.73274 15.7222 7.1688 16.5089 8.00877C16.9535 8.48327 16.9292 9.22755 16.4555 9.67224C15.981 10.1162 15.2367 10.0918 14.7921 9.61813C14.4791 9.28402 14.0525 9.08952 13.6203 9.0856H11.1836C10.5789 9.0856 10.0918 9.57499 10.0918 10.1781C10.0918 10.7804 10.582 11.2706 11.1843 11.2706H13.7105C15.6108 11.2706 17.1559 12.8164 17.1559 14.716Z" fill="#871DFB"/>
<path d="M39.999 27.5517C39.999 34.4158 34.4149 39.9991 27.5516 39.9991C20.6875 39.9991 15.1034 34.4158 15.1034 27.5517C15.1034 20.6876 20.6875 15.1035 27.5516 15.1035C34.4149 15.1035 39.999 20.6876 39.999 27.5517Z" fill="#871DFB"/>
<path d="M39.998 27.5517C39.998 34.4158 34.4138 39.9991 27.5506 39.9991V15.1035C34.4138 15.1035 39.998 20.6876 39.998 27.5517Z" fill="#871DFB"/>
<path d="M37.6462 27.5514C37.6462 33.1175 33.1185 37.6451 27.5517 37.6459H27.5509C21.9848 37.6459 17.4563 33.1175 17.4563 27.5514C17.4563 21.9845 21.9848 17.4561 27.5509 17.4561H27.5517C33.1185 17.4568 37.6462 21.9845 37.6462 27.5514Z" fill="white"/>
<path d="M37.6451 27.5514C37.6451 33.1175 33.1174 37.6451 27.5506 37.6459V17.4561C33.1174 17.4568 37.6451 21.9845 37.6451 27.5514Z" fill="#FBFBFB"/>
<path d="M32.2099 33.0159C32.0131 33.6355 31.3512 33.9774 30.7323 33.7813C29.614 33.4261 28.574 33.292 27.5521 33.3249C26.6156 33.3539 25.6949 33.5241 24.7428 33.7923C23.7365 34.0755 22.8871 32.9986 23.3961 32.0865C23.9695 31.0583 24.3498 29.9532 24.531 28.8129H23.7867C23.1373 28.8129 22.6103 28.2859 22.6103 27.6365C22.6103 26.9871 23.1373 26.46 23.7867 26.46H24.6188C24.5992 26.2098 24.6079 26.3024 24.5012 25.3361C24.2792 23.3143 25.6455 21.5127 27.5521 21.1041C28.9228 20.8103 30.3508 21.2757 31.2845 22.3284C31.7158 22.8147 31.6711 23.5582 31.1857 23.9895C30.6994 24.4209 29.9559 24.3762 29.5246 23.8899C28.9724 23.2672 28.145 23.2452 27.5521 23.6091C27.0878 23.8962 26.7678 24.4201 26.8399 25.0797C26.9395 25.9855 26.9544 26.0898 26.9788 26.46H28.3128C28.963 26.46 29.4893 26.9871 29.4893 27.6365C29.4893 28.2859 28.963 28.8129 28.3128 28.8129H26.9082C26.8117 29.5705 26.6447 30.3172 26.4078 31.0442C26.7882 31.0011 27.1701 30.976 27.5521 30.9697C28.8642 30.9462 30.1763 31.1359 31.4445 31.5383C32.0633 31.7351 32.406 32.3963 32.2099 33.0159Z" fill="#871DFB"/>
</svg>
</symbol>


<symbol id="layout" viewBox="0 0 48 48"> 
<svg width="38" height="39" viewBox="0 0 38 39" fill="none" xmlns="http://www.w3.org/2000/svg">
<path d="M8.91699 0.224609H29.083C33.882 0.224826 37.7754 4.213 37.7754 9.15234V26.9902C37.7754 29.1289 37.0146 31.1454 35.626 32.7168L35.3398 33.0254L32.1699 36.2783C30.6001 37.8893 28.5153 38.7754 26.2979 38.7754H8.91699C4.11797 38.7752 0.224609 34.787 0.224609 29.8477V9.15234C0.224609 4.36663 3.87931 0.474623 8.4707 0.236328L8.91699 0.224609ZM8.91699 2.82227C5.49947 2.82248 2.74414 5.65942 2.74414 9.15234V29.8477C2.74414 33.3407 5.49962 36.1775 8.91699 36.1777H25.0391V31.5605C25.0391 28.3193 27.6069 25.6916 30.751 25.6914H35.2559V9.15234C35.2559 5.65926 32.5004 2.82248 29.083 2.82227H8.91699ZM30.751 28.2891C28.9844 28.2892 27.5576 29.7619 27.5576 31.5605V36.0459L27.8438 35.9648C28.6802 35.7287 29.4546 35.301 30.1162 34.7041L30.3936 34.4375L33.5625 31.1846C34.2806 30.4476 34.7875 29.5508 35.0498 28.5723L35.125 28.2891H30.751ZM10.2422 27.1895H19C19.6901 27.1895 20.2598 27.7656 20.2598 28.4883C20.2598 29.211 19.6901 29.7871 19 29.7871H10.2422C9.5521 29.7871 8.98242 29.211 8.98242 28.4883C8.98242 27.7656 9.5521 27.1895 10.2422 27.1895ZM10.2422 18.2012H27.7578C28.4479 18.2012 29.0176 18.7773 29.0176 19.5C29.0176 20.2227 28.4479 20.7988 27.7578 20.7988H10.2422C9.5521 20.7988 8.98242 20.2227 8.98242 19.5C8.98242 18.7773 9.5521 18.2012 10.2422 18.2012ZM10.2422 9.21289H27.7578C28.4479 9.21289 29.0176 9.78904 29.0176 10.5117C29.0176 11.2344 28.4479 11.8105 27.7578 11.8105H10.2422C9.5521 11.8105 8.98242 11.2344 8.98242 10.5117C8.98242 9.78904 9.5521 9.21289 10.2422 9.21289Z" fill="#871DFB" stroke="white" stroke-width="0.45"/>
</svg>
</symbol>


<symbol id="bar-chart" viewBox="0 0 48 48"> 
<svg width="48" height="48" viewBox="0 0 31 39" fill="none" xmlns="http://www.w3.org/2000/svg">
<path d="M29.9636 4.27553H26.1618V0.761719C26.1618 0.341022 25.8207 0 25.4 0H0.761719C0.341098 0 0 0.341022 0 0.761719V33.9631C0 34.3838 0.341098 34.7248 0.761719 34.7248H5.34117V38.2383C5.34117 38.659 5.68227 39 6.10289 39H29.9635C30.3841 39 30.7252 38.659 30.7252 38.2383V5.03725C30.7253 4.61655 30.3842 4.27553 29.9636 4.27553ZM1.52344 1.52344H24.6383V33.201L1.52344 33.2013V1.52344ZM29.2019 37.4766H6.86469V34.7248H25.4C25.8152 34.7248 26.1621 34.3778 26.1621 33.9628V5.79896H29.2019V37.4766Z" fill="#871DFB"/>
<path d="M15.0383 7.41602H20.5197C20.9403 7.41602 21.2814 7.07499 21.2814 6.6543C21.2814 6.2336 20.9403 5.89258 20.5197 5.89258H15.0383C14.6177 5.89258 14.2766 6.2336 14.2766 6.6543C14.2766 7.07499 14.6177 7.41602 15.0383 7.41602Z" fill="#871DFB"/>
<path d="M15.0383 12.5283H20.5197C20.9403 12.5283 21.2814 12.1873 21.2814 11.7666C21.2814 11.3459 20.9403 11.0049 20.5197 11.0049H15.0383C14.6177 11.0049 14.2766 11.3459 14.2766 11.7666C14.2766 12.1873 14.6177 12.5283 15.0383 12.5283Z" fill="#871DFB"/>
<path d="M15.0383 17.7158H20.5197C20.9403 17.7158 21.2814 17.3748 21.2814 16.9541C21.2814 16.5334 20.9403 16.1924 20.5197 16.1924H15.0383C14.6177 16.1924 14.2766 16.5334 14.2766 16.9541C14.2766 17.3748 14.6177 17.7158 15.0383 17.7158Z" fill="#871DFB"/>
<path d="M5.83838 22.8281H20.5195C20.9401 22.8281 21.2812 22.4871 21.2812 22.0664C21.2812 21.6457 20.9401 21.3047 20.5195 21.3047H5.83838C5.41776 21.3047 5.07666 21.6457 5.07666 22.0664C5.07666 22.4871 5.41776 22.8281 5.83838 22.8281Z" fill="#871DFB"/>
<path d="M17.0496 27.9375C17.4702 27.9375 17.8113 27.5965 17.8113 27.1758C17.8113 26.7551 17.4702 26.4141 17.0496 26.4141H5.83838C5.41776 26.4141 5.07666 26.7551 5.07666 27.1758C5.07666 27.5965 5.41776 27.9375 5.83838 27.9375H17.0496Z" fill="#871DFB"/>
<path d="M21.2215 26.9003C21.0618 26.5173 20.6107 26.3293 20.2267 26.4882C19.8438 26.6468 19.6557 27.1002 19.8147 27.483C19.9737 27.8661 20.4261 28.0542 20.8095 27.8951C21.1938 27.7356 21.379 27.2847 21.2215 26.9003Z" fill="#871DFB"/>
<path d="M5.92011 17.2652C5.92011 17.8835 6.65509 18.2479 7.14732 17.8681L8.93279 16.4897L10.719 17.8682C11.2105 18.2476 11.9461 17.8846 11.9461 17.2652V11.7444C12.4729 11.0849 12.7888 10.2501 12.7888 9.34238C12.7888 7.21612 11.059 5.48633 8.93271 5.48633C6.80645 5.48633 5.07666 7.21612 5.07666 9.34238C5.07666 10.2504 5.39285 11.0855 5.91996 11.7451V17.2652H5.92011ZM9.39812 14.9243C9.1271 14.7151 8.73832 14.7152 8.46722 14.9244L7.44355 15.7148V12.899C7.90203 13.0917 8.40514 13.1984 8.93286 13.1984C9.46073 13.1984 9.96415 13.0916 10.4228 12.8988V15.7151L9.39812 14.9243ZM8.93286 7.00977C10.2191 7.00977 11.2655 8.05614 11.2655 9.34238C11.2655 10.5884 10.2835 11.6094 9.05276 11.672C7.74306 11.7374 6.60025 10.6547 6.60025 9.34238C6.60025 8.05614 7.64662 7.00977 8.93286 7.00977Z" fill="#871DFB"/>
</svg>
</symbol>


<symbol id="id-badge" viewBox="0 0 48 48"> 
<svg width="48" height="48" viewBox="0 0 38 38" fill="none" xmlns="http://www.w3.org/2000/svg">
<g clip-path="url(#clip0_16428_151191)">
<path d="M12.9042 3.21777C13.3772 3.21797 13.7607 3.60124 13.7607 4.07422C13.7607 4.54717 13.3773 4.93047 12.9042 4.93066H6.5097C6.0365 4.93066 5.65326 4.54729 5.65326 4.07422C5.65326 3.60115 6.0365 3.21777 6.5097 3.21777H12.9042Z" fill="#871DFB" stroke="#871DFB" stroke-width="0.6"/>
<path d="M12.9042 5.78613C13.3772 5.78633 13.7607 6.1696 13.7607 6.64258C13.7607 7.11553 13.3773 7.49883 12.9042 7.49902H6.5097C6.0365 7.49902 5.65326 7.11565 5.65326 6.64258C5.65326 6.1695 6.0365 5.78613 6.5097 5.78613H12.9042Z" fill="#871DFB" stroke="#871DFB" stroke-width="0.6"/>
<path d="M19.8276 11.9258C20.8682 11.0838 22.4023 11.1494 23.3657 12.1191L28.2778 17.0654L28.4594 17.2676C29.2469 18.24 29.2419 19.6376 28.4477 20.6045L28.2651 20.8057C27.4129 21.6516 26.129 21.7945 25.1274 21.2432C24.7571 21.7087 24.3667 22.172 23.9585 22.6318L35.5395 33.3633L35.7036 33.5312C36.4175 34.3458 36.4357 35.5603 35.7524 36.3965L35.5952 36.5703L34.5034 37.6543C33.6624 38.4895 32.3298 38.51 31.4643 37.7412L31.2973 37.5771L20.645 25.9219C20.181 26.3282 19.7139 26.7168 19.2446 27.085C19.7523 28.0221 19.6547 29.2018 18.9487 30.043L18.7856 30.2207C17.8134 31.1863 16.2809 31.241 15.2456 30.3906L15.0454 30.208L10.1333 25.2617C9.10329 24.2247 9.10932 22.5521 10.146 21.5225L10.3051 21.376C11.0565 20.7409 12.0633 20.6023 12.9194 20.915C14.6696 18.6939 16.8481 16.5469 19.0014 14.874C18.668 13.9389 18.8756 12.8522 19.6264 12.1064L19.8276 11.9258ZM22.352 24.332C22.2043 24.4787 22.0541 24.6206 21.9057 24.7627L32.562 36.4209L32.6401 36.4902C32.8348 36.6309 33.1124 36.6212 33.2963 36.4385L34.3881 35.3545L34.4555 35.2725C34.5706 35.0977 34.5655 34.8691 34.4448 34.6992L34.3754 34.6201L22.7905 23.8848L22.352 24.332ZM12.6704 22.7422C12.3304 22.3999 11.7909 22.377 11.4243 22.6738L11.353 22.7383C10.9881 23.101 10.9865 23.6896 11.3491 24.0547L16.2612 29.001L16.3315 29.0654C16.6964 29.3651 17.2356 29.3445 17.5776 29.0049L17.642 28.9346C17.9208 28.5947 17.9223 28.1014 17.646 27.7598L17.5825 27.6885L12.6704 22.7422ZM20.018 16.2549C17.9085 17.8987 15.8727 19.9425 14.2915 21.9434L18.1147 25.793C20.1788 24.1847 22.2226 22.1539 23.8422 20.1045L20.018 16.2549ZM22.1499 13.3271C21.8115 12.9866 21.2716 12.962 20.9047 13.2588L20.8335 13.3223C20.4695 13.6837 20.4674 14.2746 20.8286 14.6387L25.7417 19.585L25.812 19.6494C26.1761 19.948 26.7168 19.9286 27.0581 19.5898L27.1225 19.5186C27.4021 19.178 27.4039 18.6861 27.1264 18.3438L27.0629 18.2725L22.1499 13.3271Z" fill="#871DFB" stroke="#871DFB" stroke-width="0.6"/>
<path d="M23.2222 -0.299805C23.952 -0.299805 24.6398 -0.0150265 25.1558 0.500977L30.9224 6.2666L31.104 6.46777C31.5043 6.95512 31.7232 7.56146 31.7232 8.2002V27.625C31.723 28.0979 31.3388 28.4814 30.8658 28.4814C30.3929 28.4813 30.0095 28.0978 30.0093 27.625V8.2793H26.479C24.6398 8.27922 23.1441 6.78271 23.1441 4.94336V1.41309H5.08257C4.18855 1.41318 3.46059 2.1412 3.46049 3.03516V34.9648C3.46071 35.8588 4.18863 36.5868 5.08257 36.5869H28.3873C28.4768 36.5869 28.5667 36.5788 28.6539 36.5645L28.7417 36.5547C29.1755 36.527 29.567 36.8334 29.6392 37.2705L29.6499 37.3574C29.6752 37.7618 29.411 38.1302 29.0201 38.2363L28.9341 38.2549C28.7544 38.2846 28.5704 38.2998 28.3873 38.2998H5.08257C3.24348 38.2997 1.74786 36.804 1.7476 34.9648V3.03516C1.7477 1.19597 3.24338 -0.299713 5.08257 -0.299805H23.2222ZM24.857 4.94336C24.857 5.83741 25.585 6.56536 26.479 6.56543H28.7974L24.857 2.62402V4.94336Z" fill="#871DFB" stroke="#871DFB" stroke-width="0.6"/>
</g>
<defs>
<clipPath id="clip0_16428_151191">
<rect width="38" height="38" fill="white"/>
</clipPath>
</defs>
</svg>
</symbol>


<symbol id="building" viewBox="0 0 48 48"> 
<svg width="40" height="41" viewBox="0 0 40 41" fill="none" xmlns="http://www.w3.org/2000/svg">
<g clip-path="url(#clip0_16428_151009)">
<path d="M13.8683 7.71484H6.86486C6.21671 7.71484 5.69141 8.24015 5.69141 8.8883C5.69141 9.53645 6.21671 10.0618 6.86486 10.0618H13.8683C14.5162 10.0618 15.0418 9.53645 15.0418 8.8883C15.0418 8.24015 14.5162 7.71484 13.8683 7.71484Z" fill="#871DFB"/>
<path d="M13.8683 12.4102H6.86486C6.21671 12.4102 5.69141 12.9355 5.69141 13.5836C5.69141 14.2318 6.21671 14.7571 6.86486 14.7571H13.8683C14.5162 14.7571 15.0418 14.2318 15.0418 13.5836C15.0418 12.9355 14.5162 12.4102 13.8683 12.4102Z" fill="#871DFB"/>
<path d="M13.8682 17.1055H6.86474C6.21659 17.1055 5.69128 17.6308 5.69128 18.2789C5.69128 18.9271 6.21659 19.4524 6.86474 19.4524H13.8682C14.5161 19.4524 15.0417 18.9271 15.0417 18.2789C15.0417 17.6308 14.5161 17.1055 13.8682 17.1055Z" fill="#871DFB"/>
<path d="M13.8683 21.7988H6.86486C6.21671 21.7988 5.69141 22.3241 5.69141 22.9723C5.69141 23.6204 6.21671 24.1457 6.86486 24.1457H13.8683C14.5162 24.1457 15.0418 23.6204 15.0418 22.9723C15.0418 22.3241 14.5162 21.7988 13.8683 21.7988Z" fill="#871DFB"/>
<path d="M13.8683 26.5723H6.86486C6.21671 26.5723 5.69141 27.0979 5.69141 27.7457C5.69141 28.3939 6.21671 28.9192 6.86486 28.9192H13.8683C14.5162 28.9192 15.0418 28.3939 15.0418 27.7457C15.0418 27.0979 14.5162 26.5723 13.8683 26.5723Z" fill="#871DFB"/>
<path d="M17.8102 10.0618H24.8136C25.4618 10.0618 25.9871 9.53645 25.9871 8.8883C25.9871 8.24015 25.4618 7.71484 24.8136 7.71484H17.8102C17.1623 7.71484 16.6367 8.24015 16.6367 8.8883C16.6367 9.53645 17.1623 10.0618 17.8102 10.0618Z" fill="#871DFB"/>
<path d="M17.8102 14.7571H24.8136C25.4618 14.7571 25.9871 14.2318 25.9871 13.5836C25.9871 12.9355 25.4618 12.4102 24.8136 12.4102H17.8102C17.1623 12.4102 16.6367 12.9355 16.6367 13.5836C16.6367 14.2318 17.1623 14.7571 17.8102 14.7571Z" fill="#871DFB"/>
<path d="M22.3567 18.2789C22.3567 17.6308 21.8314 17.1055 21.1833 17.1055H17.8102C17.1623 17.1055 16.6367 17.6308 16.6367 18.2789C16.6367 18.9271 17.1623 19.4524 17.8102 19.4524H21.1833C21.8314 19.4524 22.3567 18.9271 22.3567 18.2789Z" fill="#871DFB"/>
<path d="M32.2213 27.0668C31.7159 26.6613 30.9776 26.7422 30.5717 27.2477L27.5495 31.0156L25.6784 29.66C25.1537 29.2795 24.4197 29.3969 24.0395 29.9216C23.6594 30.4466 23.7767 31.1803 24.3014 31.5605L27.0771 33.5715C27.2849 33.7219 27.5257 33.7949 27.7649 33.7949C28.1093 33.7949 28.4498 33.6436 28.6808 33.3555L32.4025 28.7163C32.808 28.2109 32.7271 27.4723 32.2213 27.0668Z" fill="#871DFB"/>
<path d="M35.5781 23.4646C34.0496 21.9091 32.0855 20.9288 29.9574 20.64V4.72592C29.9574 2.12017 27.8372 0 25.2315 0H4.72623C2.12017 0 0 2.12017 0 4.72592V31.9089C0 34.515 2.12017 36.6351 4.72592 36.6351H21.2182C23.074 38.8152 25.7424 40.0541 28.6293 40.0541C34.0031 40.0541 38.3748 35.6793 38.3748 30.3018C38.3748 27.7275 37.3817 25.2993 35.5781 23.4646ZM2.34692 31.9089V4.72592C2.34692 3.41434 3.41434 2.34692 4.72623 2.34692H25.2315C26.5434 2.34692 27.6105 3.41434 27.6105 4.72592V20.6028C22.7138 21.114 18.8838 25.2685 18.8838 30.3018C18.8838 31.6968 19.1747 33.0457 19.7327 34.2879H4.72623C3.41434 34.2879 2.34692 33.2208 2.34692 31.9089ZM28.6293 37.7071C26.2858 37.7071 24.1314 36.6312 22.718 34.7555C21.745 33.4637 21.2304 31.9239 21.2304 30.3018C21.2304 26.2185 24.5497 22.8965 28.6293 22.8965C28.6678 22.8965 28.7066 22.8971 28.7452 22.8977L28.7632 22.898C30.7107 22.9326 32.5366 23.7179 33.9044 25.1096C35.2737 26.5027 36.0279 28.347 36.0279 30.3018C36.0279 34.3851 32.7089 37.7071 28.6293 37.7071Z" fill="#871DFB"/>
</g>
<defs>
<clipPath id="clip0_16428_151009">
<rect width="40" height="40.0541" fill="white"/>
</clipPath>
</defs>
</svg>

</symbol>


<symbol id="clipboard-check" viewBox="0 0 48 48"> 
<svg width="40" height="41" viewBox="0 0 40 41" fill="none" xmlns="http://www.w3.org/2000/svg">
<g clip-path="url(#clip0_16428_151009)">
<path d="M13.8683 7.71484H6.86486C6.21671 7.71484 5.69141 8.24015 5.69141 8.8883C5.69141 9.53645 6.21671 10.0618 6.86486 10.0618H13.8683C14.5162 10.0618 15.0418 9.53645 15.0418 8.8883C15.0418 8.24015 14.5162 7.71484 13.8683 7.71484Z" fill="#871DFB"/>
<path d="M13.8683 12.4102H6.86486C6.21671 12.4102 5.69141 12.9355 5.69141 13.5836C5.69141 14.2318 6.21671 14.7571 6.86486 14.7571H13.8683C14.5162 14.7571 15.0418 14.2318 15.0418 13.5836C15.0418 12.9355 14.5162 12.4102 13.8683 12.4102Z" fill="#871DFB"/>
<path d="M13.8682 17.1055H6.86474C6.21659 17.1055 5.69128 17.6308 5.69128 18.2789C5.69128 18.9271 6.21659 19.4524 6.86474 19.4524H13.8682C14.5161 19.4524 15.0417 18.9271 15.0417 18.2789C15.0417 17.6308 14.5161 17.1055 13.8682 17.1055Z" fill="#871DFB"/>
<path d="M13.8683 21.7988H6.86486C6.21671 21.7988 5.69141 22.3241 5.69141 22.9723C5.69141 23.6204 6.21671 24.1457 6.86486 24.1457H13.8683C14.5162 24.1457 15.0418 23.6204 15.0418 22.9723C15.0418 22.3241 14.5162 21.7988 13.8683 21.7988Z" fill="#871DFB"/>
<path d="M13.8683 26.5723H6.86486C6.21671 26.5723 5.69141 27.0979 5.69141 27.7457C5.69141 28.3939 6.21671 28.9192 6.86486 28.9192H13.8683C14.5162 28.9192 15.0418 28.3939 15.0418 27.7457C15.0418 27.0979 14.5162 26.5723 13.8683 26.5723Z" fill="#871DFB"/>
<path d="M17.8102 10.0618H24.8136C25.4618 10.0618 25.9871 9.53645 25.9871 8.8883C25.9871 8.24015 25.4618 7.71484 24.8136 7.71484H17.8102C17.1623 7.71484 16.6367 8.24015 16.6367 8.8883C16.6367 9.53645 17.1623 10.0618 17.8102 10.0618Z" fill="#871DFB"/>
<path d="M17.8102 14.7571H24.8136C25.4618 14.7571 25.9871 14.2318 25.9871 13.5836C25.9871 12.9355 25.4618 12.4102 24.8136 12.4102H17.8102C17.1623 12.4102 16.6367 12.9355 16.6367 13.5836C16.6367 14.2318 17.1623 14.7571 17.8102 14.7571Z" fill="#871DFB"/>
<path d="M22.3567 18.2789C22.3567 17.6308 21.8314 17.1055 21.1833 17.1055H17.8102C17.1623 17.1055 16.6367 17.6308 16.6367 18.2789C16.6367 18.9271 17.1623 19.4524 17.8102 19.4524H21.1833C21.8314 19.4524 22.3567 18.9271 22.3567 18.2789Z" fill="#871DFB"/>
<path d="M32.2213 27.0668C31.7159 26.6613 30.9776 26.7422 30.5717 27.2477L27.5495 31.0156L25.6784 29.66C25.1537 29.2795 24.4197 29.3969 24.0395 29.9216C23.6594 30.4466 23.7767 31.1803 24.3014 31.5605L27.0771 33.5715C27.2849 33.7219 27.5257 33.7949 27.7649 33.7949C28.1093 33.7949 28.4498 33.6436 28.6808 33.3555L32.4025 28.7163C32.808 28.2109 32.7271 27.4723 32.2213 27.0668Z" fill="#871DFB"/>
<path d="M35.5781 23.4646C34.0496 21.9091 32.0855 20.9288 29.9574 20.64V4.72592C29.9574 2.12017 27.8372 0 25.2315 0H4.72623C2.12017 0 0 2.12017 0 4.72592V31.9089C0 34.515 2.12017 36.6351 4.72592 36.6351H21.2182C23.074 38.8152 25.7424 40.0541 28.6293 40.0541C34.0031 40.0541 38.3748 35.6793 38.3748 30.3018C38.3748 27.7275 37.3817 25.2993 35.5781 23.4646ZM2.34692 31.9089V4.72592C2.34692 3.41434 3.41434 2.34692 4.72623 2.34692H25.2315C26.5434 2.34692 27.6105 3.41434 27.6105 4.72592V20.6028C22.7138 21.114 18.8838 25.2685 18.8838 30.3018C18.8838 31.6968 19.1747 33.0457 19.7327 34.2879H4.72623C3.41434 34.2879 2.34692 33.2208 2.34692 31.9089ZM28.6293 37.7071C26.2858 37.7071 24.1314 36.6312 22.718 34.7555C21.745 33.4637 21.2304 31.9239 21.2304 30.3018C21.2304 26.2185 24.5497 22.8965 28.6293 22.8965C28.6678 22.8965 28.7066 22.8971 28.7452 22.8977L28.7632 22.898C30.7107 22.9326 32.5366 23.7179 33.9044 25.1096C35.2737 26.5027 36.0279 28.347 36.0279 30.3018C36.0279 34.3851 32.7089 37.7071 28.6293 37.7071Z" fill="#871DFB"/>
</g>
<defs>
<clipPath id="clip0_16428_151009">
<rect width="40" height="40.0541" fill="white"/>
</clipPath>
</defs>
</svg>

</symbol>


<symbol id="book-open" viewBox="0 0 48 48"> 
<svg width="58" height="58" viewBox="0 0 48 48" fill="none" xmlns="http://www.w3.org/2000/svg">
<path d="M19.7666 0H11.2011C10.8372 0 10.5422 0.298503 10.5422 0.666667V5.33333H0.658888C0.29502 5.33333 0 5.63184 0 6V39.3333C0 39.7015 0.29502 40 0.658888 40H19.7666C20.1305 40 20.4255 39.7015 20.4255 39.3333V0.666667C20.4255 0.298503 20.1305 0 19.7666 0ZM19.1078 34.6667H11.86V33.3333H19.1078V34.6667ZM1.31778 10H10.5422V30H1.31778V10ZM19.1078 7.33333H11.86V5.33333H19.1078V7.33333ZM1.31778 31.3333H10.5422V33.3333H1.31778V31.3333ZM11.86 32V8.66667H19.1078V32H11.86ZM19.1078 1.33333V4H11.86V1.33333H19.1078ZM10.5422 6.66667V8.66667H1.31778V6.66667H10.5422ZM1.31778 34.6667H10.5422V38.6667H1.31778V34.6667ZM11.86 38.6667V36H19.1078V38.6667H11.86Z" fill="#871DFB"/>
<path d="M39.9777 36.4778L31.8779 5.60928C31.8328 5.43628 31.7201 5.2885 31.5645 5.19839C31.4093 5.10861 31.2244 5.08404 31.0507 5.13024L20.926 7.81446C20.5674 7.90948 20.3532 8.2745 20.4468 8.63165L28.5465 39.5002C28.5917 39.6732 28.7047 39.8209 28.8603 39.9107C29.0155 40.0002 29.2004 40.0244 29.3738 39.9779L39.4985 37.2937C39.8564 37.1987 40.0703 36.8343 39.9777 36.4778ZM22.998 13.0377L31.8186 10.6999L32.136 11.9076L23.3161 14.2491L22.998 13.0377ZM32.4768 13.2098L36.3915 28.1391L27.5743 30.4779L23.6595 15.5476L32.4768 13.2098ZM36.7353 29.4383L37.4264 32.0717L28.6059 34.4096L27.9174 31.7771L36.7353 29.4383ZM30.7429 6.60046L31.4778 9.40199L22.6573 11.7392L21.923 8.939L30.7429 6.60046ZM29.6816 38.509L28.9466 35.7075L37.7672 33.3689L38.5015 36.1691L29.6816 38.509Z" fill="#871DFB"/>
<path d="M8.68137 11.9141H3.23456C2.85856 11.9141 2.55371 12.2189 2.55371 12.5949V18.0417C2.55371 18.4177 2.85856 18.7226 3.23456 18.7226H8.68137C9.05737 18.7226 9.36222 18.4177 9.36222 18.0417V12.5949C9.36222 12.2189 9.05737 11.9141 8.68137 11.9141ZM8.00052 17.3609H3.91541V13.2758H8.00052V17.3609Z" fill="#871DFB"/>
</svg>
</symbol>

<symbol id="user" viewBox="0 0 48 48"> 
<g clip-path="url(#clip0_16428_151009)">
<path d="M13.8683 7.71484H6.86486C6.21671 7.71484 5.69141 8.24015 5.69141 8.8883C5.69141 9.53645 6.21671 10.0618 6.86486 10.0618H13.8683C14.5162 10.0618 15.0418 9.53645 15.0418 8.8883C15.0418 8.24015 14.5162 7.71484 13.8683 7.71484Z" fill="#871DFB"/>
<path d="M13.8683 12.4102H6.86486C6.21671 12.4102 5.69141 12.9355 5.69141 13.5836C5.69141 14.2318 6.21671 14.7571 6.86486 14.7571H13.8683C14.5162 14.7571 15.0418 14.2318 15.0418 13.5836C15.0418 12.9355 14.5162 12.4102 13.8683 12.4102Z" fill="#871DFB"/>
<path d="M13.8682 17.1055H6.86474C6.21659 17.1055 5.69128 17.6308 5.69128 18.2789C5.69128 18.9271 6.21659 19.4524 6.86474 19.4524H13.8682C14.5161 19.4524 15.0417 18.9271 15.0417 18.2789C15.0417 17.6308 14.5161 17.1055 13.8682 17.1055Z" fill="#871DFB"/>
<path d="M13.8683 21.7988H6.86486C6.21671 21.7988 5.69141 22.3241 5.69141 22.9723C5.69141 23.6204 6.21671 24.1457 6.86486 24.1457H13.8683C14.5162 24.1457 15.0418 23.6204 15.0418 22.9723C15.0418 22.3241 14.5162 21.7988 13.8683 21.7988Z" fill="#871DFB"/>
<path d="M13.8683 26.5723H6.86486C6.21671 26.5723 5.69141 27.0979 5.69141 27.7457C5.69141 28.3939 6.21671 28.9192 6.86486 28.9192H13.8683C14.5162 28.9192 15.0418 28.3939 15.0418 27.7457C15.0418 27.0979 14.5162 26.5723 13.8683 26.5723Z" fill="#871DFB"/>
<path d="M17.8102 10.0618H24.8136C25.4618 10.0618 25.9871 9.53645 25.9871 8.8883C25.9871 8.24015 25.4618 7.71484 24.8136 7.71484H17.8102C17.1623 7.71484 16.6367 8.24015 16.6367 8.8883C16.6367 9.53645 17.1623 10.0618 17.8102 10.0618Z" fill="#871DFB"/>
<path d="M17.8102 14.7571H24.8136C25.4618 14.7571 25.9871 14.2318 25.9871 13.5836C25.9871 12.9355 25.4618 12.4102 24.8136 12.4102H17.8102C17.1623 12.4102 16.6367 12.9355 16.6367 13.5836C16.6367 14.2318 17.1623 14.7571 17.8102 14.7571Z" fill="#871DFB"/>
<path d="M22.3567 18.2789C22.3567 17.6308 21.8314 17.1055 21.1833 17.1055H17.8102C17.1623 17.1055 16.6367 17.6308 16.6367 18.2789C16.6367 18.9271 17.1623 19.4524 17.8102 19.4524H21.1833C21.8314 19.4524 22.3567 18.9271 22.3567 18.2789Z" fill="#871DFB"/>
<path d="M32.2213 27.0668C31.7159 26.6613 30.9776 26.7422 30.5717 27.2477L27.5495 31.0156L25.6784 29.66C25.1537 29.2795 24.4197 29.3969 24.0395 29.9216C23.6594 30.4466 23.7767 31.1803 24.3014 31.5605L27.0771 33.5715C27.2849 33.7219 27.5257 33.7949 27.7649 33.7949C28.1093 33.7949 28.4498 33.6436 28.6808 33.3555L32.4025 28.7163C32.808 28.2109 32.7271 27.4723 32.2213 27.0668Z" fill="#871DFB"/>
<path d="M35.5781 23.4646C34.0496 21.9091 32.0855 20.9288 29.9574 20.64V4.72592C29.9574 2.12017 27.8372 0 25.2315 0H4.72623C2.12017 0 0 2.12017 0 4.72592V31.9089C0 34.515 2.12017 36.6351 4.72592 36.6351H21.2182C23.074 38.8152 25.7424 40.0541 28.6293 40.0541C34.0031 40.0541 38.3748 35.6793 38.3748 30.3018C38.3748 27.7275 37.3817 25.2993 35.5781 23.4646ZM2.34692 31.9089V4.72592C2.34692 3.41434 3.41434 2.34692 4.72623 2.34692H25.2315C26.5434 2.34692 27.6105 3.41434 27.6105 4.72592V20.6028C22.7138 21.114 18.8838 25.2685 18.8838 30.3018C18.8838 31.6968 19.1747 33.0457 19.7327 34.2879H4.72623C3.41434 34.2879 2.34692 33.2208 2.34692 31.9089ZM28.6293 37.7071C26.2858 37.7071 24.1314 36.6312 22.718 34.7555C21.745 33.4637 21.2304 31.9239 21.2304 30.3018C21.2304 26.2185 24.5497 22.8965 28.6293 22.8965C28.6678 22.8965 28.7066 22.8971 28.7452 22.8977L28.7632 22.898C30.7107 22.9326 32.5366 23.7179 33.9044 25.1096C35.2737 26.5027 36.0279 28.347 36.0279 30.3018C36.0279 34.3851 32.7089 37.7071 28.6293 37.7071Z" fill="#871DFB"/>
</g>
<defs>
<clipPath id="clip0_16428_151009">
<rect width="40" height="40.0541" fill="white"/>
</clipPath>
</defs>
</symbol>

<symbol id="users" viewBox="0 0 48 48"> 
<svg width="40" height="41" viewBox="0 0 40 41" fill="none" xmlns="http://www.w3.org/2000/svg">
<g clip-path="url(#clip0_16428_151009)">
<path d="M13.8683 7.71484H6.86486C6.21671 7.71484 5.69141 8.24015 5.69141 8.8883C5.69141 9.53645 6.21671 10.0618 6.86486 10.0618H13.8683C14.5162 10.0618 15.0418 9.53645 15.0418 8.8883C15.0418 8.24015 14.5162 7.71484 13.8683 7.71484Z" fill="#871DFB"/>
<path d="M13.8683 12.4102H6.86486C6.21671 12.4102 5.69141 12.9355 5.69141 13.5836C5.69141 14.2318 6.21671 14.7571 6.86486 14.7571H13.8683C14.5162 14.7571 15.0418 14.2318 15.0418 13.5836C15.0418 12.9355 14.5162 12.4102 13.8683 12.4102Z" fill="#871DFB"/>
<path d="M13.8682 17.1055H6.86474C6.21659 17.1055 5.69128 17.6308 5.69128 18.2789C5.69128 18.9271 6.21659 19.4524 6.86474 19.4524H13.8682C14.5161 19.4524 15.0417 18.9271 15.0417 18.2789C15.0417 17.6308 14.5161 17.1055 13.8682 17.1055Z" fill="#871DFB"/>
<path d="M13.8683 21.7988H6.86486C6.21671 21.7988 5.69141 22.3241 5.69141 22.9723C5.69141 23.6204 6.21671 24.1457 6.86486 24.1457H13.8683C14.5162 24.1457 15.0418 23.6204 15.0418 22.9723C15.0418 22.3241 14.5162 21.7988 13.8683 21.7988Z" fill="#871DFB"/>
<path d="M13.8683 26.5723H6.86486C6.21671 26.5723 5.69141 27.0979 5.69141 27.7457C5.69141 28.3939 6.21671 28.9192 6.86486 28.9192H13.8683C14.5162 28.9192 15.0418 28.3939 15.0418 27.7457C15.0418 27.0979 14.5162 26.5723 13.8683 26.5723Z" fill="#871DFB"/>
<path d="M17.8102 10.0618H24.8136C25.4618 10.0618 25.9871 9.53645 25.9871 8.8883C25.9871 8.24015 25.4618 7.71484 24.8136 7.71484H17.8102C17.1623 7.71484 16.6367 8.24015 16.6367 8.8883C16.6367 9.53645 17.1623 10.0618 17.8102 10.0618Z" fill="#871DFB"/>
<path d="M17.8102 14.7571H24.8136C25.4618 14.7571 25.9871 14.2318 25.9871 13.5836C25.9871 12.9355 25.4618 12.4102 24.8136 12.4102H17.8102C17.1623 12.4102 16.6367 12.9355 16.6367 13.5836C16.6367 14.2318 17.1623 14.7571 17.8102 14.7571Z" fill="#871DFB"/>
<path d="M22.3567 18.2789C22.3567 17.6308 21.8314 17.1055 21.1833 17.1055H17.8102C17.1623 17.1055 16.6367 17.6308 16.6367 18.2789C16.6367 18.9271 17.1623 19.4524 17.8102 19.4524H21.1833C21.8314 19.4524 22.3567 18.9271 22.3567 18.2789Z" fill="#871DFB"/>
<path d="M32.2213 27.0668C31.7159 26.6613 30.9776 26.7422 30.5717 27.2477L27.5495 31.0156L25.6784 29.66C25.1537 29.2795 24.4197 29.3969 24.0395 29.9216C23.6594 30.4466 23.7767 31.1803 24.3014 31.5605L27.0771 33.5715C27.2849 33.7219 27.5257 33.7949 27.7649 33.7949C28.1093 33.7949 28.4498 33.6436 28.6808 33.3555L32.4025 28.7163C32.808 28.2109 32.7271 27.4723 32.2213 27.0668Z" fill="#871DFB"/>
<path d="M35.5781 23.4646C34.0496 21.9091 32.0855 20.9288 29.9574 20.64V4.72592C29.9574 2.12017 27.8372 0 25.2315 0H4.72623C2.12017 0 0 2.12017 0 4.72592V31.9089C0 34.515 2.12017 36.6351 4.72592 36.6351H21.2182C23.074 38.8152 25.7424 40.0541 28.6293 40.0541C34.0031 40.0541 38.3748 35.6793 38.3748 30.3018C38.3748 27.7275 37.3817 25.2993 35.5781 23.4646ZM2.34692 31.9089V4.72592C2.34692 3.41434 3.41434 2.34692 4.72623 2.34692H25.2315C26.5434 2.34692 27.6105 3.41434 27.6105 4.72592V20.6028C22.7138 21.114 18.8838 25.2685 18.8838 30.3018C18.8838 31.6968 19.1747 33.0457 19.7327 34.2879H4.72623C3.41434 34.2879 2.34692 33.2208 2.34692 31.9089ZM28.6293 37.7071C26.2858 37.7071 24.1314 36.6312 22.718 34.7555C21.745 33.4637 21.2304 31.9239 21.2304 30.3018C21.2304 26.2185 24.5497 22.8965 28.6293 22.8965C28.6678 22.8965 28.7066 22.8971 28.7452 22.8977L28.7632 22.898C30.7107 22.9326 32.5366 23.7179 33.9044 25.1096C35.2737 26.5027 36.0279 28.347 36.0279 30.3018C36.0279 34.3851 32.7089 37.7071 28.6293 37.7071Z" fill="#871DFB"/>
</g>
<defs>
<clipPath id="clip0_16428_151009">
<rect width="40" height="40.0541" fill="white"/>
</clipPath>
</defs>
</svg>

</symbol>

<symbol id="heart" viewBox="0 0 48 48"> 
<svg width="40" height="41" viewBox="0 0 40 41" fill="none" xmlns="http://www.w3.org/2000/svg">
<g clip-path="url(#clip0_16428_151009)">
<path d="M13.8683 7.71484H6.86486C6.21671 7.71484 5.69141 8.24015 5.69141 8.8883C5.69141 9.53645 6.21671 10.0618 6.86486 10.0618H13.8683C14.5162 10.0618 15.0418 9.53645 15.0418 8.8883C15.0418 8.24015 14.5162 7.71484 13.8683 7.71484Z" fill="#871DFB"/>
<path d="M13.8683 12.4102H6.86486C6.21671 12.4102 5.69141 12.9355 5.69141 13.5836C5.69141 14.2318 6.21671 14.7571 6.86486 14.7571H13.8683C14.5162 14.7571 15.0418 14.2318 15.0418 13.5836C15.0418 12.9355 14.5162 12.4102 13.8683 12.4102Z" fill="#871DFB"/>
<path d="M13.8682 17.1055H6.86474C6.21659 17.1055 5.69128 17.6308 5.69128 18.2789C5.69128 18.9271 6.21659 19.4524 6.86474 19.4524H13.8682C14.5161 19.4524 15.0417 18.9271 15.0417 18.2789C15.0417 17.6308 14.5161 17.1055 13.8682 17.1055Z" fill="#871DFB"/>
<path d="M13.8683 21.7988H6.86486C6.21671 21.7988 5.69141 22.3241 5.69141 22.9723C5.69141 23.6204 6.21671 24.1457 6.86486 24.1457H13.8683C14.5162 24.1457 15.0418 23.6204 15.0418 22.9723C15.0418 22.3241 14.5162 21.7988 13.8683 21.7988Z" fill="#871DFB"/>
<path d="M13.8683 26.5723H6.86486C6.21671 26.5723 5.69141 27.0979 5.69141 27.7457C5.69141 28.3939 6.21671 28.9192 6.86486 28.9192H13.8683C14.5162 28.9192 15.0418 28.3939 15.0418 27.7457C15.0418 27.0979 14.5162 26.5723 13.8683 26.5723Z" fill="#871DFB"/>
<path d="M17.8102 10.0618H24.8136C25.4618 10.0618 25.9871 9.53645 25.9871 8.8883C25.9871 8.24015 25.4618 7.71484 24.8136 7.71484H17.8102C17.1623 7.71484 16.6367 8.24015 16.6367 8.8883C16.6367 9.53645 17.1623 10.0618 17.8102 10.0618Z" fill="#871DFB"/>
<path d="M17.8102 14.7571H24.8136C25.4618 14.7571 25.9871 14.2318 25.9871 13.5836C25.9871 12.9355 25.4618 12.4102 24.8136 12.4102H17.8102C17.1623 12.4102 16.6367 12.9355 16.6367 13.5836C16.6367 14.2318 17.1623 14.7571 17.8102 14.7571Z" fill="#871DFB"/>
<path d="M22.3567 18.2789C22.3567 17.6308 21.8314 17.1055 21.1833 17.1055H17.8102C17.1623 17.1055 16.6367 17.6308 16.6367 18.2789C16.6367 18.9271 17.1623 19.4524 17.8102 19.4524H21.1833C21.8314 19.4524 22.3567 18.9271 22.3567 18.2789Z" fill="#871DFB"/>
<path d="M32.2213 27.0668C31.7159 26.6613 30.9776 26.7422 30.5717 27.2477L27.5495 31.0156L25.6784 29.66C25.1537 29.2795 24.4197 29.3969 24.0395 29.9216C23.6594 30.4466 23.7767 31.1803 24.3014 31.5605L27.0771 33.5715C27.2849 33.7219 27.5257 33.7949 27.7649 33.7949C28.1093 33.7949 28.4498 33.6436 28.6808 33.3555L32.4025 28.7163C32.808 28.2109 32.7271 27.4723 32.2213 27.0668Z" fill="#871DFB"/>
<path d="M35.5781 23.4646C34.0496 21.9091 32.0855 20.9288 29.9574 20.64V4.72592C29.9574 2.12017 27.8372 0 25.2315 0H4.72623C2.12017 0 0 2.12017 0 4.72592V31.9089C0 34.515 2.12017 36.6351 4.72592 36.6351H21.2182C23.074 38.8152 25.7424 40.0541 28.6293 40.0541C34.0031 40.0541 38.3748 35.6793 38.3748 30.3018C38.3748 27.7275 37.3817 25.2993 35.5781 23.4646ZM2.34692 31.9089V4.72592C2.34692 3.41434 3.41434 2.34692 4.72623 2.34692H25.2315C26.5434 2.34692 27.6105 3.41434 27.6105 4.72592V20.6028C22.7138 21.114 18.8838 25.2685 18.8838 30.3018C18.8838 31.6968 19.1747 33.0457 19.7327 34.2879H4.72623C3.41434 34.2879 2.34692 33.2208 2.34692 31.9089ZM28.6293 37.7071C26.2858 37.7071 24.1314 36.6312 22.718 34.7555C21.745 33.4637 21.2304 31.9239 21.2304 30.3018C21.2304 26.2185 24.5497 22.8965 28.6293 22.8965C28.6678 22.8965 28.7066 22.8971 28.7452 22.8977L28.7632 22.898C30.7107 22.9326 32.5366 23.7179 33.9044 25.1096C35.2737 26.5027 36.0279 28.347 36.0279 30.3018C36.0279 34.3851 32.7089 37.7071 28.6293 37.7071Z" fill="#871DFB"/>
</g>
<defs>
<clipPath id="clip0_16428_151009">
<rect width="40" height="40.0541" fill="white"/>
</clipPath>
</defs>
</svg>

</symbol>


</svg>
