<svg id="dashboards" width="14" height="14" viewBox="0 0 14 14" fill="none" xmlns="http://www.w3.org/2000/svg">
 <symbol id="dashboard" viewBox="0 0 14 14">
 <path d="M12 1.75V3.25H9V1.75H12ZM4.5 1.75V6.25H1.5V1.75H4.5ZM12 7.75V12.25H9V7.75H12ZM4.5 10.75V12.25H1.5V10.75H4.5ZM13.5 0.25H7.5V4.75H13.5V0.25ZM6 0.25H0V7.75H6V0.25ZM13.5 6.25H7.5V13.75H13.5V6.25ZM6 9.25H0V13.75H6V9.25Z" fill="currentColor"/>
  </symbol>


<symbol id="admin" viewBox="0 0 16 17">
 <path d="M15.1485 9.0952V6.05331L13.3097 5.61552C13.2267 5.37281 13.1281 5.13498 13.0146 4.90418L14.0055 3.29393L11.8546 1.14297L10.2443 2.13392C10.0135 2.02044 9.77571 1.92177 9.533 1.83883L9.0952 0H6.05335L5.61552 1.83883C5.37281 1.92177 5.13498 2.02044 4.90421 2.13392L3.29396 1.14297L1.14297 3.29393L2.13389 4.90418C2.02041 5.13498 1.92174 5.37281 1.83879 5.61552L0 6.05328V9.09517L1.83883 9.53299C1.92177 9.77571 2.02044 10.0135 2.13392 10.2443L1.13833 11.8622L2.62975 13.2907C2.47173 13.7643 2.3901 14.2623 2.3901 14.7679V17H12.8257V14.7679C12.8257 14.2796 12.7492 13.7984 12.6016 13.3394L13.9982 11.8427L13.0146 10.2444C13.1281 10.0136 13.2268 9.77574 13.3097 9.53303L15.1485 9.0952ZM11.8158 15.9901H3.4V14.7679C3.4 14.0675 3.59956 13.3855 3.97713 12.7955C4.65302 11.7394 5.80511 11.1089 7.05897 11.1089H8.15687C9.41073 11.1089 10.5628 11.7394 11.2387 12.7955C11.6163 13.3854 11.8158 14.0675 11.8158 14.7679V15.9901ZM7.60792 10.0569C6.3202 10.0569 5.27253 9.00926 5.27253 7.72153C5.27253 6.43381 6.3202 5.38614 7.60792 5.38614C8.89565 5.38614 9.94332 6.43381 9.94332 7.72153C9.94332 9.00926 8.89565 10.0569 7.60792 10.0569ZM12.7347 11.7164L12.1475 12.3457C12.1283 12.3141 12.1093 12.2823 12.0893 12.2511C11.5101 11.3461 10.6567 10.6866 9.67418 10.3506C10.4525 9.7376 10.9532 8.78695 10.9532 7.72153C10.9532 5.87695 9.45247 4.37624 7.60789 4.37624C5.7633 4.37624 4.26259 5.87695 4.26259 7.72153C4.26259 8.78695 4.76323 9.7376 5.5416 10.3506C4.55906 10.6866 3.70563 11.3461 3.12645 12.2511C3.1109 12.2754 3.09626 12.3002 3.08117 12.3247L2.42575 11.6969L3.29894 10.278L2.63847 8.68532L1.0099 8.29751V6.85097L2.6385 6.4632L3.29898 4.87052L2.4211 3.444L3.44396 2.42114L4.87052 3.29901L6.4632 2.63853L6.851 1.0099H8.29755L8.68532 2.6385L10.278 3.29901L11.7045 2.42114L12.7274 3.444L11.8495 4.87052L12.51 6.4632L14.1386 6.85097V8.29751L12.51 8.68528L11.8495 10.278L12.7347 11.7164Z" fill="currentColor"/>
</symbol>

  <symbol id="static-data" viewBox="0 0 17 17">


<path d="M13.1387 1.33554L11.0323 1.33435C9.93379 1.33373 9.03959 2.22692 9.03897 3.32542L9.03642 7.84104L6.57903 7.83965C6.27139 6.32578 4.93043 5.18247 3.32699 5.18156C1.49617 5.18053 0.00583397 6.66918 0.00480007 8.5C0.00376618 10.3308 1.49242 11.8212 3.32324 11.8222C4.92668 11.8231 6.26893 10.6813 6.57828 9.16778L9.03567 9.16916L9.03312 13.6848C9.0325 14.7833 9.92569 15.6775 11.0242 15.6781L13.1306 15.6793C13.4043 16.4523 14.1421 17.008 15.0078 17.0085C16.1063 17.0091 17.0005 16.1159 17.0011 15.0174C17.0017 13.9189 16.1086 13.0247 15.0101 13.0241C14.1444 13.0236 13.4059 13.5784 13.1313 14.3512L11.0249 14.35C10.6588 14.3498 10.361 14.0517 10.3612 13.6855L10.3638 9.16991L13.1343 9.17148C13.408 9.94454 14.1458 10.5002 15.0115 10.5007C16.11 10.5013 17.0042 9.60809 17.0048 8.5096C17.0054 7.41114 16.1122 6.51691 15.0137 6.51629C14.148 6.5158 13.4096 7.07061 13.135 7.84335L10.3645 7.84179L10.3671 3.32617C10.3673 2.96 10.6654 2.66227 11.0315 2.66248L13.1379 2.66367C13.4116 3.43672 14.1495 3.99236 15.0152 3.99285C16.1137 3.99347 17.0079 3.10028 17.0085 2.00179C17.0091 0.903299 16.1159 0.00909851 15.0174 0.00847817C14.1517 0.0079893 13.4133 0.562796 13.1387 1.33554ZM15.673 15.0167C15.6728 15.3828 15.3747 15.6806 15.0086 15.6804C14.6424 15.6801 14.3447 15.3821 14.3449 15.0159C14.3451 14.6497 14.6431 14.352 15.0093 14.3522C15.3755 14.3524 15.6732 14.6505 15.673 15.0167ZM15.6767 8.50885C15.6765 8.87502 15.3784 9.17275 15.0122 9.17254C14.6461 9.17233 14.3483 8.87427 14.3485 8.5081C14.3488 8.14194 14.6468 7.84421 15.013 7.84441C15.3791 7.84462 15.6769 8.14269 15.6767 8.50885ZM5.3173 8.503C5.31668 9.60149 4.42248 10.4947 3.32399 10.4941C2.2255 10.4934 1.3323 9.59924 1.33292 8.50075C1.33355 7.40229 2.22775 6.50907 3.32624 6.50969C4.42473 6.51031 5.31792 7.40451 5.3173 8.503ZM15.6803 2.00104C15.6801 2.3672 15.3821 2.66493 15.0159 2.66473C14.6497 2.66452 14.352 2.36645 14.3522 2.00029C14.3524 1.63413 14.6505 1.3364 15.0167 1.3366C15.3828 1.33681 15.6806 1.63488 15.6803 2.00104Z" fill="currentColor"/>
</symbol>

  
  <symbol id="product" viewBox="0 0 18 18">

<path d="M17.137 4.99219L9.06849 0.992188L1 4.99219V12.9922L9.06849 16.9922L17.137 12.9922V4.99219Z" stroke="currentColor" stroke-width="1.3" stroke-linejoin="round"/>
<path d="M1 4.99219L9.06849 8.99218" stroke="currentColor" stroke-width="1.3" stroke-linecap="round" stroke-linejoin="round"/>
<path d="M9.06836 16.9922V8.99219" stroke="currentColor" stroke-width="1.3" stroke-linecap="round" stroke-linejoin="round"/>
<path d="M17.1369 4.99219L9.06836 8.99218" stroke="currentColor" stroke-width="1.3" stroke-linecap="round" stroke-linejoin="round"/>
<path d="M13.1036 2.99219L5.03516 6.99218" stroke="currentColor" stroke-width="1.3" stroke-linecap="round" stroke-linejoin="round"/>


  </symbol>


<symbol id="general-service" viewBox="0 0 16 16">
<path d="M0 3.06902C0 2.253 0.326942 1.47039 0.908902 0.893372C1.49086 0.316353 2.28017 -0.00781225 3.10318 -0.00781225H11.7983C12.2059 -0.00797392 12.6096 0.0714915 12.9862 0.226045C13.3629 0.380598 13.7051 0.60721 13.9934 0.892937C14.2817 1.17866 14.5104 1.51791 14.6664 1.89129C14.8224 2.26466 14.9027 2.66486 14.9027 3.06902V5.23388C14.5199 4.92003 14.1037 4.64849 13.6615 4.42406V3.68439H1.24127V11.6866C1.24127 12.1762 1.43744 12.6458 1.78661 12.992C2.13579 13.3382 2.60937 13.5327 3.10318 13.5327H4.47107C4.69822 13.9733 4.97254 14.3856 5.28783 14.7635H3.10318C2.28017 14.7635 1.49086 14.4393 0.908902 13.8623C0.326942 13.2853 0 12.5027 0 11.6866V3.06902ZM1.34678 2.45366H13.5522C13.2965 1.73614 12.6064 1.22292 11.7958 1.22292H3.10318C2.29263 1.22292 1.60248 1.73614 1.34678 2.45366ZM3.10939 4.91389H6.6284C6.12817 5.26342 5.67634 5.67695 5.28783 6.14463H3.72879V10.1839C3.72169 10.3635 3.72169 10.5433 3.72879 10.723V11.0676H3.75113C3.78961 11.4909 3.86781 11.902 3.98076 12.2983H3.10815C2.94355 12.2983 2.78568 12.2335 2.66929 12.1181C2.5529 12.0027 2.48751 11.8461 2.48751 11.6829V5.52926C2.48751 5.36606 2.5529 5.20954 2.66929 5.09413C2.78568 4.97873 2.94355 4.91389 3.10815 4.91389H3.10939ZM5.59318 8.26149L6.03755 8.69225C6.27439 8.92153 6.46258 9.19545 6.59108 9.49791C6.71957 9.80036 6.78576 10.1252 6.78576 10.4534C6.78576 10.7816 6.71957 11.1065 6.59108 11.409C6.46258 11.7114 6.27439 11.9853 6.03755 12.2146L5.59318 12.6454C5.75454 13.0269 5.95687 13.3875 6.19271 13.7198L6.68426 13.5733C7.00826 13.4769 7.34872 13.4472 7.68474 13.4859C8.02076 13.5246 8.34525 13.6311 8.63829 13.7986C8.93133 13.9662 9.18673 14.1914 9.38883 14.4604C9.59092 14.7294 9.73544 15.0365 9.81351 15.3628L9.95625 15.9585C10.3538 16.0034 10.7553 16.0034 11.1528 15.9585L11.2956 15.3628C11.3737 15.0365 11.5182 14.7294 11.7203 14.4604C11.9224 14.1914 12.1778 13.9662 12.4708 13.7986C12.7638 13.6311 13.0883 13.5246 13.4244 13.4859C13.7604 13.4472 14.1008 13.4769 14.4248 13.5733L14.9164 13.7198C15.1522 13.3875 15.3546 13.0269 15.5159 12.6441L15.0715 12.2134C14.8351 11.9841 14.6472 11.7104 14.5189 11.4081C14.3907 11.1059 14.3246 10.7813 14.3246 10.4534C14.3246 10.1255 14.3907 9.80094 14.5189 9.49872C14.6472 9.19649 14.8351 8.92272 15.0715 8.69348L15.5159 8.26272C15.3566 7.88338 15.1556 7.52264 14.9164 7.18706L14.4248 7.33352C14.1008 7.42993 13.7602 7.45964 13.4241 7.42082C13.088 7.382 12.7635 7.27546 12.4704 7.10776C12.1774 6.94006 11.922 6.71473 11.72 6.44561C11.5179 6.1765 11.3735 5.86927 11.2956 5.5428L11.1528 4.94712C10.7557 4.90226 10.3547 4.90226 9.9575 4.94712L9.81351 5.5428C9.73542 5.86902 9.59094 6.17598 9.38893 6.44486C9.18692 6.71374 8.93164 6.93886 8.63874 7.10642C8.34585 7.27398 8.02151 7.38045 7.68564 7.41929C7.34976 7.45813 7.00942 7.42852 6.6855 7.33229L6.19271 7.18583C5.95687 7.51813 5.75454 7.87873 5.59318 8.26149ZM10.5545 11.6842C10.2253 11.6842 9.90962 11.5545 9.67684 11.3237C9.44405 11.0929 9.31328 10.7798 9.31328 10.4534C9.31328 10.127 9.44405 9.81398 9.67684 9.58317C9.90962 9.35236 10.2253 9.2227 10.5545 9.2227C10.8838 9.2227 11.1995 9.35236 11.4323 9.58317C11.665 9.81398 11.7958 10.127 11.7958 10.4534C11.7958 10.7798 11.665 11.0929 11.4323 11.3237C11.1995 11.5545 10.8838 11.6842 10.5545 11.6842Z" fill="currentColor"/>
</symbol>


  <symbol id="workflow" viewBox="0 0 19 16" >
<path d="M17.1206 3.02788H11.1855L8.81139 1.25515C8.57403 1.07865 8.28586 0.983014 7.9896 0.982422H4.10895C3.74582 0.982828 3.39769 1.12663 3.14091 1.38227C2.88414 1.63791 2.73971 1.98452 2.7393 2.34606V3.70969H1.36965C1.00652 3.7101 0.658383 3.8539 0.401612 4.10954C0.144841 4.36519 0.000407832 4.7118 0 5.07333V14.6188C0.000407832 14.9803 0.144841 15.3269 0.401612 15.5826C0.658383 15.8382 1.00652 15.982 1.36965 15.9824H14.4574C14.8004 15.982 15.1292 15.8462 15.3717 15.6048C15.6142 15.3634 15.7506 15.036 15.751 14.6946V13.2551H17.1967C17.5397 13.2548 17.8685 13.119 18.111 12.8775C18.3535 12.6361 18.4899 12.3087 18.4903 11.9673V4.39151C18.4899 4.02998 18.3454 3.68337 18.0887 3.42772C17.8319 3.17208 17.4838 3.02828 17.1206 3.02788ZM14.3813 14.6188H1.36965V5.07333H5.25039L7.62442 6.84606C7.86178 7.02256 8.14996 7.11819 8.44621 7.11879L14.3813 7.11793L14.3813 7.11879V14.6188ZM17.1206 11.8915H15.751V7.11879C15.7506 6.75725 15.6061 6.41064 15.3494 6.155C15.0926 5.89935 14.7445 5.75556 14.3813 5.75515H8.44613L6.07209 3.98242C5.83473 3.80592 5.54656 3.71029 5.2503 3.70969H4.10895V2.34606H7.98969L10.3637 4.11879C10.6011 4.29528 10.8893 4.39092 11.1855 4.39151H17.1206V11.8915Z" fill="currentColor"/>
  </symbol>


  <symbol id="deals" viewBox="0 0 18 12">
<mask id="path-1-inside-1_20194_83108" fill="white">
<path d="M1.45704 7.73738C1.6594 7.73738 1.80106 7.65677 1.88201 7.49557C1.96295 7.33437 1.96295 7.17316 1.88201 7.01196C1.80106 6.85075 1.6594 6.77015 1.45704 6.77015C1.25467 6.77015 1.11301 6.85075 1.03207 7.01196C0.951122 7.17316 0.951122 7.33437 1.03207 7.49557C1.11301 7.65677 1.25467 7.73738 1.45704 7.73738ZM12.6352 7.2991C12.5847 7.23361 12.4873 7.10767 12.3431 6.92128C12.1989 6.73489 12.0939 6.59887 12.0281 6.51323C11.9624 6.42759 11.8663 6.30417 11.7398 6.14296C11.6133 5.98176 11.5058 5.84826 11.4173 5.74247C11.3287 5.63668 11.2263 5.5183 11.1099 5.38732C10.9935 5.25634 10.8797 5.13292 10.7684 5.01705L9.81982 6.07496C9.39991 6.54849 8.8725 6.78023 8.23757 6.77015C7.60265 6.76008 7.08282 6.51323 6.67809 6.02962C6.38972 5.68202 6.24679 5.28405 6.24932 4.8357C6.25185 4.38735 6.39983 3.9919 6.69326 3.64934L8.03647 2.09271C7.92517 2.03729 7.79616 1.99573 7.64945 1.96803C7.50273 1.94032 7.38258 1.92521 7.28898 1.92269C7.19539 1.92017 7.05246 1.92143 6.86022 1.92647C6.66797 1.9315 6.54402 1.93402 6.48837 1.93402C6.02293 1.93402 5.62325 2.10026 5.28935 2.43275L4.09033 3.62667H2.91407V7.73738C2.93937 7.73738 2.99249 7.73612 3.07344 7.7336C3.15438 7.73108 3.21004 7.73108 3.24039 7.7336C3.27074 7.73612 3.32007 7.74115 3.38837 7.74871C3.45667 7.75627 3.50853 7.7676 3.54394 7.78271C3.57935 7.79783 3.62362 7.81924 3.67674 7.84694C3.72986 7.87465 3.77666 7.90866 3.81713 7.94896L6.07099 10.1554C6.65279 10.7146 7.22701 10.9942 7.79363 10.9942C8.18825 10.9942 8.50444 10.8758 8.74222 10.6391C9.03059 10.7398 9.31517 10.7197 9.59596 10.5786C9.87674 10.4375 10.0601 10.2234 10.1461 9.9363C10.5205 9.96653 10.8418 9.8557 11.1099 9.60382C11.2111 9.51314 11.3022 9.39854 11.3831 9.26C11.464 9.12147 11.4995 8.99426 11.4893 8.8784C11.5399 8.92878 11.6487 8.95396 11.8157 8.95396C12.0332 8.95396 12.228 8.90107 12.4 8.79528C12.572 8.68949 12.6972 8.55599 12.7756 8.39479C12.8541 8.23358 12.8844 8.05349 12.8667 7.8545C12.849 7.65551 12.7718 7.47038 12.6352 7.2991ZM13.8419 7.73738H14.5704V3.86847H13.8646L12.6732 2.50831C12.3393 2.12545 11.9118 1.93402 11.3907 1.93402H10.1234C9.67311 1.93402 9.30379 2.10278 9.01542 2.4403L7.42937 4.27652C7.28772 4.44276 7.21689 4.63168 7.21689 4.84326C7.21689 5.05484 7.28519 5.24375 7.42178 5.40999C7.63933 5.66691 7.91758 5.79789 8.25654 5.80293C8.59551 5.80796 8.87629 5.68454 9.09889 5.43266L10.5635 3.78535C10.69 3.66949 10.8253 3.61533 10.9695 3.62289C11.1137 3.63045 11.2326 3.69845 11.3262 3.82691C11.4198 3.95537 11.4413 4.09769 11.3907 4.25385C11.4716 4.34957 11.6133 4.50825 11.8157 4.72991C12.018 4.95156 12.1698 5.12284 12.271 5.24375C12.4177 5.4251 12.6264 5.69084 12.8971 6.04095C13.1677 6.39107 13.3309 6.60391 13.3865 6.67947C13.6496 7.01196 13.8014 7.36459 13.8419 7.73738ZM16.0274 7.73738C16.2298 7.73738 16.3714 7.65677 16.4524 7.49557C16.5333 7.33437 16.5333 7.17316 16.4524 7.01196C16.3714 6.85075 16.2298 6.77015 16.0274 6.77015C15.825 6.77015 15.6834 6.85075 15.6024 7.01196C15.5215 7.17316 15.5215 7.33437 15.6024 7.49557C15.6834 7.65677 15.825 7.73738 16.0274 7.73738ZM17.4844 3.38486V8.22099C17.4844 8.35197 17.4364 8.46531 17.3403 8.56103C17.2441 8.65674 17.1303 8.7046 16.9988 8.7046H13.7053C13.5687 9.03205 13.3612 9.3003 13.083 9.50936C12.8047 9.71843 12.4885 9.84814 12.1344 9.89852C11.9674 10.1403 11.7638 10.3456 11.5235 10.5144C11.2832 10.6831 11.0239 10.7977 10.7456 10.8582C10.5332 11.1252 10.2688 11.3305 9.95263 11.474C9.63643 11.6176 9.31138 11.6793 8.97747 11.6592C8.67392 11.8305 8.3552 11.9299 8.02129 11.9577C7.68739 11.9854 7.36487 11.9501 7.05373 11.8519C6.74259 11.7536 6.44663 11.6189 6.16585 11.4476C5.88506 11.2763 5.62325 11.0723 5.38041 10.8355L3.20245 8.7046H0.485679C0.354141 8.7046 0.24031 8.65674 0.144186 8.56103C0.048062 8.46531 0 8.35197 0 8.22099V3.14305C0 3.01208 0.048062 2.89873 0.144186 2.80301C0.24031 2.7073 0.354141 2.65944 0.485679 2.65944H3.68054C3.75136 2.58891 3.87025 2.46801 4.03721 2.29673C4.20416 2.12545 4.32431 2.00455 4.39767 1.93402C4.47103 1.8635 4.58233 1.76274 4.73158 1.63176C4.88082 1.50079 5.00857 1.40633 5.11481 1.3484C5.22105 1.29046 5.35006 1.22623 5.50183 1.15571C5.65361 1.08518 5.81044 1.03606 5.97233 1.00836C6.13423 0.98065 6.30624 0.966797 6.48837 0.966797H7.37625C7.87711 0.966797 8.33496 1.10785 8.74981 1.38996C9.16466 1.10785 9.62252 0.966797 10.1234 0.966797H11.3907C11.5678 0.966797 11.7372 0.98191 11.8991 1.01214C12.061 1.04236 12.204 1.07888 12.3279 1.1217C12.4518 1.16452 12.5821 1.23127 12.7187 1.32195C12.8553 1.41263 12.9679 1.49071 13.0564 1.5562C13.145 1.62169 13.2537 1.72118 13.3827 1.85468C13.5117 1.98818 13.6104 2.09397 13.6787 2.17205C13.747 2.25013 13.8507 2.37104 13.9898 2.53476C14.129 2.69848 14.2339 2.82065 14.3048 2.90125H16.9988C17.1303 2.90125 17.2441 2.94911 17.3403 3.04482C17.4364 3.14054 17.4844 3.25388 17.4844 3.38486Z"/>
</mask>
<path d="M1.45704 7.73738C1.6594 7.73738 1.80106 7.65677 1.88201 7.49557C1.96295 7.33437 1.96295 7.17316 1.88201 7.01196C1.80106 6.85075 1.6594 6.77015 1.45704 6.77015C1.25467 6.77015 1.11301 6.85075 1.03207 7.01196C0.951122 7.17316 0.951122 7.33437 1.03207 7.49557C1.11301 7.65677 1.25467 7.73738 1.45704 7.73738ZM12.6352 7.2991C12.5847 7.23361 12.4873 7.10767 12.3431 6.92128C12.1989 6.73489 12.0939 6.59887 12.0281 6.51323C11.9624 6.42759 11.8663 6.30417 11.7398 6.14296C11.6133 5.98176 11.5058 5.84826 11.4173 5.74247C11.3287 5.63668 11.2263 5.5183 11.1099 5.38732C10.9935 5.25634 10.8797 5.13292 10.7684 5.01705L9.81982 6.07496C9.39991 6.54849 8.8725 6.78023 8.23757 6.77015C7.60265 6.76008 7.08282 6.51323 6.67809 6.02962C6.38972 5.68202 6.24679 5.28405 6.24932 4.8357C6.25185 4.38735 6.39983 3.9919 6.69326 3.64934L8.03647 2.09271C7.92517 2.03729 7.79616 1.99573 7.64945 1.96803C7.50273 1.94032 7.38258 1.92521 7.28898 1.92269C7.19539 1.92017 7.05246 1.92143 6.86022 1.92647C6.66797 1.9315 6.54402 1.93402 6.48837 1.93402C6.02293 1.93402 5.62325 2.10026 5.28935 2.43275L4.09033 3.62667H2.91407V7.73738C2.93937 7.73738 2.99249 7.73612 3.07344 7.7336C3.15438 7.73108 3.21004 7.73108 3.24039 7.7336C3.27074 7.73612 3.32007 7.74115 3.38837 7.74871C3.45667 7.75627 3.50853 7.7676 3.54394 7.78271C3.57935 7.79783 3.62362 7.81924 3.67674 7.84694C3.72986 7.87465 3.77666 7.90866 3.81713 7.94896L6.07099 10.1554C6.65279 10.7146 7.22701 10.9942 7.79363 10.9942C8.18825 10.9942 8.50444 10.8758 8.74222 10.6391C9.03059 10.7398 9.31517 10.7197 9.59596 10.5786C9.87674 10.4375 10.0601 10.2234 10.1461 9.9363C10.5205 9.96653 10.8418 9.8557 11.1099 9.60382C11.2111 9.51314 11.3022 9.39854 11.3831 9.26C11.464 9.12147 11.4995 8.99426 11.4893 8.8784C11.5399 8.92878 11.6487 8.95396 11.8157 8.95396C12.0332 8.95396 12.228 8.90107 12.4 8.79528C12.572 8.68949 12.6972 8.55599 12.7756 8.39479C12.8541 8.23358 12.8844 8.05349 12.8667 7.8545C12.849 7.65551 12.7718 7.47038 12.6352 7.2991ZM13.8419 7.73738H14.5704V3.86847H13.8646L12.6732 2.50831C12.3393 2.12545 11.9118 1.93402 11.3907 1.93402H10.1234C9.67311 1.93402 9.30379 2.10278 9.01542 2.4403L7.42937 4.27652C7.28772 4.44276 7.21689 4.63168 7.21689 4.84326C7.21689 5.05484 7.28519 5.24375 7.42178 5.40999C7.63933 5.66691 7.91758 5.79789 8.25654 5.80293C8.59551 5.80796 8.87629 5.68454 9.09889 5.43266L10.5635 3.78535C10.69 3.66949 10.8253 3.61533 10.9695 3.62289C11.1137 3.63045 11.2326 3.69845 11.3262 3.82691C11.4198 3.95537 11.4413 4.09769 11.3907 4.25385C11.4716 4.34957 11.6133 4.50825 11.8157 4.72991C12.018 4.95156 12.1698 5.12284 12.271 5.24375C12.4177 5.4251 12.6264 5.69084 12.8971 6.04095C13.1677 6.39107 13.3309 6.60391 13.3865 6.67947C13.6496 7.01196 13.8014 7.36459 13.8419 7.73738ZM16.0274 7.73738C16.2298 7.73738 16.3714 7.65677 16.4524 7.49557C16.5333 7.33437 16.5333 7.17316 16.4524 7.01196C16.3714 6.85075 16.2298 6.77015 16.0274 6.77015C15.825 6.77015 15.6834 6.85075 15.6024 7.01196C15.5215 7.17316 15.5215 7.33437 15.6024 7.49557C15.6834 7.65677 15.825 7.73738 16.0274 7.73738ZM17.4844 3.38486V8.22099C17.4844 8.35197 17.4364 8.46531 17.3403 8.56103C17.2441 8.65674 17.1303 8.7046 16.9988 8.7046H13.7053C13.5687 9.03205 13.3612 9.3003 13.083 9.50936C12.8047 9.71843 12.4885 9.84814 12.1344 9.89852C11.9674 10.1403 11.7638 10.3456 11.5235 10.5144C11.2832 10.6831 11.0239 10.7977 10.7456 10.8582C10.5332 11.1252 10.2688 11.3305 9.95263 11.474C9.63643 11.6176 9.31138 11.6793 8.97747 11.6592C8.67392 11.8305 8.3552 11.9299 8.02129 11.9577C7.68739 11.9854 7.36487 11.9501 7.05373 11.8519C6.74259 11.7536 6.44663 11.6189 6.16585 11.4476C5.88506 11.2763 5.62325 11.0723 5.38041 10.8355L3.20245 8.7046H0.485679C0.354141 8.7046 0.24031 8.65674 0.144186 8.56103C0.048062 8.46531 0 8.35197 0 8.22099V3.14305C0 3.01208 0.048062 2.89873 0.144186 2.80301C0.24031 2.7073 0.354141 2.65944 0.485679 2.65944H3.68054C3.75136 2.58891 3.87025 2.46801 4.03721 2.29673C4.20416 2.12545 4.32431 2.00455 4.39767 1.93402C4.47103 1.8635 4.58233 1.76274 4.73158 1.63176C4.88082 1.50079 5.00857 1.40633 5.11481 1.3484C5.22105 1.29046 5.35006 1.22623 5.50183 1.15571C5.65361 1.08518 5.81044 1.03606 5.97233 1.00836C6.13423 0.98065 6.30624 0.966797 6.48837 0.966797H7.37625C7.87711 0.966797 8.33496 1.10785 8.74981 1.38996C9.16466 1.10785 9.62252 0.966797 10.1234 0.966797H11.3907C11.5678 0.966797 11.7372 0.98191 11.8991 1.01214C12.061 1.04236 12.204 1.07888 12.3279 1.1217C12.4518 1.16452 12.5821 1.23127 12.7187 1.32195C12.8553 1.41263 12.9679 1.49071 13.0564 1.5562C13.145 1.62169 13.2537 1.72118 13.3827 1.85468C13.5117 1.98818 13.6104 2.09397 13.6787 2.17205C13.747 2.25013 13.8507 2.37104 13.9898 2.53476C14.129 2.69848 14.2339 2.82065 14.3048 2.90125H16.9988C17.1303 2.90125 17.2441 2.94911 17.3403 3.04482C17.4364 3.14054 17.4844 3.25388 17.4844 3.38486Z" fill="currentColor" stroke="currentColor" stroke-width="2" mask="url(#path-1-inside-1_20194_83108)"/>
</symbol>


  <symbol id="market-risk" viewBox="0 0 17 16">
<mask id="path-1-inside-1_20194_83102" fill="white">
<path d="M7.58203 5.39062H8.55414V11.1737H7.58203V5.39062Z"/>
</mask>
<path d="M7.58203 5.39062H8.55414V11.1737H7.58203V5.39062Z" fill="white" fill-opacity="0.6"/>
<path d="M7.58203 5.39062V4.39062H6.58203V5.39062H7.58203ZM8.55414 5.39062H9.55414V4.39062H8.55414V5.39062ZM8.55414 11.1737V12.1737H9.55414V11.1737H8.55414ZM7.58203 11.1737H6.58203V12.1737H7.58203V11.1737ZM7.58203 6.39062H8.55414V4.39062H7.58203V6.39062ZM7.55414 5.39062V11.1737H9.55414V5.39062H7.55414ZM8.55414 10.1737H7.58203V12.1737H8.55414V10.1737ZM8.58203 11.1737V5.39062H6.58203V11.1737H8.58203Z" fill="currentColor" mask="url(#path-1-inside-1_20194_83102)"/>
<mask id="path-3-inside-2_20194_83102" fill="white">
<path d="M7.58203 12.3301H8.55414V13.3022H7.58203V12.3301Z"/>
</mask>
<path d="M7.58203 12.3301H8.55414V13.3022H7.58203V12.3301Z" fill="white" fill-opacity="0.6"/>
<path d="M7.58203 12.3301V11.3301H6.58203V12.3301H7.58203ZM8.55414 12.3301H9.55414V11.3301H8.55414V12.3301ZM8.55414 13.3022V14.3022H9.55414V13.3022H8.55414ZM7.58203 13.3022H6.58203V14.3022H7.58203V13.3022ZM7.58203 13.3301H8.55414V11.3301H7.58203V13.3301ZM7.55414 12.3301V13.3022H9.55414V12.3301H7.55414ZM8.55414 12.3022H7.58203V14.3022H8.55414V12.3022ZM8.58203 13.3022V12.3301H6.58203V13.3022H8.58203Z" fill="currentColor" mask="url(#path-3-inside-2_20194_83102)"/>
<path d="M15.0612 15.4255H15.5612V14.9255V14.5575V14.4349L15.5045 14.3262L8.5118 0.921795L8.28768 0.492188H8.37099L15.637 14.4206V15.4922H0.5V14.4206L7.766 0.492188H7.8493L7.62519 0.921795L0.632494 14.3262L0.575799 14.4349V14.5575V14.9255V15.4255H1.0758H15.0612Z" fill="white" fill-opacity="0.6" stroke="currentColor"/>
</symbol>


<symbol id="auxiliary-service" viewBox="0 0 17 14" >
<path d="M15.5833 0.935547H1.41668C0.635342 0.935547 0 1.57089 0 2.35222V12.2689C0 13.0502 0.635342 13.6855 1.41668 13.6855H15.5834C16.3647 13.6855 17 13.0502 17 12.2689V2.35222C17 1.57089 16.3647 0.935547 15.5833 0.935547ZM1.41668 1.64387H15.5834C15.6356 1.64387 15.6815 1.66289 15.7305 1.67365C14.504 2.79615 10.4372 6.51663 9.01398 7.7989C8.90262 7.89921 8.72313 8.01887 8.50003 8.01887C8.27694 8.01887 8.09745 7.89921 7.98572 7.79857C6.56266 6.51649 2.49558 2.79582 1.26929 1.67372C1.31836 1.66296 1.36445 1.64387 1.41668 1.64387ZM0.708322 12.2689V2.35222C0.708322 2.28283 0.72924 2.21988 0.747967 2.15646C1.68669 3.01562 4.52436 5.61158 6.36434 7.28478C4.53033 8.86017 1.69193 11.5512 0.745742 12.4535C0.729041 12.3932 0.708322 12.3343 0.708322 12.2689ZM15.5833 12.9772H1.41668C1.3601 12.9772 1.3098 12.9575 1.25697 12.9449C2.2347 12.0128 5.09117 9.30629 6.89294 7.7649C7.12781 7.97796 7.34237 8.17223 7.51151 8.32464C7.80343 8.5882 8.14513 8.72722 8.5 8.72722C8.85487 8.72722 9.19657 8.58817 9.48812 8.32497C9.65733 8.1725 9.87205 7.97806 10.1071 7.7649C11.9089 9.30612 14.765 12.0124 15.743 12.9449C15.6902 12.9575 15.64 12.9772 15.5833 12.9772ZM16.2917 12.2689C16.2917 12.3343 16.271 12.3932 16.2543 12.4535C15.3077 11.5508 12.4697 8.86 10.6357 7.28481C12.4757 5.61161 15.313 3.01589 16.252 2.15639C16.2708 2.21981 16.2917 2.2828 16.2917 2.35219V12.2689Z" fill="currentColor"/>
</symbol>


<symbol id="messages" viewBox="0 0 19 19" >
<path d="M13.3113 16.4257L12.958 16.63L12.081 15.1097C12.0102 14.9872 11.8599 14.9358 11.729 14.9893C11.2698 15.1762 10.7888 15.3046 10.2976 15.3714C10.1574 15.3906 10.0529 15.5103 10.0529 15.6518V17.4083H8.92125V15.6518C8.92125 15.5103 8.81668 15.3906 8.67647 15.3714C8.18554 15.3045 7.70483 15.176 7.24594 14.9893C7.11499 14.9358 6.9647 14.9872 6.89397 15.1097L6.01695 16.63L5.03757 16.0642L5.91459 14.5425C5.98518 14.4202 5.95479 14.2646 5.84331 14.1779C5.45225 13.8738 5.10056 13.5221 4.79652 13.1311C4.70977 13.0197 4.55423 12.9892 4.43184 13.0598L2.91014 13.9368L2.34434 12.9574L3.86466 12.0804C3.98718 12.0097 4.03857 11.8594 3.98511 11.7284C3.79821 11.2694 3.66961 10.7887 3.60275 10.2976C3.58355 10.1574 3.46379 10.0529 3.32234 10.0529H1.5658V8.92125H3.32234C3.46379 8.92125 3.58355 8.81682 3.60275 8.67661C3.66961 8.18554 3.79808 7.70483 3.98483 7.24594C4.03829 7.11499 3.98691 6.9647 3.86438 6.89397L2.34406 6.01695L2.90986 5.03757L4.43157 5.91459C4.55395 5.98518 4.70949 5.95479 4.79624 5.84331C5.10028 5.45225 5.45197 5.10056 5.84304 4.79652C5.95437 4.70977 5.9849 4.55423 5.91431 4.43184L5.03729 2.91014L6.01667 2.34434L6.89369 3.86466C6.96442 3.98718 7.11471 4.03857 7.24566 3.98525C7.70469 3.79821 8.1854 3.66975 8.67647 3.60275C8.81668 3.58355 8.92125 3.46379 8.92125 3.32234V1.5658H10.0529V3.32234C10.0529 3.46379 10.1574 3.58355 10.2976 3.60275C10.7886 3.66961 11.2693 3.79808 11.7282 3.98497C11.8591 4.03829 12.0094 3.98691 12.0801 3.86438L12.9572 2.34406L13.9365 2.90986L13.0595 4.43157C12.9889 4.55395 13.0193 4.70949 13.1308 4.79624C13.5219 5.10028 13.8735 5.45197 14.1776 5.84304C14.2643 5.95451 14.4199 5.9849 14.5423 5.91431L16.064 5.03729L16.6298 6.01667L15.1094 6.89369C14.9869 6.96442 14.9355 7.11471 14.989 7.24566C15.1759 7.70469 15.3045 8.1854 15.3714 8.67661C15.3906 8.81682 15.5103 8.92125 15.6518 8.92125H17.4083V10.0529H15.6518C15.5103 10.0529 15.3906 10.1574 15.3714 10.2976C15.3045 10.7886 15.176 11.2693 14.9893 11.7282C14.9358 11.8591 14.9872 12.0094 15.1097 12.0801L16.63 12.9572L16.4268 13.3084C16.3488 13.4439 16.3952 13.6169 16.5306 13.6951C16.666 13.7733 16.839 13.7268 16.9172 13.5913L17.2615 12.995C17.3396 12.8598 17.2932 12.6867 17.158 12.6086L15.602 11.7103C15.7309 11.3558 15.8287 10.9904 15.8939 10.6187H17.6912C17.8474 10.6187 17.9741 10.492 17.9741 10.3358V8.63835C17.9741 8.48212 17.8474 8.35545 17.6912 8.35545H15.8939C15.8287 7.98358 15.7311 7.61808 15.602 7.26321L17.158 6.36491C17.2932 6.28686 17.3396 6.11378 17.2615 5.97855L16.4128 4.5074C16.3347 4.37217 16.1616 4.32575 16.0264 4.40394L14.4689 5.30403C14.2263 5.01505 13.9591 4.74776 13.6701 4.50519L14.5691 2.94785C14.6472 2.81262 14.6012 2.63967 14.4662 2.56135L12.995 1.71264C12.8598 1.63446 12.6867 1.68087 12.6086 1.81624L11.7103 3.3722C11.3558 3.24318 10.9904 3.14552 10.6187 3.08018V1.2829C10.6187 1.12667 10.492 1 10.3358 1H8.63835C8.48212 1 8.35545 1.12667 8.35545 1.2829V3.08018C7.98358 3.14538 7.61808 3.24318 7.26321 3.3722L6.36491 1.81624C6.28686 1.68128 6.1142 1.63487 5.9791 1.71264L4.50795 2.56135C4.37272 2.63953 4.32631 2.81248 4.40449 2.94785L5.30348 4.50519C5.0145 4.74776 4.74721 5.01505 4.50464 5.30403L2.94771 4.40504C2.81248 4.32686 2.63939 4.37327 2.56135 4.50851L1.71264 5.97965C1.63446 6.11489 1.68087 6.28797 1.81611 6.36615L3.37207 7.26431C3.24318 7.61877 3.14552 7.98386 3.08018 8.35545H1.2829C1.12667 8.35545 1 8.48212 1 8.63835V10.3358C1 10.492 1.12667 10.6187 1.2829 10.6187H3.08018C3.14538 10.9905 3.24305 11.356 3.37207 11.7109L1.81611 12.6092C1.68115 12.6872 1.63487 12.8599 1.71264 12.995L2.56135 14.4662C2.63939 14.6014 2.81248 14.6478 2.94771 14.5696L4.50519 13.6706C4.74776 13.9596 5.01505 14.2269 5.30403 14.4695L4.40504 16.0269C4.32686 16.1622 4.37327 16.3353 4.50851 16.4133L5.97965 17.262C6.04471 17.299 6.12165 17.3091 6.19404 17.2903C6.2667 17.271 6.32858 17.2235 6.36602 17.1586L7.26431 15.6026C7.61877 15.7313 7.98386 15.8289 8.35545 15.8939V17.6912C8.35545 17.8474 8.48212 17.9741 8.63835 17.9741H10.3358C10.492 17.9741 10.6187 17.8474 10.6187 17.6912V15.8939C10.9905 15.8287 11.356 15.7311 11.7109 15.602L12.6092 17.158C12.6468 17.2229 12.7087 17.2704 12.7812 17.2898C12.8536 17.3086 12.9305 17.2983 12.9956 17.2615L13.5942 16.9161C13.7296 16.8379 13.776 16.6649 13.6978 16.5295C13.6198 16.3941 13.4467 16.3477 13.3113 16.4257Z" fill="currentColor" stroke="currentColor" stroke-width="0.2"/>
<path d="M17.7522 16.152L12.387 10.7868C12.9155 9.57839 12.6249 8.16816 11.6618 7.2671C10.6986 6.36618 9.27208 6.17016 8.10165 6.77796C8.02195 6.81982 7.96683 6.89703 7.9533 6.98599C7.93962 7.07495 7.96918 7.16502 8.03286 7.2287L10.1385 9.3343L9.33507 10.1377L7.22947 8.03209C7.16579 7.96841 7.07572 7.93885 6.98676 7.95253C6.8978 7.96607 6.82059 8.02118 6.77873 8.10089C6.1701 9.27145 6.3657 10.6985 7.26676 11.6622C8.16796 12.6258 9.57888 12.9164 10.7876 12.3874L16.1528 17.7515C16.4841 18.0828 17.0213 18.0828 17.3527 17.7515L17.7522 17.3517C18.0837 17.0203 18.0837 16.4828 17.7522 16.1514V16.152ZM17.3525 16.9521L16.9526 17.3517C16.8407 17.4587 16.6645 17.4587 16.5528 17.3517L11.0457 11.8445C10.9584 11.7571 10.8244 11.7365 10.7148 11.7935C9.79382 12.2738 8.6734 12.1465 7.88368 11.4717C7.09396 10.797 6.79323 9.71017 7.12393 8.72554L9.13505 10.7367C9.24556 10.8472 9.42458 10.8472 9.53509 10.7367L10.7374 9.53432C10.8479 9.42381 10.8479 9.24479 10.7374 9.13428L8.7263 7.12316C9.71093 6.7926 10.7978 7.09319 11.4724 7.88291C12.1472 8.67263 12.2746 9.79305 11.7943 10.714C11.7372 10.8237 11.7578 10.9577 11.8453 11.045L17.3525 16.552C17.463 16.6625 17.463 16.8416 17.3525 16.9521Z" fill="currentColor" stroke="currentColor" stroke-width="0.2"/>
<path d="M4.67773 9.48706C4.68064 12.142 6.83224 14.2935 9.48706 14.2964C9.6433 14.2964 9.76997 14.1697 9.76997 14.0135C9.76997 13.8573 9.6433 13.7306 9.48706 13.7306C7.14346 13.7306 5.24354 11.8307 5.24354 9.48706C5.24354 7.14346 7.14346 5.24354 9.48706 5.24354C9.6433 5.24354 9.76997 5.11687 9.76997 4.96064C9.76997 4.8044 9.6433 4.67773 9.48706 4.67773C6.83224 4.68077 4.68064 6.83224 4.67773 9.48706Z" fill="currentColor" stroke="currentColor" stroke-width="0.2"/>
</symbol>



<symbol id="utilities" viewBox="0 0 16 17">
<path d="M4.45525 3.77408C3.67646 3.72653 3.06836 4.3385 3.06836 5.02459V15.6823C3.06836 16.3684 3.67643 16.9803 4.45525 16.9328C7.39053 16.7534 10.326 16.5739 13.2613 16.3946C13.9618 16.3518 14.5834 15.8301 14.5834 15.1441V13.6584C14.5843 13.5978 14.5722 13.5377 14.5478 13.4815C14.5234 13.4253 14.4871 13.3742 14.4411 13.3311C14.3951 13.288 14.3402 13.2537 14.2798 13.2304C14.2193 13.207 14.1544 13.195 14.0889 13.195C14.0234 13.195 13.9585 13.207 13.898 13.2304C13.8376 13.2537 13.7828 13.288 13.7367 13.3311C13.6907 13.3742 13.6545 13.4253 13.63 13.4815C13.6056 13.5377 13.5935 13.5978 13.5944 13.6584V15.1441C13.5944 15.3384 13.4464 15.4675 13.1961 15.4828C10.2608 15.6621 7.32528 15.8416 4.39 16.021C4.21803 16.0315 4.05735 15.8766 4.05735 15.6823V5.02459C4.05735 4.83026 4.21803 4.67538 4.39 4.6859C7.32528 4.86523 10.2608 5.04437 13.1961 5.22369C13.4464 5.23892 13.5944 5.36805 13.5944 5.5624V7.05009C13.5935 7.11063 13.6056 7.17074 13.63 7.22693C13.6545 7.28311 13.6907 7.33424 13.7367 7.37736C13.7828 7.42048 13.8376 7.45472 13.898 7.47809C13.9585 7.50145 14.0234 7.51349 14.0889 7.51349C14.1544 7.51349 14.2193 7.50145 14.2798 7.47809C14.3402 7.45472 14.3951 7.42048 14.4411 7.37736C14.4871 7.33424 14.5234 7.28311 14.5478 7.22693C14.5722 7.17074 14.5843 7.11063 14.5834 7.05009V5.5624C14.5834 4.87629 13.9618 4.35468 13.2613 4.3119C10.326 4.13257 7.39053 3.95341 4.45525 3.77408Z" fill="currentColor"/>
<path d="M1.38733 0.938147C0.608515 0.890589 0 1.50256 0 2.18865V12.8463C0 13.5324 0.608515 14.1444 1.38733 14.0968C2.11081 14.0526 3.55762 13.9644 3.55762 13.9644L3.49237 13.0526C3.49237 13.0526 2.04558 13.1408 1.32208 13.185C1.15009 13.1956 0.988991 13.0407 0.988991 12.8463V2.18865C0.988991 1.99434 1.15011 1.83944 1.32208 1.84996C4.25736 2.02931 7.19243 2.20882 10.1277 2.38816C10.3781 2.40339 10.526 2.5325 10.526 2.72685V4.21415H11.515V2.72685C11.515 2.04078 10.8934 1.51913 10.193 1.47635C7.25768 1.297 4.32259 1.11749 1.38733 0.938147Z" fill="currentColor"/>
<path d="M15.4904 8.99433C15.362 8.99779 15.2401 9.04729 15.1504 9.13235L13.5536 10.6077L13.0278 10.1219C12.935 10.0362 12.8092 9.98812 12.678 9.98815C12.5469 9.98819 12.4211 10.0364 12.3284 10.1221C12.2356 10.2078 12.1836 10.3241 12.1836 10.4453C12.1836 10.5665 12.2358 10.6827 12.3286 10.7684L13.2038 11.5771C13.2965 11.6627 13.4223 11.7108 13.5534 11.7108C13.6845 11.7108 13.8103 11.6627 13.903 11.5771L15.8497 9.77842C15.921 9.71422 15.9697 9.63162 15.9894 9.54143C16.0091 9.45124 15.9989 9.35766 15.9601 9.27293C15.9212 9.1882 15.8556 9.11628 15.7718 9.06657C15.688 9.01686 15.59 8.99168 15.4904 8.99433Z" fill="currentColor"/>
<path d="M5.58748 7.86723C5.52195 7.86638 5.45689 7.87756 5.39609 7.90014C5.33528 7.92272 5.27993 7.95623 5.23327 7.99875C5.1866 8.04126 5.14955 8.09191 5.12425 8.14777C5.09896 8.20363 5.08594 8.26358 5.08594 8.32413C5.08594 8.38468 5.09896 8.44462 5.12425 8.50048C5.14955 8.55634 5.1866 8.607 5.23327 8.64951C5.27993 8.69202 5.33528 8.72554 5.39609 8.74811C5.45689 8.77069 5.52195 8.78188 5.58748 8.78102H9.54388C9.60941 8.78188 9.67446 8.77069 9.73527 8.74811C9.79608 8.72554 9.85142 8.69202 9.89809 8.64951C9.94476 8.607 9.98181 8.55634 10.0071 8.50048C10.0324 8.44462 10.0454 8.38468 10.0454 8.32413C10.0454 8.26358 10.0324 8.20363 10.0071 8.14777C9.98181 8.09191 9.94476 8.04126 9.89809 7.99875C9.85142 7.95623 9.79608 7.92272 9.73527 7.90014C9.67446 7.87756 9.60941 7.86638 9.54388 7.86723H5.58748Z" fill="currentColor"/>
<path d="M5.58746 9.89848C5.52194 9.89763 5.45688 9.90882 5.39607 9.93139C5.33527 9.95397 5.27993 9.98749 5.23326 10.03C5.1866 10.0725 5.14954 10.1232 5.12425 10.179C5.09896 10.2349 5.08594 10.2948 5.08594 10.3554C5.08594 10.4159 5.09896 10.4759 5.12425 10.5317C5.14954 10.5876 5.1866 10.6382 5.23326 10.6808C5.27993 10.7233 5.33527 10.7568 5.39607 10.7794C5.45688 10.8019 5.52194 10.8131 5.58746 10.8123H9.54386C9.60939 10.8131 9.67444 10.8019 9.73525 10.7794C9.79605 10.7568 9.8514 10.7233 9.89806 10.6808C9.94472 10.6382 9.98178 10.5876 10.0071 10.5317C10.0324 10.4759 10.0454 10.4159 10.0454 10.3554C10.0454 10.2948 10.0324 10.2349 10.0071 10.179C9.98178 10.1232 9.94472 10.0725 9.89806 10.03C9.8514 9.98749 9.79605 9.95397 9.73525 9.93139C9.67444 9.90882 9.60939 9.89763 9.54386 9.89848H5.58746Z" fill="currentColor"/>
<path d="M5.58748 11.9278C5.52195 11.9269 5.45689 11.9381 5.39609 11.9607C5.33528 11.9833 5.27993 12.0168 5.23327 12.0593C5.1866 12.1018 5.14955 12.1525 5.12425 12.2083C5.09896 12.2642 5.08594 12.3241 5.08594 12.3847C5.08594 12.4452 5.09896 12.5052 5.12425 12.561C5.14955 12.6169 5.1866 12.6675 5.23327 12.7101C5.27993 12.7526 5.33528 12.7861 5.39609 12.8087C5.45689 12.8312 5.52195 12.8424 5.58748 12.8416H9.54388C9.60941 12.8424 9.67446 12.8312 9.73527 12.8087C9.79608 12.7861 9.85142 12.7526 9.89809 12.7101C9.94476 12.6675 9.98181 12.6169 10.0071 12.561C10.0324 12.5052 10.0454 12.4452 10.0454 12.3847C10.0454 12.3241 10.0324 12.2642 10.0071 12.2083C9.98181 12.1525 9.94476 12.1018 9.89809 12.0593C9.85142 12.0168 9.79608 11.9833 9.73527 11.9607C9.67446 11.9381 9.60941 11.9269 9.54388 11.9278H5.58748Z" fill="currentColor"/>
</symbol>


<symbol id="report" viewBox="0 0 20 20">
<path d="M9.78906 7.19922C9.98311 7.19922 10.1406 7.0417 10.1406 6.84766C10.1406 6.65361 9.98311 6.49609 9.78906 6.49609C9.59502 6.49609 9.4375 6.65361 9.4375 6.84766C9.4375 7.0417 9.59502 7.19922 9.78906 7.19922Z" fill="currentColor" stroke="currentColor" stroke-width="0.3"/>
<path d="M9.78906 8.60547C9.98311 8.60547 10.1406 8.44795 10.1406 8.25391C10.1406 8.05986 9.98311 7.90234 9.78906 7.90234C9.59502 7.90234 9.4375 8.05986 9.4375 8.25391C9.4375 8.44795 9.59502 8.60547 9.78906 8.60547Z" fill="currentColor" stroke="currentColor" stroke-width="0.3"/>
<path d="M18.897 4.48972L15.3814 0.974091C15.3192 0.911743 15.2288 0.871094 15.1328 0.871094H6.27344C5.69185 0.871094 5.21875 1.34419 5.21875 1.92578V2.99667C5.10202 2.9861 4.9846 2.98047 4.86719 2.98047C2.73488 2.98047 1 4.71535 1 6.84766C1 8.97997 2.73488 10.7148 4.86719 10.7148C4.9846 10.7148 5.10202 10.7092 5.21875 10.6986V17.8164C5.21875 18.398 5.69185 18.8711 6.27344 18.8711H17.9453C18.5269 18.8711 19 18.398 19 17.8164V4.73828C19 4.64229 18.96 4.55275 18.897 4.48972ZM15.4844 2.07135L17.7997 4.38672H15.4844V2.07135ZM5.21875 3.70323C6.70328 3.86707 7.8486 5.0507 8.01093 6.49609H5.21875V3.70323ZM1.70312 6.84766C1.70312 5.22182 2.93579 3.87874 4.51562 3.70323V6.84766C4.51562 7.04184 4.673 7.19881 4.86719 7.19881H8.01093C7.83432 8.7715 6.50374 10.0117 4.86719 10.0117C3.12256 10.0117 1.70312 8.59229 1.70312 6.84766ZM17.9453 18.168H6.27344C6.07953 18.168 5.92188 18.0103 5.92188 17.8164V10.5685C7.56763 10.1026 8.73438 8.5824 8.73438 6.84766C8.73438 5.11292 7.56763 3.59268 5.92188 3.12686V1.92578C5.92188 1.73187 6.07953 1.57422 6.27344 1.57422H14.7812V4.73828C14.7812 4.93246 14.9386 5.08984 15.1328 5.08984H18.2969V17.8164C18.2969 18.0103 18.1392 18.168 17.9453 18.168Z" fill="currentColor" stroke="currentColor" stroke-width="0.3"/>
<path d="M10 3.68359H13.7266C13.9207 3.68359 14.0781 3.52621 14.0781 3.33203C14.0781 3.13785 13.9207 2.98047 13.7266 2.98047H10C9.80582 2.98047 9.64844 3.13785 9.64844 3.33203C9.64844 3.52621 9.80582 3.68359 10 3.68359Z" fill="currentColor" stroke="currentColor" stroke-width="0.3"/>
<path d="M10 5.08984H13.7266C13.9207 5.08984 14.0781 4.93246 14.0781 4.73828C14.0781 4.5441 13.9207 4.38672 13.7266 4.38672H10C9.80582 4.38672 9.64844 4.5441 9.64844 4.73828C9.64844 4.93246 9.80582 5.08984 10 5.08984Z" fill="currentColor" stroke="currentColor" stroke-width="0.3"/>
<path d="M4.86719 8.60547C3.89792 8.60547 3.10938 7.81693 3.10938 6.84766C3.10938 6.65347 2.952 6.49609 2.75781 6.49609C2.56363 6.49609 2.40625 6.65347 2.40625 6.84766C2.40625 8.20461 3.51024 9.30859 4.86719 9.30859C5.06137 9.30859 5.21875 9.15121 5.21875 8.95703C5.21875 8.76285 5.06137 8.60547 4.86719 8.60547Z" fill="currentColor" stroke="currentColor" stroke-width="0.3"/>
<path d="M16.4336 10.2227C15.852 10.2227 15.3789 10.6958 15.3789 11.2773C15.3789 11.4953 15.4454 11.6981 15.5591 11.8663L13.1178 14.4866C13.0211 14.4573 12.9187 14.4414 12.8125 14.4414C12.6642 14.4414 12.5207 14.4722 12.3888 14.53L11.2892 13.1669C11.3656 13.0192 11.4062 12.8546 11.4062 12.6836C11.4062 12.102 10.9332 11.6289 10.3516 11.6289C9.76997 11.6289 9.29688 12.102 9.29688 12.6836C9.29688 12.8478 9.3345 13.0062 9.40509 13.1493L8.12312 14.5388C7.98593 14.4751 7.83542 14.4414 7.67969 14.4414C7.0981 14.4414 6.625 14.9145 6.625 15.4961C6.625 16.0777 7.0981 16.5508 7.67969 16.5508C8.26128 16.5508 8.73438 16.0777 8.73438 15.4961C8.73438 15.3318 8.69688 15.1735 8.62616 15.0304L9.90813 13.6409C10.0453 13.7046 10.1958 13.7383 10.3516 13.7383C10.4999 13.7383 10.6434 13.7075 10.7752 13.6497L11.8748 15.0128C11.7985 15.1605 11.7578 15.3251 11.7578 15.4961C11.7578 16.0777 12.2309 16.5508 12.8125 16.5508C13.3941 16.5508 13.8672 16.0777 13.8672 15.4961C13.8672 15.2782 13.8007 15.0753 13.687 14.9071L16.1283 12.2868C16.225 12.3161 16.3274 12.332 16.4336 12.332C17.0152 12.332 17.4883 11.8589 17.4883 11.2773C17.4883 10.6958 17.0152 10.2227 16.4336 10.2227ZM7.67969 15.8477C7.48578 15.8477 7.32812 15.69 7.32812 15.4961C7.32812 15.3022 7.48578 15.1445 7.67969 15.1445C7.87373 15.1445 8.03125 15.3019 8.03125 15.4961C8.03125 15.69 7.8736 15.8477 7.67969 15.8477ZM10 12.6836C10 12.4897 10.1577 12.332 10.3516 12.332C10.5455 12.332 10.7031 12.4897 10.7031 12.6836C10.7031 12.8776 10.5457 13.0352 10.3516 13.0352C10.1574 13.0352 10 12.8776 10 12.6836ZM12.8125 15.8477C12.6186 15.8477 12.4609 15.69 12.4609 15.4961C12.4609 15.302 12.6183 15.1445 12.8125 15.1445C13.0064 15.1445 13.1641 15.3022 13.1641 15.4961C13.1641 15.69 13.0064 15.8477 12.8125 15.8477ZM16.4336 11.6289C16.2397 11.6289 16.082 11.4713 16.082 11.2773C16.082 11.0834 16.2397 10.9258 16.4336 10.9258C16.6275 10.9258 16.7852 11.0834 16.7852 11.2773C16.7852 11.4713 16.6275 11.6289 16.4336 11.6289Z" fill="currentColor" stroke="currentColor" stroke-width="0.3"/>
<path d="M10.8438 6.84766C10.8438 7.04184 11.0011 7.19922 11.1953 7.19922H16.5391C16.7332 7.19922 16.8906 7.04184 16.8906 6.84766C16.8906 6.65347 16.7332 6.49609 16.5391 6.49609H11.1953C11.0011 6.49609 10.8438 6.65347 10.8438 6.84766Z" fill="currentColor" stroke="currentColor" stroke-width="0.3"/>
<path d="M16.5391 7.90234H11.1953C11.0011 7.90234 10.8438 8.05972 10.8438 8.25391C10.8438 8.44809 11.0011 8.60547 11.1953 8.60547H16.5391C16.7332 8.60547 16.8906 8.44809 16.8906 8.25391C16.8906 8.05972 16.7332 7.90234 16.5391 7.90234Z" fill="currentColor" stroke="currentColor" stroke-width="0.3"/>
</symbol>



<symbol id="analytics" viewBox="0 0 17 18">
<path d="M14.3261 3.29503C14.5824 3.44061 14.8783 3.52425 15.1936 3.52425C16.1652 3.52425 16.9557 2.73376 16.9557 1.76214C16.9557 0.790491 16.1652 0 15.1936 0C14.2219 0 13.4315 0.790491 13.4315 1.76214C13.4315 2.03278 13.4929 2.28928 13.6024 2.51864L11.7003 3.95917C11.4191 3.76925 11.0805 3.65826 10.7164 3.65826C10.3611 3.65826 10.0302 3.76433 9.75318 3.94595L7.88828 2.42006C7.96119 2.22694 8.00138 2.01794 8.00138 1.79962C8.00138 0.828002 7.21089 0.0375118 6.23927 0.0375118C5.26765 0.0375118 4.47716 0.828002 4.47716 1.79962C4.47716 2.04589 4.52814 2.28045 4.61979 2.49353L2.1836 5.0564C2.04846 5.0231 1.90737 5.00507 1.76211 5.00507C0.790491 5.00507 0 5.79556 0 6.76718C0 7.73879 0.790491 8.52928 1.76211 8.52928C2.73372 8.52928 3.52421 7.73879 3.52421 6.76718C3.52421 6.33106 3.3646 5.93176 3.10118 5.62372L5.31248 3.29746C5.58192 3.4648 5.89941 3.56176 6.23927 3.56176C6.60929 3.56176 6.95284 3.44687 7.23666 3.25126L9.08254 4.76158C9.00013 4.96524 8.95429 5.1875 8.95429 5.42037C8.95429 6.39199 9.74478 7.18248 10.7164 7.18248C11.688 7.18248 12.4785 6.39199 12.4785 5.42037C12.4785 5.19621 12.436 4.98194 12.3593 4.78457L14.3261 3.29503ZM15.1936 1.05589C15.583 1.05589 15.8998 1.37268 15.8998 1.76214C15.8998 2.15153 15.583 2.46833 15.1936 2.46833C14.8042 2.46833 14.4873 2.15153 14.4873 1.76214C14.4874 1.37272 14.8042 1.05589 15.1936 1.05589ZM1.76211 7.4734C1.37272 7.4734 1.05589 7.1566 1.05589 6.76718C1.05589 6.37775 1.37268 6.06096 1.76211 6.06096C2.1515 6.06096 2.46833 6.37775 2.46833 6.76718C2.46833 7.1566 2.1515 7.4734 1.76211 7.4734ZM6.23927 2.50584C5.84988 2.50584 5.53305 2.18905 5.53305 1.79962C5.53305 1.41019 5.84984 1.09343 6.23927 1.09343C6.6287 1.09343 6.94549 1.41023 6.94549 1.79962C6.94549 2.18901 6.62866 2.50584 6.23927 2.50584ZM10.7164 6.12652C10.327 6.12652 10.0102 5.80973 10.0102 5.42034C10.0102 5.03094 10.327 4.71412 10.7164 4.71412C11.1059 4.71412 11.4227 5.03091 11.4227 5.42034C11.4227 5.80976 11.1058 6.12652 10.7164 6.12652Z" fill="currentColor"/>
<path d="M15.1638 6.80664C14.2141 6.80664 13.4414 7.57931 13.4414 8.52899V17.9992H16.8861V8.52899C16.8861 7.57931 16.1135 6.80664 15.1638 6.80664ZM15.8302 16.9433H14.4973V8.52899C14.4973 8.16153 14.7963 7.86256 15.1637 7.86256C15.5312 7.86256 15.8302 8.16153 15.8302 8.52899V16.9433H15.8302Z" fill="currentColor"/>
<path d="M10.7145 11.1211C9.76485 11.1211 8.99219 11.8937 8.99219 12.8435V17.9997H12.4369V12.8434C12.4369 11.8937 11.6642 11.1211 10.7145 11.1211ZM11.381 16.9438H10.0481V12.8434C10.0481 12.476 10.347 12.177 10.7145 12.177C11.082 12.177 11.381 12.476 11.381 12.8434V16.9438H11.381Z" fill="currentColor"/>
<path d="M6.21457 8.21484C5.26485 8.21484 4.49219 8.98748 4.49219 9.93722V17.9995H7.93695V9.93722C7.93695 8.98751 7.16432 8.21484 6.21457 8.21484ZM6.88106 16.9436H5.54811V9.93722C5.54811 9.56973 5.84708 9.27076 6.21457 9.27076C6.58206 9.27076 6.88103 9.56973 6.88103 9.93722V16.9436H6.88106Z" fill="currentColor"/>
<path d="M1.76535 12.7031C0.815635 12.7031 0.0429688 13.4758 0.0429688 14.4255V18.0002H3.48769V14.4255C3.48769 13.4758 2.71503 12.7031 1.76535 12.7031ZM2.43177 16.9443H1.09889V14.4255C1.09889 14.058 1.39786 13.759 1.76535 13.759C2.1328 13.759 2.43177 14.058 2.43177 14.4255V16.9443Z" fill="currentColor"/>
</symbol>


</svg>
